<svg width="106" height="322" viewBox="0 0 106 322" fill="none" xmlns="http://www.w3.org/2000/svg">
<g clip-path="url(#clip0_364_613)">
<path d="M143 185.16L143 183.731L112.453 183.731L111.324 183.694C111.163 183.687 111.002 183.69 110.84 183.694L110.606 183.694C108.784 183.577 107.043 183.276 105.276 182.77C103.813 182.378 102.314 181.726 100.408 180.652C98.9559 179.846 97.5372 178.776 96.0123 177.328C95.8437 177.196 95.686 177.024 95.5174 176.837C95.3671 176.672 95.2168 176.507 95.0152 176.327C94.9712 176.291 94.9126 176.214 94.8502 176.133C94.7769 176.038 94.7036 175.946 94.6596 175.902C94.5753 175.8 94.4873 175.704 94.3957 175.609C94.326 175.536 94.2564 175.463 94.2197 175.419C94.0731 175.21 93.9191 175.004 93.7432 174.796L93.5452 174.568L93.3766 174.304C93.2336 174.092 93.0833 173.887 92.9404 173.711C92.8817 173.634 92.8341 173.546 92.7864 173.462C92.7204 173.352 92.6581 173.238 92.5811 173.128C92.2439 172.652 91.969 172.135 91.6794 171.589C91.5437 171.332 91.4081 171.076 91.2651 170.823C91.1588 170.563 91.0452 170.302 90.9315 170.046C90.6859 169.481 90.4513 168.95 90.2827 168.378C89.6192 166.377 89.2746 164.779 89.1646 163.182C89.0107 161.367 89.062 159.392 89.3039 157.618C89.5019 156.061 89.9308 154.492 90.6969 152.524C91.2798 150.992 92.1266 149.464 93.2996 147.829C93.6479 147.302 94.0658 146.814 94.5057 146.297C94.6706 146.107 94.8356 145.913 94.9932 145.718C95.1985 145.517 95.4001 145.312 95.6017 145.106C96.0526 144.645 96.4815 144.208 97.0094 143.791C97.4419 143.38 97.9258 143.028 98.439 142.658C98.6773 142.486 98.9156 142.314 99.1465 142.134C99.3885 141.991 99.6231 141.845 99.8613 141.698C100.404 141.361 100.913 141.042 101.482 140.782C103.237 139.888 104.858 139.283 106.441 138.938C108.241 138.521 110.019 138.308 111.874 138.282L143 138.282L143 136.816L111.859 136.816C109.887 136.842 108.007 137.069 106.111 137.509C104.411 137.879 102.677 138.524 100.833 139.462C100.21 139.748 99.6341 140.107 99.0769 140.452C98.8386 140.602 98.5966 140.749 98.3547 140.892L98.2777 140.943C98.0431 141.123 97.8048 141.295 97.5666 141.471C97.0387 141.852 96.4925 142.248 96.0453 142.68C95.4917 143.113 95.0079 143.604 94.5423 144.08C94.3407 144.285 94.1391 144.491 93.9301 144.692L93.8751 144.755C93.7102 144.952 93.5452 145.15 93.3766 145.348C92.9257 145.876 92.4602 146.422 92.0789 147.001C90.8472 148.716 89.9455 150.351 89.3149 152C88.5195 154.052 88.0466 155.778 87.8376 157.428C87.68 158.586 87.5957 159.828 87.5957 161.06C87.5957 161.815 87.625 162.57 87.6873 163.295C87.8046 165.007 88.1712 166.718 88.8677 168.814C89.0547 169.456 89.3186 170.053 89.5752 170.636C89.6888 170.896 89.8025 171.156 89.9125 171.42L89.9564 171.508C90.0994 171.761 90.2387 172.018 90.3743 172.278C90.6713 172.842 90.9829 173.421 91.3714 173.971C91.4228 174.044 91.4631 174.118 91.5071 174.195C91.584 174.326 91.661 174.458 91.771 174.605C91.9066 174.774 92.0313 174.942 92.1449 175.111L92.3355 175.408L92.6215 175.745C92.7571 175.91 92.8891 176.082 93.0394 176.294C93.1273 176.408 93.2263 176.511 93.3253 176.617C93.3913 176.687 93.4573 176.756 93.5526 176.87C93.6002 176.918 93.6405 176.976 93.6809 177.027C93.7835 177.159 93.9081 177.324 94.0548 177.442C94.1867 177.563 94.3077 177.694 94.4287 177.826C94.6303 178.046 94.8392 178.274 95.0482 178.435C96.6098 179.923 98.1311 181.066 99.689 181.931C101.705 183.064 103.311 183.76 104.883 184.181C106.742 184.713 108.582 185.032 110.551 185.16C110.653 185.16 110.756 185.16 110.862 185.16C110.994 185.16 111.126 185.156 111.255 185.16L143 185.16Z" fill="#998675"/>
<path d="M143 190.932L112.453 190.932L110.228 190.888C107.823 190.738 105.532 190.342 103.212 189.672C101.207 189.118 99.1575 188.228 96.7601 186.872C94.8356 185.791 92.9147 184.343 91.0122 182.529C90.7666 182.327 90.543 182.085 90.3047 181.829C90.1251 181.635 89.9418 181.44 89.7218 181.231C89.6302 181.154 89.5385 181.037 89.4396 180.913C89.3516 180.803 89.2673 180.696 89.2013 180.627C89.0987 180.502 88.9923 180.385 88.8824 180.268C88.7834 180.161 88.6844 180.055 88.6148 179.971C88.4278 179.71 88.2299 179.458 88.0209 179.201L87.7497 178.879L87.5114 178.523C87.3318 178.259 87.1411 178.003 86.9578 177.768C86.8735 177.651 86.8002 177.526 86.7232 177.402C86.6463 177.27 86.5656 177.138 86.4776 177.009C85.9901 176.302 85.5905 175.554 85.169 174.759C85.026 174.488 84.883 174.22 84.7364 173.949C84.6228 173.682 84.5055 173.414 84.3882 173.15C84.0252 172.322 83.6807 171.541 83.4241 170.706C82.5736 168.17 82.1044 165.989 81.9468 163.834C81.7378 161.437 81.8038 158.934 82.13 156.585C82.4086 154.47 82.9952 152.323 83.9739 149.831C84.7657 147.789 85.9131 145.711 87.4014 143.641C87.922 142.864 88.5268 142.156 89.172 141.409L89.6155 140.885C89.8355 140.669 90.0518 140.445 90.268 140.225C90.9169 139.562 91.5327 138.935 92.2622 138.349C92.9037 137.755 93.6039 137.249 94.3444 136.71C94.601 136.524 94.8576 136.337 95.0555 136.186C95.3085 136.032 95.5614 135.875 95.8107 135.721C96.5988 135.23 97.3466 134.764 98.1604 134.38C100.444 133.214 102.592 132.415 104.74 131.939C107.101 131.385 109.433 131.107 111.867 131.081L143 131.081L143 129.615L111.859 129.615C109.308 129.641 106.867 129.934 104.411 130.509C102.149 131.015 99.887 131.854 97.5116 133.064C96.6391 133.474 95.8217 133.984 95.0335 134.475C94.7879 134.629 94.5423 134.783 94.2344 134.973C93.9851 135.16 93.7358 135.343 93.4829 135.523C92.7388 136.062 91.9726 136.619 91.3091 137.238C90.5503 137.843 89.8758 138.532 89.2196 139.199C89.007 139.415 88.7981 139.631 88.5378 139.892L88.0576 140.456C87.4161 141.204 86.7562 141.977 86.199 142.805C84.6521 144.96 83.4424 147.148 82.6103 149.299C81.5912 151.901 80.9753 154.155 80.6821 156.387C80.4731 157.897 80.3668 159.473 80.3668 161.042C80.3668 162.016 80.4071 162.991 80.4914 163.948C80.6601 166.216 81.1513 168.511 82.0347 171.146C82.3097 172.047 82.6872 172.905 83.0502 173.733C83.1675 174.004 83.2884 174.275 83.4057 174.55L83.4387 174.616C83.589 174.887 83.732 175.162 83.8786 175.437C84.3002 176.233 84.7364 177.057 85.2753 177.83C85.3449 177.933 85.4072 178.039 85.4696 178.146C85.5649 178.307 85.6638 178.468 85.7885 178.64C85.9681 178.871 86.1404 179.106 86.298 179.34L86.5546 179.721L86.8919 180.132C87.0788 180.359 87.2548 180.59 87.4491 180.854C87.559 180.993 87.68 181.125 87.801 181.253C87.8926 181.352 87.9806 181.448 88.0942 181.583C88.1639 181.657 88.2262 181.737 88.2885 181.814C88.4205 181.979 88.5671 182.162 88.7357 182.309C88.908 182.47 89.0657 182.642 89.227 182.815C89.4872 183.097 89.7585 183.386 90.0371 183.614C91.9909 185.475 94.0108 186.996 96.0379 188.136C98.5417 189.554 100.697 190.489 102.816 191.072C105.232 191.772 107.625 192.186 110.18 192.343L143 192.343L143 190.925L143 190.932Z" fill="#998675"/>
<path d="M143 198.135L112.453 198.135L109.847 198.08C106.9 197.904 103.974 197.394 101.144 196.573C98.604 195.862 95.9793 194.723 93.109 193.088C90.6969 191.725 88.3142 189.929 86.0048 187.726C85.6822 187.455 85.3889 187.14 85.081 186.81C84.872 186.587 84.6631 186.363 84.4211 186.128C84.2892 186.011 84.1609 185.854 84.0289 185.692C83.9299 185.568 83.8273 185.447 83.743 185.355C83.6257 185.212 83.501 185.077 83.3764 184.937C83.2481 184.798 83.1198 184.655 83.0208 184.534C82.7899 184.223 82.5516 183.915 82.3023 183.611L81.9797 183.226L81.6572 182.757C81.4372 182.438 81.2099 182.126 80.9863 181.83C80.8727 181.672 80.7737 181.507 80.6747 181.346C80.5831 181.196 80.4914 181.045 80.3888 180.895C79.729 179.927 79.1681 178.865 78.6256 177.839L78.2407 177.117L77.9144 176.373C77.4159 175.247 76.9467 174.181 76.5911 173.045C75.561 169.988 74.9635 167.196 74.7545 164.498C74.4979 161.548 74.5786 158.462 74.9855 155.563C75.3447 152.899 76.0925 150.147 77.2766 147.152C78.281 144.583 79.707 142 81.5289 139.464C82.2474 138.412 83.1088 137.408 83.9409 136.44L84.2855 136.037L84.8794 135.432C85.7115 134.578 86.5766 133.695 87.537 132.914C88.4095 132.119 89.3956 131.404 90.3487 130.715L91.0158 130.228L91.683 129.81C92.7498 129.143 93.7578 128.513 94.8576 127.985C99.931 125.339 105.661 123.961 111.874 123.888L143 123.888L143 122.422L111.859 122.422C105.404 122.499 99.4508 123.932 94.1904 126.673C93.0357 127.227 91.947 127.908 90.8912 128.568L90.1801 129.015L89.4726 129.528C88.4865 130.243 87.4637 130.979 86.5656 131.804C85.5722 132.61 84.6778 133.523 83.8163 134.406L83.1931 135.044L82.8155 135.483C81.9541 136.484 81.067 137.518 80.3118 138.624C78.4276 141.245 76.943 143.938 75.8946 146.617C74.6702 149.722 73.8894 152.584 73.5155 155.362C73.2552 157.213 73.1233 159.14 73.1233 161.061C73.1233 162.255 73.1746 163.447 73.2772 164.616C73.4935 167.43 74.1204 170.34 75.1834 173.496C75.5573 174.694 76.0669 175.848 76.5617 176.963L76.91 177.751L77.3169 178.52C77.8778 179.583 78.4606 180.686 79.1644 181.716C79.2488 181.844 79.3294 181.976 79.4101 182.104C79.5274 182.299 79.6483 182.497 79.795 182.698C80.0186 182.991 80.2312 183.288 80.4365 183.585L80.7957 184.105L81.1513 184.538C81.3822 184.824 81.6058 185.113 81.8441 185.432C81.9797 185.601 82.1264 185.762 82.273 185.923C82.383 186.044 82.493 186.165 82.6213 186.319C82.7092 186.414 82.7899 186.517 82.8742 186.616C83.0282 186.806 83.2078 187.023 83.4021 187.199C83.6073 187.397 83.798 187.605 83.9922 187.811C84.3185 188.159 84.6521 188.518 85.0077 188.815C87.3757 191.072 89.8538 192.941 92.3722 194.363C95.3451 196.057 98.0798 197.24 100.73 197.984C103.659 198.838 106.694 199.362 109.785 199.546L143 199.546L143 198.138L143 198.135Z" fill="#998675"/>
<path d="M143 205.336L112.464 205.336L109.469 205.27C105.954 205.065 102.457 204.46 99.0769 203.471C95.983 202.595 92.8377 201.231 89.4616 199.304C86.5546 197.651 83.7137 195.51 80.9973 192.919C80.5978 192.575 80.2348 192.19 79.8499 191.78C79.6153 191.527 79.3771 191.277 79.1131 191.017C78.9408 190.86 78.7832 190.669 78.6146 190.464C78.5009 190.325 78.3836 190.185 78.281 190.072C78.1454 189.914 78.0061 189.757 77.8668 189.603C77.7091 189.427 77.5515 189.251 77.4159 189.086C77.1409 188.719 76.8587 188.36 76.5691 188.001L76.1805 187.528L75.7956 186.971C75.5353 186.597 75.2677 186.227 75.0038 185.875C74.8645 185.681 74.7399 185.48 74.6152 185.278C74.5089 185.106 74.4026 184.934 74.289 184.761C73.4385 183.504 72.7164 182.13 72.0199 180.8L71.7156 180.224L71.4737 179.682C70.8505 178.282 70.2053 176.838 69.7361 175.361C68.5191 171.758 67.8006 168.416 67.5366 165.14C67.2287 161.64 67.324 157.964 67.8116 154.515C68.2551 151.275 69.1496 147.984 70.5536 144.448C71.7706 141.347 73.4789 138.261 75.6343 135.26C76.5728 133.893 77.6981 132.595 78.7795 131.346L79.3917 130.697C80.4621 129.598 81.5692 128.458 82.7899 127.457C83.9226 126.431 85.1983 125.515 86.43 124.628L86.9542 124.25L87.4161 123.961C88.7394 123.129 90.1067 122.268 91.5327 121.575C97.6399 118.394 104.484 116.748 111.863 116.679L143 116.679L143 115.213L111.859 115.213C104.235 115.283 97.167 116.987 90.8729 120.267C89.3919 120.985 87.9879 121.868 86.6316 122.722L86.1294 123.037L85.5685 123.441C84.3038 124.349 82.9915 125.291 81.8258 126.35C80.5684 127.38 79.432 128.546 78.3323 129.678L77.8484 130.177L77.6652 130.389C76.5544 131.672 75.4034 132.999 74.4283 134.421C72.2105 137.506 70.4473 140.702 69.1862 143.913C67.7419 147.559 66.8145 150.964 66.3563 154.317C66.0484 156.509 65.8907 158.788 65.8907 161.057C65.8907 162.472 65.9494 163.879 66.0703 165.264C66.3416 168.658 67.0821 172.114 68.3358 175.819C68.827 177.358 69.4868 178.843 70.1283 180.279L70.3886 180.862L70.7112 181.478C71.4297 182.845 72.1702 184.256 73.0646 185.579C73.1673 185.733 73.2626 185.89 73.3615 186.044C73.5045 186.271 73.6438 186.502 73.8124 186.737C74.0764 187.089 74.333 187.448 74.5859 187.803L75.0038 188.404L75.4254 188.921C75.704 189.265 75.9716 189.614 76.2538 189.984C76.4188 190.185 76.5947 190.383 76.767 190.577C76.8953 190.72 77.0236 190.863 77.1666 191.032C77.2729 191.146 77.3719 191.27 77.4709 191.391C77.6615 191.622 77.8594 191.864 78.0867 192.069C78.3177 192.3 78.5413 192.538 78.7685 192.773C79.1608 193.191 79.5677 193.623 79.9966 193.993C82.7752 196.643 85.7115 198.856 88.7211 200.568C92.1999 202.558 95.4551 203.965 98.6626 204.871C102.145 205.886 105.749 206.509 109.403 206.725L112.442 206.791L143 206.791L143 205.325L143 205.336Z" fill="#998675"/>
<path d="M143 212.538L112.468 212.538L109.092 212.461C105.001 212.227 100.935 211.523 97.0057 210.372C93.3509 209.331 89.6888 207.748 85.8068 205.52C82.405 203.581 79.1095 201.096 75.9826 198.113C75.5023 197.692 75.0661 197.23 74.6042 196.743C74.344 196.468 74.0874 196.193 73.8051 195.914C73.5962 195.72 73.4055 195.489 73.2039 195.251C73.0756 195.093 72.9436 194.939 72.8227 194.811C72.6724 194.635 72.5184 194.459 72.3645 194.287C72.1738 194.075 71.9869 193.866 71.8146 193.653L70.3849 191.85L69.025 189.944C68.86 189.71 68.706 189.464 68.5557 189.222C68.4384 189.032 68.3175 188.841 68.1928 188.654C67.1334 187.078 66.2353 185.356 65.3665 183.692L65.0843 183.117C64.2961 181.365 63.486 179.558 62.8921 177.711C61.4845 173.555 60.6487 169.663 60.3334 165.811C59.9705 161.699 60.0768 157.554 60.6524 153.497C61.1766 149.682 62.2213 145.845 63.8416 141.769C65.2749 138.141 67.2581 134.55 69.7471 131.083C70.9348 129.367 72.3571 127.737 73.5888 126.322L73.8528 126.051C75.1798 124.68 76.5508 123.265 78.0537 122.023C79.4687 120.751 81.0596 119.612 82.5956 118.512L83.0905 118.171C84.7364 117.127 86.441 116.049 88.2189 115.181C95.3598 111.465 103.318 109.548 111.863 109.485L143 109.485L143 108.02L111.863 108.02C103.073 108.085 94.8906 110.061 87.559 113.876C85.7262 114.77 83.9849 115.873 82.306 116.94L81.7415 117.328C80.1725 118.45 78.5523 119.612 77.097 120.92C75.55 122.192 74.1497 123.639 72.797 125.039L72.5111 125.336C71.2281 126.806 69.7764 128.47 68.5484 130.243C65.997 133.795 63.9552 137.492 62.4779 141.234C60.8356 145.361 59.7322 149.422 59.2007 153.299C58.8378 155.857 58.6582 158.445 58.6582 161.043C58.6582 162.674 58.7315 164.308 58.8745 165.936C59.197 169.905 60.0548 173.91 61.4991 178.169C62.115 180.082 62.9435 181.929 63.7463 183.718L64.0652 184.37C64.9523 186.07 65.8687 187.83 66.9721 189.471C67.0894 189.644 67.1994 189.823 67.3094 189.999C67.478 190.267 67.643 190.534 67.8299 190.798L69.2119 192.733L70.6635 194.569C70.8578 194.808 71.0594 195.035 71.2647 195.266C71.4114 195.427 71.558 195.592 71.7156 195.779C71.8403 195.914 71.9539 196.054 72.0712 196.193C72.2911 196.457 72.5184 196.728 72.775 196.97C73.0316 197.226 73.2809 197.49 73.5302 197.754C73.9957 198.245 74.4759 198.755 74.9855 199.202C78.1747 202.247 81.5692 204.805 85.0736 206.799C89.0583 209.082 92.8304 210.717 96.5951 211.787C100.627 212.967 104.803 213.689 109.029 213.935L112.45 214.012L143 214.012L143 212.546L143 212.538Z" fill="#998675"/>
<path d="M143 219.739L112.468 219.739L108.714 219.654C104.048 219.387 99.4141 218.588 94.9382 217.276C90.7776 216.085 86.4776 214.223 82.1594 211.742C78.2663 209.517 74.5089 206.688 70.9715 203.309C70.4069 202.81 69.8937 202.268 69.3512 201.693C69.0726 201.4 68.794 201.106 68.4971 200.806C68.2515 200.571 68.0279 200.307 67.7933 200.025C67.6503 199.857 67.5073 199.684 67.3717 199.538C67.2104 199.347 67.0418 199.16 66.8768 198.973C66.6532 198.72 66.4296 198.471 66.228 198.222L64.6004 196.166L63.0571 194C62.8628 193.725 62.6832 193.439 62.5072 193.157C62.3753 192.948 62.2433 192.739 62.1077 192.534C60.8173 190.599 59.7286 188.495 58.6912 186.494C57.8004 184.53 56.7923 182.305 56.0592 180.044C54.4829 175.405 53.5005 170.838 53.1412 166.47C52.727 161.793 52.848 157.084 53.5041 152.47C54.1053 148.138 55.3297 143.634 57.1442 139.082C58.7901 134.922 61.0519 130.825 63.8782 126.896C65.2052 124.987 66.7192 123.228 68.2588 121.472C69.8571 119.812 71.5103 118.093 73.3322 116.587C75.0625 115.04 77.0016 113.662 78.8639 112.336C80.6894 111.17 82.7532 109.851 84.916 108.788C92.977 104.599 102.299 102.352 111.878 102.29L143 102.29L143 100.824L111.863 100.824C102.05 100.887 92.4895 103.192 84.2379 107.48C82.0164 108.572 79.9123 109.913 78.0097 111.134C76.1035 112.49 74.1314 113.893 72.3608 115.476C70.4949 117.019 68.8123 118.767 67.1627 120.483C65.5718 122.297 64.0285 124.089 62.6612 126.053C59.7762 130.07 57.4521 134.274 55.7622 138.543C53.9037 143.201 52.65 147.819 52.0342 152.264C51.6236 155.163 51.4146 158.099 51.4146 161.042C51.4146 162.893 51.4953 164.743 51.6602 166.59C52.0305 171.073 53.0349 175.756 54.6442 180.502C55.3993 182.83 56.4257 185.094 57.3495 187.128C58.4199 189.199 59.527 191.343 60.865 193.344C60.9933 193.538 61.1179 193.736 61.2425 193.934C61.4368 194.242 61.6274 194.55 61.8401 194.85L63.4053 197.046L65.0586 199.135C65.2822 199.413 65.5205 199.677 65.7588 199.945C65.9164 200.124 66.0777 200.304 66.2463 200.502C66.3856 200.656 66.5176 200.813 66.6495 200.971C66.9025 201.271 67.1627 201.579 67.4487 201.854C67.7273 202.133 67.9949 202.418 68.2661 202.704C68.8087 203.276 69.3695 203.866 69.9597 204.39C73.5632 207.831 77.4159 210.734 81.4116 213.014C85.8361 215.553 90.246 217.463 94.5166 218.687C99.0952 220.032 103.839 220.849 108.644 221.124L112.442 221.212L143 221.212L143 219.746L143 219.739Z" fill="#998675"/>
<path d="M143 226.94L112.453 226.94L108.333 226.844C103.095 226.548 97.8928 225.65 92.8671 224.173C88.1566 222.82 83.3251 220.728 78.5046 217.953C74.1167 215.443 69.9011 212.265 65.9567 208.498C65.3042 207.915 64.681 207.259 64.0762 206.625C63.7829 206.317 63.4897 206.01 63.1781 205.691C62.8958 205.419 62.6392 205.115 62.3679 204.793C62.2103 204.606 62.0527 204.423 61.906 204.258C61.7264 204.049 61.5468 203.844 61.3635 203.635C61.1106 203.349 60.8576 203.063 60.623 202.777L58.7975 200.468L57.0672 198.046C56.8436 197.727 56.6347 197.397 56.4294 197.071C56.2864 196.847 56.1471 196.624 56.0005 196.4C54.5855 194.275 53.4198 192.05 52.1625 189.609C51.0627 187.201 50.007 184.834 49.2042 182.364C47.441 177.178 46.3376 172.051 45.927 167.11C45.4615 161.873 45.6008 156.592 46.3376 151.421C47.0194 146.521 48.3941 141.46 50.4286 136.377C52.2908 131.686 54.8311 127.086 57.9874 122.692C59.549 120.457 61.3562 118.368 62.9105 116.605C64.846 114.585 66.6056 112.779 68.5924 111.126C70.4949 109.433 72.5441 107.956 74.8059 106.354C77.0383 104.921 79.2378 103.539 81.5949 102.374C90.6713 97.6574 101.144 95.1323 111.87 95.0773L143 95.0773L143 93.6113L111.863 93.6113C100.899 93.67 90.1947 96.25 80.924 101.069C78.5083 102.26 76.2722 103.668 73.9774 105.145C71.6533 106.79 69.5675 108.293 67.6283 110.023C65.6011 111.709 63.8086 113.545 61.8217 115.619C60.2198 117.433 58.3796 119.562 56.7813 121.853C53.5591 126.335 50.9601 131.041 49.0576 135.842C46.9827 141.035 45.5787 146.21 44.8786 151.223C44.4167 154.467 44.1858 157.747 44.1858 161.038C44.1858 163.105 44.2774 165.179 44.4607 167.242C44.8823 172.293 46.0076 177.541 47.8075 182.829C48.636 185.362 49.7064 187.769 50.8391 190.251C52.1295 192.765 53.3172 195.026 54.7725 197.214C54.9118 197.426 55.0474 197.643 55.1867 197.859C55.4067 198.207 55.6266 198.559 55.8685 198.903L57.6208 201.359L59.472 203.701C59.7249 204.012 59.9925 204.313 60.2565 204.613C60.4324 204.811 60.6084 205.013 60.7953 205.229C60.9493 205.397 61.0959 205.573 61.2425 205.746C61.5248 206.079 61.8181 206.427 62.1407 206.735C62.4339 207.032 62.7198 207.333 63.0058 207.637C63.629 208.293 64.2741 208.971 64.9523 209.579C68.9663 213.413 73.2772 216.66 77.7641 219.229C82.6872 222.062 87.6287 224.198 92.4492 225.584C97.5812 227.094 102.897 228.01 108.271 228.314L110.268 228.362L143 228.362L143 226.943L143 226.94Z" fill="#998675"/>
<path d="M143 234.142L112.453 234.142L107.955 234.035C102.145 233.709 96.3715 232.712 90.7959 231.074C85.5355 229.557 80.1689 227.237 74.8535 224.173C69.9744 221.377 65.3005 217.855 60.9456 213.692C60.2015 213.025 59.494 212.281 58.8085 211.559C58.5006 211.236 58.1926 210.914 57.87 210.584C57.5511 210.272 57.2579 209.928 56.9499 209.565C56.7813 209.367 56.6127 209.169 56.4477 208.986C56.2608 208.766 56.0701 208.55 55.8795 208.334C55.5899 208.004 55.2967 207.674 55.0291 207.344L53.0056 204.786L51.0921 202.107C50.8391 201.748 50.6045 201.374 50.3699 201.004C50.2159 200.762 50.0656 200.52 49.9043 200.282C48.2767 197.826 46.9021 195.195 45.6447 192.74C44.545 190.343 43.2913 187.55 42.3565 184.699C40.4064 178.974 39.182 173.279 38.7201 167.771C38.2032 161.969 38.3572 156.124 39.1747 150.392C39.9408 144.924 41.4658 139.306 43.7129 133.691C45.7877 128.472 48.6067 123.367 52.1001 118.507C53.801 116.074 55.7402 113.816 57.5621 111.757C59.494 109.73 61.5688 107.593 63.8526 105.688C66.0593 103.731 68.4788 101.993 70.7479 100.396C72.9693 98.9626 75.5647 97.3244 78.2773 95.9794C88.3765 90.735 99.9933 87.935 111.87 87.88L143 87.88L143 86.4141L111.863 86.4141C99.7514 86.469 87.9 89.3276 77.6065 94.671C74.8352 96.0417 72.1995 97.7092 69.9194 99.1788C67.5916 100.813 65.1319 102.58 62.8885 104.574C60.5607 106.516 58.4529 108.686 56.4734 110.76C54.6039 112.871 52.6353 115.169 50.8941 117.653C47.3383 122.601 44.4607 127.809 42.3419 133.141C40.0508 138.866 38.4928 144.601 37.712 150.179C37.2025 153.764 36.9459 157.395 36.9459 161.031C36.9459 163.318 37.0485 165.608 37.2501 167.888C37.723 173.514 38.9694 179.326 40.9562 185.153C41.913 188.067 43.185 190.907 44.3141 193.366C45.6007 195.888 46.9974 198.559 48.669 201.077C48.8193 201.308 48.9696 201.543 49.1162 201.773C49.3655 202.166 49.6111 202.554 49.8823 202.943L51.8215 205.655L53.8744 208.249C54.164 208.605 54.4682 208.949 54.7688 209.294C54.9558 209.503 55.139 209.715 55.3333 209.942C55.4983 210.126 55.6596 210.316 55.8209 210.507C56.1361 210.877 56.4624 211.262 56.8216 211.61C57.1296 211.925 57.4301 212.24 57.7344 212.559C58.4382 213.3 59.1677 214.065 59.9375 214.758C64.3621 218.987 69.1313 222.579 74.113 225.434C79.5347 228.556 85.0077 230.924 90.378 232.474C96.0599 234.145 101.943 235.161 107.889 235.494L110.1 235.549L143 235.549L143 234.131L143 234.142Z" fill="#998675"/>
<path d="M143 241.343L112.442 241.343C111.977 241.347 111.581 241.336 111.189 241.325L107.574 241.23C101.192 240.874 94.8502 239.778 88.7211 237.975C82.9072 236.293 77.0126 233.742 71.1951 230.389C65.8211 227.303 60.689 223.437 55.9235 218.885C55.0841 218.13 54.2849 217.287 53.5114 216.473C53.1962 216.144 52.8809 215.81 52.551 215.473C52.1954 215.121 51.8692 214.744 51.5246 214.34C51.3413 214.128 51.1617 213.915 50.9857 213.717C50.7878 213.483 50.5825 213.252 50.3809 213.025C50.0546 212.655 49.732 212.284 49.4278 211.914L47.2063 209.1L45.1059 206.16C44.8236 205.757 44.5596 205.343 44.2957 204.925C44.1308 204.669 43.9695 204.412 43.8008 204.156C42.1403 201.642 40.7253 199.01 39.1233 195.862C37.844 193.091 36.5206 190.105 35.5089 187.026C33.3718 180.759 32.0264 174.5 31.5132 168.423C30.945 162.061 31.1137 155.647 32.0118 149.355C32.8586 143.319 34.5375 137.143 37.0009 130.994C39.292 125.244 42.3895 119.633 46.2129 114.311C48.1448 111.559 50.3369 109.008 52.2138 106.897C54.6772 104.306 56.7886 102.184 59.1164 100.238C61.3672 98.2444 63.7829 96.4669 66.6899 94.4256C69.2559 92.7617 72.0345 91.0246 74.9562 89.5733C86.0744 83.8011 98.8386 80.7262 111.863 80.6749L143 80.6749L143 79.209L111.863 79.209C98.6003 79.2603 85.6052 82.3974 74.289 88.2686C71.3124 89.7492 68.4934 91.512 65.8651 93.2125C62.8921 95.2978 60.4397 97.1009 58.1523 99.1276C55.7879 101.103 53.6397 103.262 51.125 105.908C49.2042 108.07 46.9754 110.657 45.0069 113.465C41.1175 118.878 37.9613 124.591 35.6262 130.451C33.1188 136.707 31.4106 143 30.5491 149.15C29.9883 153.078 29.706 157.055 29.706 161.038C29.706 163.542 29.816 166.052 30.0396 168.548C30.5638 174.741 31.9348 181.115 34.1049 187.492C35.1387 190.632 36.484 193.663 37.7927 196.5C39.4276 199.718 40.8682 202.389 42.5655 204.962C42.7268 205.211 42.8881 205.46 43.0457 205.71C43.3206 206.142 43.5956 206.578 43.8962 207.003L46.0223 209.976L48.2731 212.827C48.5957 213.223 48.9329 213.604 49.2702 213.989C49.4681 214.216 49.6661 214.439 49.8713 214.681C50.051 214.883 50.2233 215.084 50.3992 215.29C50.7475 215.696 51.1104 216.122 51.4989 216.503C51.8142 216.825 52.1258 217.155 52.4374 217.481C53.2292 218.313 54.0503 219.174 54.9118 219.955C59.7469 224.576 64.9779 228.516 70.4509 231.657C76.3675 235.069 82.3756 237.667 88.2995 239.379C94.5313 241.215 100.987 242.329 107.504 242.692L111.137 242.787C111.544 242.798 111.958 242.813 112.439 242.806L143 242.806L143 241.34L143 241.343Z" fill="#998675"/>
<path d="M143 248.541L112.457 248.541C110.892 248.523 109.385 248.479 107.856 248.435L107.197 248.417C100.239 248.032 93.3289 246.841 86.6536 244.873C80.2862 243.029 73.8601 240.248 67.5476 236.605C61.6824 233.233 56.0921 229.022 50.9124 224.075C49.9813 223.228 49.0869 222.294 48.2254 221.388C47.9028 221.047 47.5766 220.707 47.243 220.362C46.8508 219.974 46.4915 219.552 46.1103 219.109C45.916 218.882 45.7217 218.658 45.5348 218.445C45.3295 218.204 45.1205 217.969 44.9116 217.727C44.5487 217.313 44.1821 216.895 43.8412 216.477L41.4218 213.414L39.1343 210.214C38.8191 209.763 38.5221 209.298 38.2252 208.832C38.0566 208.565 37.8843 208.297 37.7084 208.03C35.7398 205.047 34.0902 201.909 32.6093 198.989C31.2969 196.159 29.805 192.806 28.6649 189.357C24.178 176.475 22.8584 162.285 24.8562 148.322C25.7873 141.721 27.6165 134.985 30.2962 128.304C32.7999 122.022 36.1761 115.909 40.3367 110.123C42.4958 107.051 44.9739 104.182 46.8764 102.045C49.1565 99.641 51.6419 97.0976 54.3876 94.7924C57.0599 92.4322 59.9449 90.3505 62.6429 88.4631C65.2602 86.7626 68.3725 84.8056 71.646 83.1747C83.7833 76.8784 97.6912 73.5214 111.867 73.4738L143 73.4738L143 72.0078L111.867 72.0078C97.4529 72.0555 83.3104 75.4675 70.9788 81.8663C67.6503 83.5265 64.4904 85.5092 61.8181 87.2464C59.0614 89.1704 56.1361 91.2851 53.4271 93.6819C50.6375 96.0201 48.1155 98.6002 45.7914 101.056C43.8485 103.24 41.3338 106.146 39.138 109.276C34.9151 115.151 31.4802 121.37 28.9325 127.762C26.2089 134.553 24.3503 141.402 23.4046 148.116C22.7887 152.415 22.4845 156.736 22.4845 161.035C22.4845 170.927 24.0974 180.697 27.2756 189.823C28.4376 193.334 29.9516 196.735 31.2896 199.623C32.7999 202.606 34.4752 205.787 36.4803 208.832C36.649 209.093 36.8176 209.353 36.9862 209.617C37.2941 210.097 37.6021 210.581 37.932 211.057L40.2451 214.289L42.6938 217.39C43.053 217.83 43.4306 218.262 43.8082 218.691C44.0135 218.926 44.2187 219.16 44.4314 219.406C44.622 219.618 44.8089 219.838 44.9996 220.058C45.3808 220.505 45.7767 220.967 46.2019 221.388C46.5245 221.722 46.8471 222.059 47.166 222.396C48.0458 223.32 48.9586 224.276 49.9153 225.145C55.1647 230.162 60.8503 234.443 66.8182 237.873C73.2332 241.574 79.7693 244.404 86.2467 246.28C93.0283 248.281 100.056 249.491 107.145 249.883L107.823 249.901C109.359 249.945 110.873 249.989 112.457 250.007L143 250.007L143 248.541Z" fill="#998675"/>
<path d="M143 255.747L112.457 255.747C110.547 255.725 108.469 255.663 106.819 255.611C99.2858 255.197 91.804 253.907 84.5824 251.774C77.6688 249.766 70.7075 246.753 63.8929 242.821C57.5365 239.163 51.4843 234.608 45.8977 229.264C44.8639 228.323 43.8742 227.285 42.9211 226.281C42.5948 225.937 42.2686 225.596 41.9313 225.248C41.4988 224.815 41.1029 224.357 40.685 223.87C40.4797 223.632 40.2744 223.397 40.0764 223.17C39.8638 222.921 39.6475 222.675 39.4313 222.429C39.028 221.968 38.6248 221.506 38.2436 221.04L35.6262 217.724L33.1555 214.268C32.8109 213.773 32.4847 213.264 32.1621 212.758C31.9824 212.476 31.7991 212.19 31.6159 211.908C29.4384 208.598 27.5982 205.087 26.0989 202.115C24.6949 199.095 23.0893 195.496 21.8283 191.688C19.3172 184.333 17.73 176.948 17.1141 169.732C16.4469 162.248 16.6449 154.695 17.7006 147.292C19.8891 132.343 25.681 118.043 34.4568 105.93C36.3154 103.292 38.5038 100.591 41.5354 97.1895C43.8485 94.7414 46.6198 91.8974 49.6587 89.3467C52.6243 86.7299 55.8502 84.4101 58.5959 82.497C61.3855 80.6792 64.725 78.5756 68.3395 76.7725C81.4959 69.9485 96.5511 66.3166 111.878 66.2726L143 66.2726L143 64.8066L111.867 64.8066C96.3055 64.8506 81.0157 68.5411 67.6613 75.4678C63.9919 77.3002 60.6084 79.4295 57.7637 81.2839C54.9668 83.2337 51.7006 85.5828 48.691 88.2362C45.6081 90.8236 42.8001 93.7079 40.443 96.2C38.3645 98.5309 35.6702 101.642 33.2508 105.08C24.343 117.376 18.4595 131.896 16.238 147.08C15.5782 151.694 15.2482 156.363 15.2482 161.039C15.2482 163.982 15.3802 166.925 15.6405 169.857C16.2673 177.19 17.8803 184.692 20.428 192.154C21.711 196.024 23.3386 199.674 24.7682 202.749C26.2968 205.78 28.1627 209.335 30.3805 212.707C30.5601 212.981 30.7397 213.26 30.9194 213.538C31.2566 214.063 31.5902 214.59 31.9531 215.107L34.4495 218.6L37.0962 221.953C37.4957 222.44 37.91 222.913 38.3242 223.39C38.5368 223.632 38.7494 223.873 38.9694 224.13C39.171 224.357 39.3726 224.588 39.5706 224.819C39.9885 225.303 40.421 225.808 40.8829 226.267C41.2092 226.604 41.5317 226.945 41.858 227.285C42.8331 228.308 43.8375 229.363 44.8969 230.327C50.5568 235.74 56.7043 240.365 63.1634 244.082C70.077 248.073 77.1483 251.133 84.1755 253.17C91.5034 255.333 99.0988 256.641 106.764 257.063C108.439 257.114 110.521 257.18 112.457 257.198L143 257.198L143 255.732L143 255.747Z" fill="#998675"/>
<path d="M143 262.944L112.442 262.944C112.013 262.947 111.515 262.936 111.005 262.925L108.513 262.863C107.82 262.845 107.123 262.83 106.441 262.801C98.3364 262.357 90.2864 260.968 82.5113 258.674C75.0405 256.501 67.5477 253.261 60.2418 249.039C53.3905 245.092 46.8801 240.192 40.8829 234.456C39.7465 233.419 38.6615 232.276 37.6094 231.173C37.2831 230.828 36.9532 230.487 36.616 230.136C36.1468 229.663 35.7179 229.164 35.2596 228.637C35.0434 228.387 34.8271 228.135 34.6181 227.9C34.3982 227.643 34.1746 227.387 33.951 227.134C33.5074 226.628 33.0638 226.122 32.6459 225.609L29.827 222.04L27.1693 218.324C26.7881 217.778 26.4288 217.217 26.0696 216.656C25.8826 216.367 25.6993 216.073 25.5087 215.788C23.1076 212.134 21.0695 208.223 19.5702 205.247C18.1625 202.227 16.3663 198.222 14.9696 194.025C12.2716 186.131 10.5634 178.182 9.89624 170.391C9.17776 162.343 9.39038 154.225 10.5304 146.261C12.8802 130.18 19.1156 114.787 28.5623 101.744C30.5968 98.8595 32.9502 95.957 36.1797 92.3434C38.6321 89.7413 41.5867 86.7068 44.9153 83.9068C48.1631 81.0482 51.6089 78.5708 54.5305 76.5368C57.3202 74.7153 61.0336 72.3661 65.011 70.3761C79.1864 63.0244 95.3891 59.1176 111.863 59.0773L143 59.0773L143 57.6113L111.867 57.6113C95.1545 57.6516 78.7209 61.617 64.3474 69.0714C60.3114 71.0908 56.554 73.4656 53.7094 75.3237C50.7328 77.3907 47.2467 79.9011 43.9548 82.7964C40.5823 85.633 37.5911 88.7042 35.0983 91.3502C31.8138 95.0224 29.4274 97.969 27.3673 100.894C17.7886 114.12 11.4615 129.736 9.07512 146.052C8.36396 151.011 8.00837 156.024 8.00837 161.049C8.00837 164.208 8.14767 167.371 8.42994 170.519C9.11177 178.424 10.842 186.49 13.5767 194.491C14.9916 198.75 16.8099 202.807 18.2468 205.881C19.7718 208.912 21.8393 212.87 24.277 216.586C24.464 216.872 24.6473 217.158 24.8306 217.444C25.2008 218.019 25.5674 218.599 25.9633 219.167L28.6466 222.919L31.4912 226.526C31.9275 227.061 32.382 227.577 32.8329 228.098C33.0528 228.351 33.2728 228.6 33.5001 228.864C33.7164 229.106 33.9253 229.351 34.1379 229.593C34.5888 230.117 35.058 230.66 35.5566 231.162C35.8828 231.503 36.2091 231.843 36.5353 232.184C37.6057 233.306 38.7091 234.464 39.8712 235.527C45.9417 241.332 52.5474 246.305 59.5013 250.307C66.9098 254.588 74.5126 257.875 82.0934 260.081C89.9748 262.408 98.1384 263.816 106.368 264.267C107.072 264.296 107.772 264.314 108.476 264.329L110.965 264.391C111.489 264.406 112.01 264.417 112.446 264.409L143 264.409L143 262.944Z" fill="#998675"/>
</g>
<defs>
<clipPath id="clip0_364_613">
<rect width="322" height="143" fill="white" transform="translate(143) rotate(90)"/>
</clipPath>
</defs>
</svg>
