<svg width="131" height="661" viewBox="0 0 131 661" fill="none" xmlns="http://www.w3.org/2000/svg">
<g clip-path="url(#clip0_364_456)">
<path d="M130.68 120.44C130.38 115.928 129.712 111.169 128.642 105.884C126.565 96.0928 123.259 86.7673 118.813 78.1771C117.765 76.0701 116.568 74.0154 115.413 72.027L115.247 71.7405C114.718 70.8592 114.155 69.9806 113.612 69.1323L112.294 67.0915C112.034 66.7059 111.77 66.3286 111.502 65.9485L111.246 65.5849C110.545 64.5879 109.836 63.5937 109.111 62.5994C108.369 61.6327 107.622 60.6716 106.869 59.7186C106.053 58.6665 105.189 57.653 104.525 56.8873L104.009 56.2924C103.394 55.579 102.757 54.8437 102.109 54.1414C88.8575 39.6077 71.8995 28.894 53.069 23.157C43.5406 20.2762 33.8303 18.6981 24.2054 18.4639L20.8298 18.4033L-53.4995 18.4033L-58.949 18.5438C-60.1597 18.6154 -61.3732 18.7063 -62.5784 18.7999C-64.6137 18.9349 -66.671 19.2102 -68.6622 19.4774L-69.8673 19.6372C-75.3251 20.513 -80.0162 21.5541 -84.2081 22.8155L-85.9814 23.336L-87.7244 23.9089C-88.8854 24.2972 -90.0409 24.6938 -91.2075 25.1069C-92.3493 25.5421 -93.4883 25.9883 -94.6272 26.4455L-96.3399 27.1423L-98.0084 27.8832C-102.109 29.6761 -106.356 31.9179 -110.995 34.7383C-127.674 45.0168 -141.356 59.6607 -150.565 77.0946C-151.127 78.1797 -151.681 79.2732 -152.23 80.3693C-152.658 81.2397 -153.063 82.1347 -153.452 83.0023L-153.772 83.7101C-154.682 85.6793 -155.476 87.7339 -156.24 89.7197L-156.557 90.5459C-156.988 91.7385 -157.396 92.9558 -157.757 94.0327L-158.336 95.7926L-158.855 97.558C-159.194 98.7369 -159.525 99.9184 -159.847 101.116C-160.137 102.309 -160.416 103.502 -160.686 104.7L-161.086 106.509L-161.419 108.313C-161.637 109.517 -161.85 110.726 -162.051 111.946C-162.219 113.155 -162.376 114.367 -162.525 115.584L-162.743 117.418L-163.16 122.894C-163.212 124.105 -163.242 125.32 -163.27 126.535L-163.303 128.358L-163.303 397.553L-163.32 397.715C-163.331 397.815 -163.331 397.916 -163.32 398.018C-163.331 398.071 -163.344 398.153 -163.339 398.294C-163.339 398.316 -163.347 398.338 -163.35 398.357C-163.364 398.423 -163.383 398.514 -163.383 398.624C-163.397 398.668 -163.416 398.732 -163.422 398.809C-163.424 398.834 -163.427 398.861 -163.43 398.891C-163.463 398.988 -163.485 399.092 -163.491 399.161C-163.51 399.208 -163.54 399.283 -163.554 399.376L-163.571 399.437C-163.595 399.497 -163.631 399.577 -163.651 399.676C-163.675 399.723 -163.708 399.789 -163.728 399.855C-163.733 399.875 -163.739 399.897 -163.744 399.916L-163.761 399.944C-163.799 400.012 -163.83 400.084 -163.855 400.158C-163.899 400.224 -163.935 400.296 -163.965 400.368L-164.004 400.439C-164.053 400.508 -164.084 400.574 -164.108 400.635C-164.172 400.715 -164.216 400.792 -164.249 400.852C-164.26 400.872 -164.271 400.894 -164.274 400.899L-164.373 401.026C-164.45 401.158 -164.569 401.293 -164.696 401.436C-164.754 401.502 -164.814 401.568 -164.878 401.646C-164.952 401.739 -165.057 401.833 -165.167 401.929C-165.261 402.012 -165.355 402.095 -165.44 402.183C-165.54 402.249 -165.636 402.323 -165.73 402.395C-165.846 402.483 -165.953 402.568 -166.058 402.623C-166.141 402.667 -166.221 402.717 -166.301 402.764C-166.444 402.849 -166.582 402.932 -166.703 402.973L-166.833 403.039C-166.85 403.047 -166.869 403.053 -166.888 403.059C-166.946 403.078 -167.029 403.103 -167.114 403.149C-167.164 403.16 -167.239 403.177 -167.299 403.207L-167.371 403.235C-167.454 403.251 -167.536 403.273 -167.616 403.306C-167.671 403.312 -167.749 403.323 -167.837 403.353L-167.884 403.37C-167.884 403.37 -167.895 403.37 -167.903 403.37C-167.967 403.375 -168.06 403.383 -168.162 403.414C-168.27 403.419 -168.377 403.433 -168.488 403.45C-168.637 403.469 -168.766 403.488 -168.893 403.477L-168.937 403.477L-168.981 403.477C-169.541 403.516 -170.029 403.419 -170.501 403.326L-170.54 403.317C-170.633 403.284 -170.73 403.26 -170.826 403.232C-170.964 403.193 -171.086 403.163 -171.179 403.111L-171.27 403.05L-171.37 403.036C-171.425 403.006 -171.502 402.965 -171.599 402.935C-171.643 402.904 -171.709 402.863 -171.767 402.841C-171.789 402.83 -171.811 402.822 -171.833 402.813L-171.863 402.791C-171.927 402.747 -171.996 402.709 -172.073 402.676C-172.136 402.623 -172.205 402.579 -172.277 402.541L-172.346 402.494C-172.42 402.428 -172.489 402.386 -172.539 402.364L-172.702 402.227C-172.864 402.092 -173.027 401.954 -173.171 401.816C-173.935 401.037 -174.467 400.136 -174.712 399.216C-174.729 399.106 -174.754 398.996 -174.781 398.886C-174.814 398.745 -174.845 398.627 -174.845 398.511L-174.836 398.445L-174.869 398.357C-174.872 398.332 -174.869 398.308 -174.869 398.283C-174.869 398.211 -174.869 398.115 -174.894 398.002C-174.889 397.955 -174.883 397.883 -174.889 397.804C-174.889 397.751 -174.897 397.699 -174.9 397.671L-174.908 397.613L-174.908 0.0109596L-176.011 0.0109595L-176.011 397.658C-176.006 397.762 -176 397.779 -176 397.765L-175.992 397.881C-176 397.952 -176.014 398.082 -175.975 398.208C-175.97 398.236 -175.975 398.263 -175.973 398.291C-175.973 398.374 -175.973 398.481 -175.942 398.599C-175.931 398.806 -175.887 398.982 -175.848 399.142C-175.829 399.227 -175.807 399.31 -175.796 399.395L-175.782 399.462C-175.493 400.577 -174.858 401.657 -173.943 402.596C-173.769 402.764 -173.587 402.918 -173.405 403.069L-173.251 403.199C-173.195 403.246 -173.135 403.284 -173.06 403.326C-172.997 403.381 -172.906 403.463 -172.773 403.521C-172.76 403.529 -172.746 403.54 -172.735 403.551L-172.652 403.629L-172.547 403.667C-172.509 403.681 -172.489 403.692 -172.476 403.703C-172.437 403.733 -172.396 403.764 -172.354 403.788L-172.183 403.863C-172.139 403.89 -172.095 403.918 -172.048 403.943L-171.883 404.009C-171.819 404.044 -171.728 404.091 -171.615 404.122C-171.436 404.207 -171.262 404.254 -171.105 404.295C-171.025 404.317 -170.942 404.339 -170.862 404.367L-170.702 404.405C-170.198 404.504 -169.627 404.617 -168.94 404.579C-168.706 404.595 -168.496 404.568 -168.328 404.543C-168.234 404.529 -168.14 404.515 -168.047 404.515L-167.909 404.515L-167.82 404.471C-167.82 404.471 -167.809 404.471 -167.793 404.471C-167.716 404.466 -167.594 404.455 -167.462 404.4C-167.418 404.397 -167.371 404.389 -167.327 404.38L-167.164 404.325C-167.045 404.312 -166.949 404.27 -166.863 404.229C-166.814 404.218 -166.731 404.201 -166.64 404.157L-166.585 404.127C-166.568 404.119 -166.549 404.113 -166.53 404.108C-166.461 404.086 -166.364 404.053 -166.262 403.995C-166.058 403.918 -165.879 403.81 -165.719 403.714C-165.65 403.673 -165.584 403.634 -165.515 403.596C-165.336 403.499 -165.178 403.378 -165.04 403.271C-164.952 403.204 -164.867 403.136 -164.773 403.075L-164.663 402.981C-164.588 402.901 -164.505 402.83 -164.423 402.756C-164.288 402.637 -164.133 402.502 -164.006 402.342C-163.957 402.282 -163.904 402.224 -163.852 402.166C-163.717 402.012 -163.562 401.841 -163.435 401.64C-163.355 401.549 -163.303 401.456 -163.267 401.389C-163.256 401.37 -163.245 401.348 -163.242 401.34L-163.165 401.241C-163.132 401.191 -163.107 401.136 -163.099 401.098C-163.022 400.998 -162.939 400.874 -162.898 400.742L-162.801 400.596L-162.774 400.47L-162.718 400.379L-162.647 400.169C-162.625 400.128 -162.603 400.087 -162.586 400.043L-162.542 399.96L-162.536 399.869C-162.506 399.798 -162.462 399.696 -162.445 399.569C-162.426 399.522 -162.396 399.445 -162.382 399.351L-162.368 399.263C-162.316 399.139 -162.31 399.026 -162.307 398.96L-162.307 398.944L-162.305 398.944C-162.288 398.891 -162.261 398.801 -162.258 398.635C-162.258 398.616 -162.252 398.597 -162.247 398.575C-162.23 398.489 -162.205 398.365 -162.216 398.217L-162.214 398.217C-162.203 398.153 -162.192 398.09 -162.192 398.024L-162.192 397.983L-162.197 397.941C-162.203 397.903 -162.203 397.864 -162.2 397.839L-162.194 397.795C-162.178 397.707 -162.178 397.619 -162.178 397.547L-162.178 129.451L-162.142 126.554C-162.114 125.348 -162.084 124.141 -162.032 122.952L-161.77 119.322L-161.618 117.526L-161.403 115.711C-161.254 114.504 -161.097 113.298 -160.931 112.106C-160.735 110.905 -160.523 109.704 -160.305 108.506L-159.974 106.724L-159.577 104.936C-159.31 103.747 -159.031 102.557 -158.747 101.386C-158.427 100.21 -158.099 99.0315 -157.763 97.861L-157.252 96.1177L-156.679 94.377C-156.32 93.3083 -155.915 92.0965 -155.493 90.9315L-155.178 90.1163C-154.42 88.1471 -153.634 86.109 -152.735 84.1673L-152.412 83.454C-152.026 82.5946 -151.626 81.7079 -151.207 80.8596C-150.664 79.7689 -150.112 78.6838 -149.552 77.6069C-140.438 60.352 -126.891 45.8514 -110.383 35.6802C-105.791 32.8875 -101.588 30.6703 -97.5285 28.8939L-95.8738 28.1585L-94.1832 27.47C-93.0525 27.0184 -91.919 26.5749 -90.7966 26.1452C-89.6493 25.7404 -88.4966 25.3439 -87.3438 24.9582L-85.6229 24.3937L-83.8606 23.8786C-79.7129 22.631 -75.0686 21.6009 -69.6743 20.7361L-68.4829 20.5791C-66.5111 20.3147 -64.473 20.042 -62.4653 19.9098C-61.2601 19.8135 -60.055 19.7253 -58.8663 19.6537L-55.2563 19.5491L-53.4554 19.516L20.8546 19.516L24.2109 19.5766C33.7365 19.808 43.3476 21.3723 52.7822 24.2228C71.4224 29.902 88.2094 40.5083 101.331 54.8988C101.971 55.5901 102.6 56.3199 103.209 57.025L103.725 57.6227C104.379 58.3773 105.231 59.3771 106.033 60.4099C106.786 61.3601 107.531 62.3185 108.259 63.2714C108.973 64.252 109.676 65.2407 110.374 66.2322L110.631 66.5958C110.893 66.9703 111.155 67.3449 111.406 67.714L112.716 69.741C113.253 70.5837 113.81 71.4541 114.329 72.3162L114.492 72.5971C115.639 74.5691 116.828 76.6099 117.864 78.692C122.266 87.2024 125.542 96.4344 127.597 106.124C128.656 111.356 129.318 116.069 129.616 120.539C129.825 122.974 129.872 125.411 129.919 127.763L129.933 128.647L129.933 661L131 661L131 130.085L130.986 127.73C130.942 125.356 130.892 122.899 130.68 120.44Z" fill="#998675"/>
<path d="M125.278 120.842C124.994 116.576 124.362 112.048 123.339 107.002C121.362 97.6876 118.218 88.8246 113.996 80.6668C113.022 78.7114 111.913 76.8 110.841 74.9546L110.603 74.5471C110.11 73.7236 109.583 72.9028 109.078 72.1097L107.796 70.1239C107.551 69.7604 107.3 69.3995 107.046 69.0415L106.8 68.689C106.133 67.7415 105.46 66.7969 104.768 65.8439L102.639 63.109C101.875 62.1202 101.083 61.1949 100.41 60.4182L99.8975 59.8233C99.3211 59.1568 98.7254 58.4655 98.1159 57.8044C85.5181 43.9868 69.3958 33.8019 51.4946 28.3459C42.4296 25.6083 33.1963 24.1073 24.0541 23.887L20.8302 23.8291L-53.4964 23.8291L-58.6784 23.9613C-59.8312 24.0301 -60.9839 24.1183 -62.1284 24.2064C-64.0286 24.3303 -65.9481 24.5865 -67.8041 24.8371L-69.0589 25.0024C-74.3484 25.8562 -78.681 26.8146 -82.6882 28.0237L-84.376 28.5167L-89.3483 30.1994L-92.5943 31.4692L-94.2214 32.1329L-95.8072 32.8379C-99.6875 34.5318 -103.725 36.6635 -108.151 39.3543C-124.006 49.1233 -137.018 63.0484 -145.777 79.6312L-147.357 82.738C-147.759 83.5559 -148.14 84.3987 -148.507 85.2139L-148.821 85.9135C-149.671 87.7478 -150.41 89.6592 -151.121 91.5072L-151.471 92.4134C-151.858 93.4847 -152.224 94.5808 -152.58 95.6412L-153.162 97.4012L-154.599 102.463L-155.396 105.865L-155.776 107.586L-156.695 112.758L-157.144 116.212L-157.351 117.955L-157.748 123.164C-157.795 124.318 -157.828 125.472 -157.853 126.628L-157.886 128.363L-157.886 397.545L-157.906 397.806C-157.917 397.969 -157.917 398.129 -157.906 398.241C-157.906 398.291 -157.914 398.341 -157.919 398.387C-157.93 398.476 -157.941 398.564 -157.944 398.69C-157.939 398.781 -157.958 398.889 -157.977 399.01C-158.002 399.156 -158.021 399.302 -158.021 399.412C-158.024 399.451 -158.035 399.489 -158.046 399.528C-158.065 399.61 -158.085 399.693 -158.09 399.742C-158.099 399.792 -158.107 399.844 -158.112 399.897C-158.118 399.938 -158.123 399.996 -158.129 400.012L-158.148 400.07C-158.19 400.219 -158.223 400.368 -158.239 400.489C-158.248 400.527 -158.261 400.566 -158.275 400.605C-158.303 400.684 -158.33 400.764 -158.355 400.885C-158.366 400.96 -158.399 401.051 -158.441 401.155C-158.482 401.266 -158.529 401.392 -158.562 401.533C-158.573 401.56 -158.587 401.591 -158.601 401.618C-158.639 401.701 -158.675 401.786 -158.705 401.877L-158.772 402.062C-158.791 402.097 -158.81 402.136 -158.821 402.158C-158.879 402.276 -158.931 402.395 -158.976 402.519C-159.045 402.632 -159.108 402.753 -159.182 402.913C-159.207 402.979 -159.257 403.056 -159.315 403.141C-159.362 403.216 -159.403 403.293 -159.444 403.373C-159.461 403.406 -159.478 403.439 -159.497 403.472C-159.577 403.576 -159.646 403.689 -159.715 403.802C-159.778 403.91 -159.836 404.003 -159.897 404.072L-159.952 404.144C-160.175 404.496 -160.462 404.818 -160.763 405.16L-160.909 405.328C-161.116 405.57 -161.361 405.791 -161.62 406.022C-161.75 406.138 -161.88 406.253 -162.004 406.375C-162.136 406.471 -162.266 406.567 -162.395 406.666C-162.677 406.879 -162.941 407.082 -163.223 407.242L-163.46 407.38C-163.824 407.595 -164.166 407.796 -164.522 407.933L-164.604 407.975C-164.679 408.019 -164.778 408.055 -164.891 408.096C-165.024 408.145 -165.156 408.195 -165.241 408.242C-165.277 408.258 -165.319 408.267 -165.357 408.278C-165.437 408.3 -165.52 408.324 -165.583 408.349L-165.669 408.382C-165.73 408.407 -165.79 408.432 -165.823 408.435L-165.878 408.446C-166.014 408.479 -166.146 408.517 -166.276 408.567C-166.309 408.572 -166.342 408.581 -166.375 408.586C-166.466 408.603 -166.554 408.619 -166.689 408.66C-166.753 408.685 -166.852 408.699 -166.957 408.713C-167.075 408.729 -167.208 408.746 -167.351 408.787C-167.522 408.801 -167.69 408.82 -167.861 408.842C-168.192 408.884 -168.504 408.922 -168.879 408.906C-170.007 408.961 -171.044 408.773 -171.857 408.594C-171.993 408.553 -172.128 408.515 -172.263 408.476C-172.608 408.377 -172.933 408.286 -173.234 408.145L-173.33 408.11C-173.407 408.09 -173.498 408.046 -173.6 407.994C-173.719 407.936 -173.838 407.878 -173.962 407.837C-173.992 407.82 -174.02 407.804 -174.05 407.787C-174.127 407.743 -174.207 407.697 -174.29 407.661L-174.469 407.575C-174.505 407.551 -174.541 407.526 -174.563 407.515C-174.676 407.443 -174.792 407.383 -174.91 407.322C-175.018 407.239 -175.137 407.162 -175.288 407.074C-175.346 407.047 -175.421 406.986 -175.506 406.917C-175.572 406.862 -175.644 406.815 -175.718 406.771C-175.757 406.746 -175.796 406.724 -175.834 406.691C-176.223 406.377 -176.634 406.039 -177.001 405.678C-178.46 404.207 -179.491 402.439 -179.971 400.602C-180.001 400.445 -180.037 400.288 -180.073 400.134C-180.15 399.795 -180.222 399.478 -180.244 399.15L-180.261 399.048C-180.283 398.96 -180.288 398.845 -180.294 398.718C-180.299 398.589 -180.308 398.462 -180.327 398.332L-180.354 397.151L-180.354 0.00278087L-181.457 0.00278077L-181.458 397.162L-181.427 398.393L-181.419 398.476C-181.402 398.572 -181.4 398.668 -181.394 398.768C-181.386 398.919 -181.38 399.087 -181.342 399.263C-181.311 399.66 -181.229 400.023 -181.149 400.376C-181.116 400.522 -181.082 400.665 -181.047 400.844C-180.509 402.904 -179.381 404.846 -177.776 406.46C-177.37 406.857 -176.935 407.217 -176.526 407.548C-176.458 407.603 -176.383 407.652 -176.309 407.702C-176.27 407.727 -176.231 407.749 -176.19 407.785C-176.071 407.881 -175.939 407.988 -175.807 408.046C-175.713 408.101 -175.625 408.162 -175.542 408.228L-175.434 408.294C-175.335 408.341 -175.241 408.391 -175.15 408.448L-175.09 408.487C-175.048 408.517 -175.004 408.545 -174.916 408.592L-174.739 408.669C-174.693 408.691 -174.648 408.716 -174.604 408.743C-174.544 408.779 -174.48 408.815 -174.417 408.845L-174.337 408.875C-174.249 408.903 -174.169 408.944 -174.086 408.985C-173.959 409.046 -173.818 409.118 -173.656 409.165C-173.292 409.33 -172.919 409.434 -172.563 409.536C-172.437 409.572 -172.307 409.608 -172.139 409.66C-171.209 409.867 -170.092 410.071 -168.876 410.01C-168.465 410.029 -168.088 409.982 -167.726 409.938C-167.552 409.916 -167.379 409.897 -167.208 409.883L-167.067 409.856C-166.984 409.828 -166.896 409.82 -166.811 409.806C-166.656 409.784 -166.48 409.762 -166.339 409.704C-166.287 409.691 -166.234 409.68 -166.182 409.671C-166.118 409.66 -166.052 409.646 -165.989 409.633L-165.92 409.611C-165.832 409.575 -165.741 409.547 -165.647 409.525C-165.492 409.501 -165.366 409.448 -165.261 409.407L-165.181 409.377C-165.145 409.363 -165.106 409.352 -165.068 409.344C-164.979 409.319 -164.891 409.294 -164.77 409.239C-164.69 409.195 -164.602 409.167 -164.516 409.134C-164.384 409.085 -164.232 409.032 -164.08 408.947C-163.658 408.779 -163.275 408.553 -162.9 408.333L-162.671 408.198C-162.332 408.002 -162.026 407.771 -161.731 407.545C-161.598 407.446 -161.466 407.344 -161.331 407.248L-161.27 407.198C-161.146 407.077 -161.014 406.961 -160.884 406.845C-160.608 406.6 -160.324 406.344 -160.073 406.05L-159.933 405.89C-159.624 405.54 -159.307 405.179 -159.039 404.769C-158.923 404.634 -158.84 404.493 -158.766 404.37C-158.716 404.287 -158.667 404.204 -158.609 404.127L-158.57 404.072C-158.529 404.006 -158.493 403.937 -158.46 403.868C-158.438 403.824 -158.416 403.78 -158.396 403.747C-158.305 403.612 -158.212 403.463 -158.165 403.328C-158.121 403.232 -158.068 403.141 -158.013 403.05L-157.955 402.929C-157.922 402.83 -157.881 402.734 -157.837 402.64L-157.806 402.582C-157.779 402.535 -157.754 402.486 -157.718 402.392L-157.66 402.213C-157.644 402.161 -157.619 402.114 -157.597 402.064C-157.569 402.004 -157.542 401.946 -157.519 401.882L-157.492 401.789C-157.475 401.701 -157.442 401.621 -157.409 401.538C-157.354 401.392 -157.293 401.23 -157.271 401.073C-157.263 401.034 -157.249 400.998 -157.235 400.96C-157.205 400.874 -157.177 400.786 -157.153 400.668C-157.139 400.574 -157.12 400.481 -157.095 400.387C-157.045 400.249 -157.029 400.125 -157.018 400.021L-157.001 399.894C-156.995 399.855 -156.987 399.82 -156.976 399.784C-156.954 399.687 -156.932 399.594 -156.921 399.453C-156.921 399.36 -156.904 399.269 -156.888 399.178C-156.863 399.018 -156.833 398.836 -156.841 398.668C-156.841 398.619 -156.833 398.569 -156.827 398.52C-156.816 398.437 -156.805 398.354 -156.802 398.219C-156.808 398.101 -156.808 397.985 -156.802 397.875L-156.794 397.776C-156.783 397.707 -156.783 397.638 -156.783 397.528L-156.783 129.435L-156.747 126.642C-156.72 125.494 -156.692 124.348 -156.645 123.219L-156.394 119.768L-156.251 118.06L-155.6 112.918L-155.004 109.492L-154.69 107.798L-153.526 102.73L-152.588 99.3786L-152.103 97.7234L-151.529 95.9855C-151.176 94.9306 -150.81 93.8427 -150.432 92.7934L-150.084 91.8983C-149.378 90.0667 -148.647 88.1747 -147.809 86.368L-147.492 85.6629C-147.128 84.8559 -146.753 84.0241 -146.361 83.2282L-144.786 80.1352C-136.124 63.7342 -123.25 49.9579 -107.567 40.2935C-103.184 37.6302 -99.1911 35.5232 -95.3522 33.846L-93.7802 33.1465L-88.9595 31.235L-85.6749 30.1086L-84.0395 29.5716L-82.3655 29.0813C-78.4025 27.886 -74.114 26.9358 -68.8907 26.093L-67.6496 25.9277C-65.8102 25.6826 -63.91 25.4292 -62.0402 25.3053C-60.8957 25.2144 -59.7484 25.1291 -58.6205 25.063L-55.187 24.9638L-53.4771 24.9335L20.8302 24.9335L24.0348 24.9913C33.0778 25.2089 42.2117 26.6962 51.1802 29.4036C68.8911 34.7989 84.8424 44.8792 97.3106 58.5509C97.9091 59.1981 98.4993 59.8812 99.0701 60.5449L99.5859 61.1398C100.248 61.9055 101.028 62.8171 101.776 63.7866L103.894 66.5077C104.572 67.4386 105.242 68.3805 105.904 69.3224L106.152 69.6749C106.4 70.0275 106.649 70.3801 106.883 70.7326L108.157 72.7045C108.659 73.4895 109.18 74.3047 109.663 75.1061L109.895 75.5055C110.959 77.337 112.06 79.2291 113.019 81.1626C117.2 89.2405 120.311 98.0098 122.264 107.223C123.273 112.216 123.902 116.694 124.18 120.922C124.379 123.188 124.423 125.494 124.467 127.725L124.481 128.628L124.481 661L125.584 661L125.584 130.085L125.57 127.708C125.526 125.458 125.482 123.133 125.281 120.842L125.278 120.842Z" fill="#998675"/>
<path d="M119.871 121.241C119.607 117.217 119.005 112.926 118.035 108.118C116.157 99.2795 113.178 90.8793 109.179 83.1538C108.28 81.3416 107.254 79.5734 106.261 77.8631L105.964 77.3508C105.509 76.5907 105.023 75.836 104.557 75.1034L103.297 73.1508L100.429 69.0993L98.4099 66.5077C97.6929 65.5795 96.94 64.6954 96.2947 63.9545L95.7872 63.3679C95.2467 62.7427 94.6896 62.0955 94.1187 61.4786C82.1745 48.3798 66.8905 38.7209 49.916 33.5486C41.3116 30.9514 32.5582 29.5275 23.8986 29.3209L20.8263 29.2631L-53.4975 29.263L-58.4148 29.3898C-59.5069 29.4559 -60.599 29.5385 -61.6828 29.6239C-63.445 29.7368 -65.2266 29.9764 -66.9475 30.2049L-68.2547 30.3785C-73.2961 31.1938 -77.4025 32.1026 -81.1752 33.2428L-82.7748 33.711L-87.4879 35.3057L-90.5629 36.5093L-92.1073 37.1372L-93.6076 37.8065C-97.2617 39.4012 -101.09 41.4199 -105.312 43.9813C-120.348 53.2436 -132.681 66.4471 -140.99 82.1734L-142.49 85.1203C-142.86 85.8722 -143.21 86.6462 -143.547 87.3952L-143.878 88.1278C-144.666 89.8244 -145.35 91.5954 -146.009 93.3057L-146.39 94.289C-146.74 95.2584 -147.066 96.2334 -147.396 97.2111L-147.995 99.0179L-149.357 103.818L-150.11 107.041L-150.472 108.671L-151.343 113.576L-151.768 116.848L-151.966 118.504L-152.341 123.442C-152.385 124.535 -152.413 125.631 -152.441 126.728L-152.474 128.372L-152.474 397.542C-152.476 397.603 -152.476 397.633 -152.476 397.638L-152.493 397.892C-152.504 398.104 -152.504 398.316 -152.501 398.495C-152.504 398.583 -152.515 398.668 -152.523 398.754C-152.534 398.861 -152.545 398.969 -152.551 399.106C-152.551 399.285 -152.579 399.473 -152.606 399.671C-152.634 399.855 -152.658 400.04 -152.667 400.197C-152.675 400.28 -152.694 400.359 -152.711 400.439C-152.733 400.538 -152.755 400.64 -152.763 400.717C-152.774 400.781 -152.783 400.844 -152.794 400.908C-152.807 401.015 -152.824 401.12 -152.849 401.194L-152.868 401.26C-153.444 404.05 -154.848 406.73 -156.933 409.013C-158.869 411.148 -161.511 412.8 -164.352 413.659C-164.539 413.706 -164.721 413.761 -164.903 413.825L-165.425 413.937L-165.482 413.954C-165.631 414.004 -165.805 414.031 -165.99 414.059C-166.166 414.086 -166.346 414.114 -166.519 414.158C-166.718 414.177 -166.917 414.202 -167.118 414.224C-167.667 414.29 -168.185 414.353 -168.764 414.337C-170.135 414.392 -171.55 414.238 -173.199 413.858C-176.106 413.108 -178.739 411.616 -180.819 409.542C-182.97 407.388 -184.495 404.763 -185.223 401.973L-185.328 401.5C-185.46 400.921 -185.584 400.376 -185.628 399.806L-185.64 399.734C-185.678 399.558 -185.689 399.357 -185.7 399.148C-185.711 398.971 -185.722 398.792 -185.747 398.608C-185.758 398.528 -185.755 398.445 -185.753 398.36C-185.753 398.258 -185.75 398.156 -185.753 398.068L-185.777 397.63L-185.777 -0.00271229L-186.88 -0.00271239L-186.881 397.148L-186.856 398.134C-186.85 398.2 -186.856 398.269 -186.856 398.335C-186.858 398.465 -186.861 398.613 -186.839 398.765C-186.82 398.913 -186.812 399.062 -186.801 399.211C-186.787 399.442 -186.773 399.682 -186.723 399.927C-186.668 400.56 -186.533 401.161 -186.401 401.742L-186.293 402.227C-185.51 405.229 -183.886 408.03 -181.594 410.321C-179.376 412.536 -176.566 414.13 -173.455 414.929C-171.696 415.337 -170.19 415.496 -168.753 415.438C-168.136 415.455 -167.548 415.386 -166.985 415.317C-166.779 415.293 -166.572 415.268 -166.365 415.248L-166.268 415.232C-166.122 415.191 -165.973 415.169 -165.822 415.147C-165.609 415.114 -165.389 415.08 -165.16 415.009L-164.636 414.896L-164.572 414.879C-164.41 414.824 -164.244 414.775 -164.054 414.725C-160.957 413.789 -158.21 412.07 -156.114 409.759C-153.905 407.341 -152.41 404.491 -151.79 401.516C-151.737 401.354 -151.718 401.202 -151.696 401.065L-151.668 400.891C-151.66 400.819 -151.644 400.748 -151.627 400.679C-151.599 400.558 -151.575 400.437 -151.561 400.285C-151.553 400.134 -151.531 399.985 -151.508 399.836C-151.475 399.605 -151.44 399.365 -151.442 399.128C-151.44 399.046 -151.429 398.96 -151.42 398.878C-151.409 398.768 -151.395 398.655 -151.393 398.509C-151.398 398.321 -151.393 398.137 -151.387 397.958L-151.379 397.795C-151.373 397.765 -151.368 397.735 -151.368 397.542L-151.368 129.449L-151.332 126.758C-151.307 125.67 -151.28 124.582 -151.235 123.513L-150.998 120.241L-150.863 118.625L-150.248 113.753L-149.683 110.505L-149.385 108.903L-148.282 104.102L-147.394 100.924L-146.936 99.3566L-146.346 97.5746C-146.02 96.6052 -145.695 95.6357 -145.353 94.6883L-144.975 93.716C-144.322 92.0223 -143.643 90.2706 -142.868 88.6015L-142.534 87.8607C-142.201 87.1199 -141.856 86.3542 -141.498 85.6271L-140.006 82.6939C-131.795 67.1521 -119.597 54.0946 -104.733 44.937C-100.557 42.4032 -96.7736 40.4037 -93.1608 38.8283L-91.6743 38.1645L-87.1073 36.3523L-83.9937 35.2837L-82.4466 34.7742L-80.8581 34.3114C-77.1295 33.185 -73.0672 32.2872 -68.092 31.483L-66.7958 31.3121C-65.0942 31.0835 -63.332 30.8495 -61.6001 30.7366C-60.5162 30.6512 -59.4296 30.5685 -58.3596 30.5052L-55.1026 30.4115L-53.481 30.3813L20.8236 30.3813L23.8792 30.4391C32.4368 30.6429 41.0937 32.0503 49.6016 34.6199C66.3859 39.7344 81.4988 49.2859 93.3107 62.2415C93.8705 62.8473 94.4221 63.4863 94.9543 64.1033L95.4645 64.6926C96.0988 65.4225 96.8407 66.2928 97.5412 67.199L99.5461 69.7741L101.455 72.4429L102.381 73.7786L103.628 75.712C104.091 76.4364 104.571 77.1855 105.015 77.9236L105.307 78.4305C106.292 80.1243 107.309 81.8759 108.195 83.6661C112.152 91.309 115.098 99.6183 116.954 108.352C117.913 113.105 118.506 117.35 118.771 121.335C118.956 123.425 118.997 125.557 119.039 127.617L119.055 128.642L119.055 661L120.158 661L120.158 130.085L120.139 127.587C120.098 125.507 120.053 123.359 119.869 121.241L119.871 121.241Z" fill="#998675"/>
<path d="M114.47 121.643C114.221 117.862 113.656 113.808 112.735 109.239C110.959 100.877 108.14 92.9366 104.365 85.6491C103.54 83.9828 102.597 82.3579 101.687 80.788L101.326 80.1628C100.906 79.4661 100.471 78.783 100.032 78.0972L98.805 76.1913L96.0941 72.363L94.1856 69.9146C93.51 69.0388 92.7957 68.2015 92.1862 67.4992L91.6677 66.8987C91.1713 66.3204 90.6556 65.7255 90.1288 65.1554C78.841 52.7726 64.3927 43.6426 48.3448 38.7512C40.2009 36.2944 31.9274 34.9504 23.7531 34.7549L22.2087 34.7191L-52.4984 34.6998L-58.1465 34.8182L-61.2298 35.0386C-62.8652 35.1432 -64.5116 35.3635 -66.1056 35.5756C-66.5469 35.6334 -66.9854 35.6941 -67.4432 35.7519C-72.2418 36.5313 -76.1221 37.3905 -79.6522 38.4592L-81.1662 38.8999L-85.6201 40.4064L-88.5269 41.5467L-89.9858 42.1388L-91.4006 42.7723C-94.8313 44.265 -98.4496 46.1736 -102.465 48.6083C-116.676 57.3638 -128.339 69.8457 -136.193 84.7127L-137.611 87.4971C-137.961 88.2022 -138.287 88.9293 -138.601 89.6316L-138.921 90.3422C-139.649 91.9038 -140.278 93.5315 -140.887 95.1042L-141.298 96.1645C-141.607 97.0238 -141.899 97.8913 -142.192 98.7589L-142.812 100.632L-144.1 105.168L-144.812 108.214L-145.156 109.756L-145.978 114.392L-146.381 117.484L-146.568 119.052L-146.924 123.72C-146.966 124.753 -146.993 125.788 -147.018 126.827L-147.048 128.383L-147.048 397.539C-147.051 397.633 -147.054 397.658 -147.054 397.68C-147.054 397.707 -147.059 397.735 -147.059 397.773L-147.068 397.972C-147.079 398.239 -147.084 398.506 -147.081 398.748C-147.087 398.875 -147.098 398.999 -147.112 399.123C-147.123 399.249 -147.137 399.379 -147.145 399.528C-147.145 399.792 -147.186 400.059 -147.225 400.343C-147.255 400.563 -147.285 400.784 -147.299 400.982C-147.313 401.106 -147.338 401.227 -147.363 401.345C-147.388 401.464 -147.412 401.582 -147.426 401.687C-147.44 401.761 -147.451 401.838 -147.462 401.916C-147.487 402.075 -147.509 402.227 -147.564 402.409C-148.345 406.154 -150.209 409.715 -152.953 412.709C-155.576 415.587 -158.987 417.719 -162.807 418.867C-163.058 418.934 -163.306 419.008 -163.502 419.074L-164.271 419.248C-164.503 419.319 -164.751 419.358 -165.016 419.402C-165.236 419.438 -165.457 419.473 -165.675 419.526C-165.868 419.548 -166.064 419.57 -166.257 419.595C-167.023 419.685 -167.823 419.782 -168.634 419.771C-170.473 419.834 -172.396 419.628 -174.5 419.132C-178.35 418.149 -181.847 416.171 -184.616 413.409C-187.456 410.572 -189.478 407.088 -190.454 403.35L-190.531 403.014C-190.73 402.147 -190.92 401.329 -191.006 400.417C-191.055 400.153 -191.075 399.872 -191.094 399.574C-191.108 399.362 -191.121 399.15 -191.146 398.933C-191.163 398.809 -191.16 398.685 -191.157 398.558C-191.157 398.437 -191.157 398.316 -191.163 398.208L-191.188 397.636L-191.188 0.00278087L-192.291 0.00278078L-192.291 397.148L-192.263 398.261C-192.258 398.354 -192.258 398.451 -192.26 398.547C-192.26 398.723 -192.26 398.9 -192.241 399.065C-192.219 399.258 -192.205 399.451 -192.194 399.641C-192.175 399.96 -192.153 400.288 -192.098 400.566C-192.012 401.497 -191.808 402.392 -191.607 403.26L-191.527 403.609C-190.498 407.553 -188.377 411.214 -185.396 414.188C-182.489 417.088 -178.816 419.168 -174.765 420.2C-172.556 420.721 -170.54 420.939 -168.626 420.872C-167.757 420.886 -166.932 420.787 -166.13 420.691C-165.926 420.666 -165.724 420.641 -165.52 420.619L-165.446 420.605C-165.247 420.556 -165.046 420.525 -164.845 420.492C-164.555 420.446 -164.254 420.399 -163.993 420.316L-163.215 420.14C-162.989 420.065 -162.76 419.999 -162.512 419.933C-158.485 418.721 -154.897 416.482 -152.142 413.455C-149.263 410.316 -147.308 406.573 -146.5 402.687C-146.433 402.477 -146.4 402.268 -146.373 402.081L-146.337 401.863C-146.323 401.764 -146.301 401.665 -146.282 401.569C-146.249 401.414 -146.218 401.263 -146.199 401.084C-146.185 400.886 -146.158 400.69 -146.13 400.494C-146.086 400.189 -146.042 399.875 -146.039 399.561C-146.033 399.451 -146.022 399.34 -146.011 399.227C-145.998 399.081 -145.984 398.936 -145.976 398.762C-145.976 398.511 -145.976 398.264 -145.962 398.016L-145.951 397.776C-145.948 397.737 -145.942 397.693 -145.942 397.531L-145.942 129.438L-145.909 126.849C-145.885 125.819 -145.86 124.791 -145.818 123.781L-145.592 120.688L-145.465 119.162L-144.883 114.557L-144.348 111.489L-144.07 109.977L-143.027 105.443L-142.186 102.441L-141.756 100.96L-141.141 99.1087C-140.851 98.2494 -140.562 97.3901 -140.261 96.5501L-139.853 95.498C-139.252 93.9419 -138.629 92.3335 -137.914 90.7994L-137.589 90.0806C-137.277 89.3865 -136.955 88.6704 -136.618 87.9874L-135.209 85.2167C-127.451 70.5287 -115.926 58.1928 -101.886 49.5447C-97.9174 47.1376 -94.3432 45.251 -90.9538 43.7748L-89.55 43.1468L-85.2368 41.4364L-82.2969 40.4284L-80.8353 39.9465L-79.335 39.5085C-75.8463 38.4537 -72.0102 37.6026 -67.2805 36.8343C-66.8392 36.7764 -66.3952 36.7186 -65.954 36.6608C-64.3792 36.4515 -62.7494 36.2338 -61.1498 36.1319L-58.0858 35.9116L-55.0053 35.8235L-53.472 35.7932L20.8326 35.7932L23.7338 35.8483C31.8115 36.0411 39.9858 37.3686 48.0332 39.7978C63.888 44.6313 78.1653 53.654 89.3236 65.8907C89.8393 66.4471 90.3467 67.0364 90.8404 67.6066L91.3616 68.2097C91.9628 68.901 92.6633 69.7245 93.3224 70.5783L95.2171 73.0103L97.0179 75.5331L97.8949 76.7917L99.1084 78.6783C99.5414 79.3531 99.9716 80.0279 100.38 80.7082L100.738 81.3251C101.64 82.8812 102.572 84.4896 103.386 86.1311C107.12 93.3415 109.903 101.188 111.659 109.445C112.569 113.959 113.129 117.967 113.375 121.712C113.546 123.64 113.587 125.607 113.626 127.51L113.645 128.617L113.645 661L114.748 661L114.748 130.085L114.729 127.501C114.69 125.582 114.649 123.596 114.475 121.641L114.47 121.643Z" fill="#998675"/>
<path d="M109.063 122.043C108.832 118.506 108.299 114.684 107.431 110.357C104.212 94.9031 96.8489 80.5428 86.1347 68.8294C75.5005 57.1655 61.8878 48.5643 46.7721 43.9538C39.0887 41.6376 31.2951 40.3733 23.6034 40.1916L22.1473 40.1586L-52.4964 40.1393L-54.9371 40.1696C-70.4197 40.3569 -86.2883 45.0004 -99.6252 53.2436C-113.015 61.4896 -124.002 73.2526 -131.407 87.263L-132.741 89.885C-133.061 90.535 -133.362 91.2043 -133.654 91.8515L-133.977 92.5621C-134.65 93.9997 -135.229 95.498 -135.789 96.9467L-136.216 98.0511C-136.492 98.8223 -136.754 99.5989 -137.016 100.376L-137.642 102.259L-138.853 106.531L-139.52 109.398L-139.846 110.852L-140.621 115.218L-141.175 119.608L-141.509 124.012L-141.594 126.934L-141.624 128.402L-141.624 397.545C-141.624 397.647 -141.63 397.68 -141.633 397.715L-141.646 398.057C-141.657 398.382 -141.666 398.704 -141.666 399.007C-141.674 399.172 -141.688 399.335 -141.702 399.5C-141.715 399.646 -141.729 399.795 -141.737 399.96C-141.746 400.313 -141.793 400.662 -141.845 401.034C-141.881 401.288 -141.914 401.541 -141.936 401.778C-141.955 401.94 -141.988 402.103 -142.019 402.263C-142.046 402.4 -142.074 402.541 -142.093 402.667L-142.137 402.932C-142.17 403.144 -142.204 403.342 -142.267 403.568C-143.252 408.267 -145.574 412.706 -148.982 416.413C-152.261 420.005 -156.517 422.66 -161.271 424.087C-161.575 424.169 -161.878 424.257 -162.14 424.34L-163.078 424.555C-163.389 424.646 -163.717 424.701 -164.065 424.756C-164.324 424.797 -164.586 424.841 -164.843 424.899L-165.292 424.954C-166.337 425.081 -167.41 425.213 -168.516 425.205C-170.846 425.282 -173.232 425.02 -175.811 424.403C-180.604 423.186 -184.964 420.721 -188.419 417.276C-191.952 413.756 -194.47 409.412 -195.692 404.73L-195.714 404.637C-195.981 403.496 -196.257 402.315 -196.379 401.092C-196.442 400.737 -196.467 400.37 -196.492 399.979C-196.508 399.737 -196.525 399.492 -196.552 399.247C-196.572 399.081 -196.569 398.913 -196.569 398.745C-196.569 398.605 -196.569 398.467 -196.577 398.338L-196.605 397.63L-196.605 -0.00271229L-197.708 -0.00271239L-197.708 397.148L-197.68 398.387C-197.675 398.506 -197.675 398.627 -197.675 398.745C-197.675 398.955 -197.675 399.167 -197.65 399.368C-197.625 399.597 -197.611 399.825 -197.595 400.054C-197.567 400.456 -197.54 400.869 -197.471 401.241C-197.349 402.494 -197.063 403.711 -196.787 404.887L-196.762 404.995C-195.485 409.883 -192.871 414.4 -189.197 418.058C-185.601 421.644 -181.064 424.208 -176.073 425.475C-173.389 426.116 -170.91 426.389 -168.502 426.306C-167.38 426.309 -166.238 426.18 -165.157 426.048L-164.68 425.99L-164.622 425.979C-164.379 425.924 -164.131 425.882 -163.883 425.841C-163.519 425.78 -163.141 425.72 -162.799 425.618L-161.853 425.4C-161.564 425.309 -161.274 425.227 -160.968 425.141C-156.009 423.654 -151.583 420.892 -148.169 417.154C-144.628 413.301 -142.212 408.68 -141.197 403.83C-141.125 403.579 -141.084 403.337 -141.048 403.1L-141.004 402.841C-140.985 402.717 -140.96 402.593 -140.935 402.472C-140.899 402.282 -140.86 402.095 -140.836 401.885C-140.814 401.648 -140.783 401.412 -140.75 401.177C-140.698 400.792 -140.643 400.395 -140.634 399.999C-140.626 399.864 -140.615 399.729 -140.601 399.594C-140.585 399.412 -140.568 399.227 -140.56 399.024C-140.56 398.71 -140.552 398.398 -140.541 398.09L-140.527 397.779C-140.524 397.729 -140.518 397.677 -140.521 397.531L-140.521 129.438L-140.403 124.061L-140.072 119.713L-139.523 115.378L-138.756 111.067L-137.774 106.798L-136.983 103.973L-136.577 102.582L-135.96 100.723C-135.701 99.9543 -135.441 99.1831 -135.171 98.4339L-134.746 97.3406C-134.192 95.9112 -133.621 94.4294 -132.962 93.022L-132.637 92.3004C-132.35 91.6614 -132.055 91.0032 -131.746 90.378L-130.416 87.7698C-123.108 73.9384 -112.259 62.3241 -99.0378 54.18C-85.8691 46.0387 -70.199 41.453 -54.9095 41.2685L-53.4672 41.241L20.8346 41.241L23.5841 41.2933C31.1765 41.4723 38.8736 42.7227 46.4604 45.0086C61.3886 49.5613 74.8276 58.0552 85.3294 69.5731C95.9113 81.1406 103.181 95.3218 106.358 110.574C107.216 114.849 107.745 118.622 107.971 122.123C108.129 123.885 108.167 125.686 108.203 127.427L108.225 128.628L108.225 661L109.328 661L109.328 130.085L109.306 127.408C109.267 125.648 109.229 123.83 109.069 122.043L109.063 122.043Z" fill="#998675"/>
<path d="M103.661 122.445C103.449 119.154 102.947 115.568 102.128 111.475C99.1078 96.977 92.1966 83.5009 82.1415 72.5035C72.1609 61.5557 59.3866 53.4832 45.1975 49.1537C37.9802 46.9806 30.6637 45.7908 23.4519 45.6228L22.084 45.5898L-52.4991 45.5705L-54.846 45.5981C-69.3688 45.7715 -84.2639 50.1286 -96.7845 57.8651C-109.352 65.6043 -119.666 76.6457 -126.616 89.7997L-127.868 92.2591C-128.16 92.8512 -128.433 93.4599 -128.698 94.0465L-129.026 94.7709C-129.644 96.0874 -130.174 97.4562 -130.687 98.781C-130.833 99.1556 -130.976 99.5301 -131.131 99.9184C-131.382 100.618 -131.619 101.326 -131.856 102.031L-132.468 103.868L-133.604 107.875L-134.537 111.932L-135.265 116.028L-135.786 120.148L-136.1 124.282L-136.208 128.402L-136.208 397.531C-136.208 397.636 -136.213 397.682 -136.216 397.726L-136.255 399.25C-136.263 399.453 -136.282 399.654 -136.299 399.855C-136.313 400.023 -136.329 400.194 -136.34 400.379C-136.354 400.822 -136.415 401.26 -136.475 401.723C-136.514 402.006 -136.553 402.29 -136.577 402.557C-136.602 402.761 -136.641 402.962 -136.682 403.163C-136.713 403.323 -136.743 403.48 -136.768 403.629L-136.817 403.923C-136.861 404.188 -136.903 404.436 -136.977 404.708C-138.169 410.36 -140.949 415.684 -145.016 420.101C-148.957 424.406 -154.051 427.584 -159.743 429.289L-160.78 429.589L-161.889 429.846C-162.286 429.956 -162.694 430.025 -163.13 430.099C-163.436 430.151 -163.739 430.201 -163.993 430.259L-164.236 430.289C-165.576 430.457 -166.958 430.63 -168.353 430.63C-168.373 430.63 -168.392 430.63 -168.411 430.63C-171.186 430.719 -174.123 430.394 -177.134 429.669C-182.871 428.218 -188.091 425.265 -192.239 421.134C-196.464 416.931 -199.476 411.731 -200.945 406.102C-201.307 404.59 -201.618 403.224 -201.767 401.756C-201.844 401.307 -201.875 400.847 -201.911 400.365C-201.93 400.095 -201.949 399.825 -201.974 399.555C-201.996 399.349 -201.996 399.139 -201.996 398.93C-201.996 398.773 -201.996 398.613 -202.007 398.465L-202.035 397.625L-202.035 -0.00826649L-203.138 -0.00826659L-203.138 397.148L-203.108 398.517C-203.099 398.66 -203.099 398.801 -203.099 398.944C-203.099 399.189 -203.094 399.434 -203.069 399.674C-203.044 399.933 -203.025 400.191 -203.008 400.45C-202.975 400.941 -202.939 401.445 -202.859 401.913C-202.708 403.411 -202.374 404.874 -202.013 406.38C-200.49 412.211 -197.377 417.587 -193.014 421.927C-188.728 426.199 -183.328 429.251 -177.396 430.752C-174.283 431.501 -171.246 431.837 -168.395 431.743C-166.911 431.743 -165.491 431.567 -164.098 431.393L-163.808 431.355C-163.524 431.291 -163.237 431.245 -162.951 431.198C-162.507 431.123 -162.049 431.046 -161.621 430.925L-160.51 430.669L-159.44 430.361C-153.552 428.598 -148.284 425.312 -144.214 420.861C-140.011 416.298 -137.137 410.795 -135.913 404.984C-135.83 404.689 -135.783 404.4 -135.736 404.116L-135.687 403.824C-135.665 403.678 -135.634 403.532 -135.607 403.386C-135.563 403.16 -135.521 402.935 -135.491 402.692C-135.463 402.422 -135.427 402.152 -135.392 401.882C-135.328 401.414 -135.265 400.927 -135.248 400.442C-135.237 400.282 -135.223 400.123 -135.21 399.966C-135.19 399.748 -135.171 399.53 -135.16 399.299L-135.124 397.801C-135.121 397.74 -135.116 397.677 -135.119 397.539L-135.118 129.443L-135.008 124.348L-134.699 120.269L-134.186 116.204L-133.467 112.161L-132.548 108.159L-131.426 104.207L-130.822 102.394C-130.587 101.695 -130.35 100.995 -130.107 100.318C-129.959 99.9432 -129.812 99.5659 -129.669 99.1886C-129.162 97.8804 -128.638 96.5308 -128.036 95.2419L-127.705 94.5064C-127.446 93.9281 -127.176 93.3277 -126.895 92.7604L-125.648 90.3146C-118.792 77.3425 -108.616 66.4471 -96.2164 58.8125C-83.8612 51.178 -69.1674 46.8787 -54.8377 46.708L-53.4836 46.6804L20.8154 46.6804L23.4161 46.73C30.5285 46.8952 37.7458 48.0685 44.8665 50.214C58.8654 54.483 71.4687 62.448 81.3169 73.2499C91.2397 84.1013 98.0598 97.3956 101.036 111.695C101.844 115.733 102.34 119.272 102.55 122.527C102.696 124.139 102.732 125.786 102.765 127.38L102.789 128.631L102.789 661L103.893 661L103.893 130.085L103.868 127.358C103.832 125.747 103.796 124.081 103.647 122.445L103.661 122.445Z" fill="#998675"/>
<path d="M98.2571 122.844C98.0586 119.754 97.6035 116.499 96.8258 112.593C94.0045 99.0482 87.5457 86.4561 78.147 76.1775C68.8199 65.9459 56.8812 58.4022 43.6215 54.3563C36.8648 52.3237 30.0281 51.2137 23.3018 51.0595L21.6829 51.021C21.3575 51.0127 21.0293 51.0072 20.8307 51.0099L-52.4975 51.0099L-54.7534 51.0375C-68.3165 51.2 -82.2353 55.2706 -93.9424 62.5003C-105.685 69.73 -115.327 80.0499 -121.827 92.35L-122.996 94.647C-123.264 95.1895 -123.512 95.7404 -123.76 96.2912C-123.865 96.5281 -123.972 96.7622 -124.077 96.9935C-124.64 98.1916 -125.122 99.4364 -125.591 100.64C-125.74 101.023 -125.889 101.406 -126.046 101.805C-126.273 102.439 -126.488 103.077 -126.703 103.716L-127.296 105.493L-128.357 109.236L-129.229 113.025L-129.907 116.854L-130.396 120.704L-130.688 124.568L-130.762 127.132L-130.793 396.567L-130.842 399.514C-130.853 399.759 -130.875 400.004 -130.895 400.247C-130.911 400.431 -130.928 400.618 -130.939 400.817C-130.961 401.354 -131.03 401.88 -131.104 402.439C-131.146 402.75 -131.187 403.059 -131.217 403.359C-131.248 403.604 -131.295 403.849 -131.341 404.091C-131.375 404.268 -131.408 404.444 -131.435 404.609L-131.49 404.937C-131.543 405.251 -131.595 405.548 -131.681 405.868C-133.076 412.472 -136.314 418.675 -141.046 423.808C-145.644 428.827 -151.579 432.528 -158.2 434.506L-159.427 434.858C-159.656 434.916 -159.888 434.968 -160.117 435.021C-160.304 435.062 -160.492 435.106 -160.696 435.153C-161.181 435.285 -161.675 435.37 -162.202 435.459C-162.535 435.516 -162.872 435.571 -163.161 435.635C-164.736 435.839 -166.523 436.07 -168.286 436.07L-168.291 436.07C-171.548 436.169 -174.965 435.792 -178.443 434.949C-185.119 433.263 -191.206 429.826 -196.043 425.006C-200.958 420.123 -204.466 414.061 -206.184 407.49C-206.551 405.981 -206.956 404.224 -207.143 402.433C-207.232 401.882 -207.273 401.332 -207.314 400.745C-207.337 400.456 -207.356 400.164 -207.383 399.872C-207.408 399.624 -207.408 399.373 -207.411 399.123C-207.411 398.947 -207.414 398.77 -207.422 398.602L-207.452 397.627L-207.452 -0.00545887L-208.555 -0.00545897L-208.555 397.148L-208.525 398.649C-208.517 398.812 -208.517 398.977 -208.514 399.139C-208.514 399.415 -208.509 399.698 -208.481 399.985C-208.453 400.266 -208.434 400.549 -208.415 400.83C-208.373 401.414 -208.329 402.02 -208.236 402.585C-208.045 404.411 -207.629 406.209 -207.254 407.765C-205.483 414.541 -201.876 420.776 -196.821 425.797C-191.843 430.754 -185.583 434.291 -178.707 436.026C-175.13 436.893 -171.62 437.279 -168.277 437.18L-168.269 437.18C-166.452 437.18 -164.631 436.943 -162.982 436.728C-162.665 436.662 -162.342 436.607 -162.022 436.552C-161.496 436.461 -160.95 436.37 -160.428 436.227C-160.249 436.183 -160.067 436.142 -159.885 436.103C-159.645 436.048 -159.402 435.996 -159.146 435.929L-157.899 435.571C-151.079 433.533 -144.973 429.724 -140.241 424.56C-135.373 419.283 -132.042 412.899 -130.613 406.129C-130.522 405.791 -130.464 405.452 -130.409 405.124L-130.351 404.799C-130.324 404.631 -130.293 404.466 -130.26 404.301C-130.211 404.036 -130.161 403.769 -130.125 403.488C-130.095 403.188 -130.054 402.888 -130.015 402.588C-129.94 402.028 -129.863 401.453 -129.841 400.877C-129.83 400.698 -129.814 400.522 -129.8 400.343C-129.778 400.084 -129.756 399.825 -129.745 399.552L-129.714 398.244L-129.695 129.44L-129.59 124.626L-129.301 120.814L-128.821 117.019L-128.151 113.246L-127.293 109.511L-126.245 105.821L-125.66 104.069C-125.448 103.436 -125.236 102.805 -125.018 102.193C-124.866 101.811 -124.717 101.422 -124.568 101.039C-124.108 99.8523 -123.633 98.6268 -123.084 97.459C-122.977 97.2221 -122.869 96.9825 -122.762 96.7429C-122.519 96.203 -122.279 95.666 -122.02 95.1427L-120.856 92.8595C-114.452 80.7411 -104.949 70.5673 -93.3715 63.4423C-81.8299 56.3145 -68.1124 52.3017 -54.7424 52.1447L20.8307 52.1171C21.0293 52.1144 21.3409 52.1227 21.6526 52.1282L23.2687 52.1667C29.8985 52.3209 36.6359 53.4144 43.2961 55.4166C56.3655 59.4047 68.1332 66.8409 77.3279 76.9267C86.5915 87.0593 92.9593 99.4723 95.7392 112.816C96.5087 116.667 96.9554 119.875 97.1512 122.932C97.2864 124.392 97.3195 125.888 97.3498 127.333L97.3774 128.633L97.3773 661L98.4805 661L98.4805 130.085L98.4529 127.309C98.4198 125.843 98.3867 124.329 98.2516 122.844L98.2571 122.844Z" fill="#998675"/>
<path d="M92.8533 123.246C92.674 120.404 92.2521 117.377 91.524 113.714C88.9013 101.125 82.8947 89.4168 74.1551 79.8544C65.4817 70.3414 54.3814 63.3238 42.0483 59.5589C35.7522 57.6668 29.3954 56.6368 23.1516 56.4935L21.6596 56.4577C21.3535 56.4495 21.0419 56.4439 20.8323 56.4466L-52.496 56.4466L-54.6609 56.4742C-67.2642 56.623 -80.2068 60.4072 -91.103 67.1301C-102.024 73.853 -110.993 83.4513 -117.041 94.8949L-118.127 97.0293C-118.373 97.5223 -118.599 98.0263 -118.825 98.5303C-118.927 98.759 -119.029 98.9875 -119.131 99.2106C-119.641 100.296 -120.08 101.422 -120.502 102.513C-120.651 102.898 -120.799 103.284 -120.959 103.686C-121.158 104.245 -121.348 104.807 -121.536 105.369L-122.12 107.118L-123.108 110.599L-123.919 114.122L-124.55 117.68L-125.002 121.26L-125.275 124.857L-125.344 127.243L-125.375 396.575L-125.43 399.781C-125.441 400.07 -125.466 400.359 -125.491 400.649C-125.507 400.85 -125.524 401.051 -125.537 401.263C-125.565 401.899 -125.648 402.521 -125.733 403.182C-125.777 403.513 -125.819 403.843 -125.855 404.166C-125.893 404.455 -125.946 404.741 -126.001 405.028C-126.037 405.221 -126.072 405.413 -126.103 405.598L-126.161 405.934C-126.224 406.308 -126.285 406.661 -126.384 407.033C-127.984 414.593 -131.682 421.677 -137.076 427.521C-142.333 433.252 -149.109 437.477 -156.662 439.73L-158.063 440.132C-158.336 440.201 -158.612 440.265 -158.885 440.325C-159.087 440.372 -159.291 440.416 -159.506 440.468C-160.082 440.623 -160.667 440.722 -161.285 440.829C-161.646 440.893 -162.007 440.953 -162.33 441.019C-164.288 441.278 -166.205 441.512 -168.171 441.518C-171.908 441.628 -175.805 441.195 -179.748 440.237C-187.368 438.315 -194.318 434.393 -199.845 428.89C-205.451 423.324 -209.453 416.402 -211.417 408.886C-211.858 407.085 -212.296 405.143 -212.511 403.122C-212.614 402.466 -212.663 401.778 -212.713 401.114C-212.735 400.811 -212.757 400.505 -212.784 400.2C-212.812 399.908 -212.815 399.613 -212.818 399.318C-212.818 399.126 -212.823 398.933 -212.831 398.748L-212.864 397.641L-212.864 0.00827404L-213.968 0.00827394L-213.968 397.148L-213.935 398.779C-213.926 398.96 -213.923 399.142 -213.923 399.324C-213.918 399.638 -213.915 399.963 -213.885 400.291C-213.857 400.588 -213.838 400.885 -213.816 401.183C-213.766 401.869 -213.714 402.579 -213.609 403.254C-213.388 405.317 -212.942 407.3 -212.489 409.148C-210.473 416.865 -206.37 423.96 -200.622 429.664C-194.958 435.307 -187.832 439.328 -180.016 441.3C-175.97 442.283 -171.974 442.727 -168.157 442.614C-166.141 442.608 -164.183 442.371 -162.151 442.102C-161.8 442.03 -161.45 441.972 -161.1 441.912C-160.485 441.807 -159.848 441.697 -159.236 441.534C-159.04 441.487 -158.841 441.443 -158.645 441.397C-158.361 441.333 -158.074 441.267 -157.777 441.193L-156.354 440.785C-148.604 438.472 -141.657 434.142 -136.265 428.265C-130.736 422.274 -126.947 415.012 -125.311 407.283C-125.206 406.892 -125.14 406.496 -125.074 406.116L-125.016 405.78C-124.986 405.595 -124.95 405.411 -124.917 405.226C-124.859 404.92 -124.801 404.615 -124.76 404.292C-124.724 403.967 -124.683 403.645 -124.638 403.323C-124.553 402.67 -124.465 401.993 -124.434 401.318C-124.423 401.122 -124.407 400.93 -124.39 400.734C-124.365 400.431 -124.341 400.128 -124.327 399.811L-124.291 398.324L-124.272 129.443L-124.175 124.91L-123.908 121.368L-123.461 117.843L-122.837 114.339L-122.04 110.872L-121.067 107.446L-120.491 105.721C-120.303 105.165 -120.115 104.612 -119.928 104.077C-119.774 103.692 -119.622 103.301 -119.473 102.912C-119.056 101.841 -118.626 100.731 -118.13 99.6761C-118.025 99.4447 -117.92 99.2134 -117.815 98.982C-117.595 98.4918 -117.377 98.0015 -117.14 97.5251L-116.059 95.4043C-110.107 84.1426 -101.277 74.693 -90.5239 68.072C-79.7958 61.4537 -67.0546 57.7274 -54.6416 57.5787L20.8405 57.5511C21.0474 57.5483 21.3452 57.5566 21.6348 57.5621L23.1268 57.5979C29.2713 57.7383 35.5316 58.7547 41.7312 60.6165C53.874 64.3209 64.8033 71.231 73.3416 80.598C81.9488 90.0145 87.8616 101.543 90.4429 113.932C91.16 117.542 91.5764 120.522 91.7529 123.332C91.877 124.651 91.9074 126.006 91.9349 127.311L91.9653 128.631L91.9652 661L93.0684 661L93.0684 130.085L93.0381 127.289C93.0077 125.962 92.9774 124.588 92.8533 123.246Z" fill="#998675"/>
<path d="M87.4484 123.646C87.2857 121.048 86.8969 118.247 86.2184 114.83C83.7943 103.196 78.24 92.3721 70.1595 83.5257C62.1425 74.7289 51.875 68.24 40.4714 64.7587C34.6385 63.0071 28.7588 62.0542 22.9977 61.9247L21.6132 61.8917C21.3319 61.8834 21.0506 61.8751 20.8273 61.8807L-52.501 61.8807L-54.5749 61.9082C-66.3895 62.0459 -78.0414 65.4528 -88.2674 71.7571C-98.3666 77.9733 -106.659 86.85 -112.255 97.4369L-113.259 99.4089C-113.482 99.8578 -113.686 100.315 -113.891 100.772C-113.99 100.993 -114.086 101.213 -114.186 101.425C-114.652 102.405 -115.046 103.427 -115.429 104.413C-115.576 104.791 -115.722 105.168 -115.882 105.57L-116.955 108.735L-117.867 111.951L-118.615 115.207L-119.199 118.498L-119.619 121.809L-119.87 125.136L-119.93 127.342L-119.961 396.572L-120.021 400.034C-120.035 400.373 -120.063 400.709 -120.09 401.045C-120.107 401.257 -120.123 401.472 -120.14 401.695C-120.176 402.436 -120.275 403.196 -120.371 403.929C-120.416 404.276 -120.463 404.62 -120.501 404.956C-120.545 405.289 -120.606 405.62 -120.667 405.95C-120.705 406.16 -120.744 406.369 -120.777 406.57L-120.838 406.923C-120.912 407.352 -120.984 407.76 -121.094 408.184C-122.898 416.697 -127.054 424.662 -133.113 431.217C-139.028 437.662 -146.643 442.407 -155.129 444.938L-156.706 445.39C-157.026 445.473 -157.351 445.544 -157.674 445.619C-157.886 445.668 -158.099 445.715 -158.325 445.77C-158.998 445.946 -159.707 446.068 -160.391 446.186C-160.777 446.252 -161.163 446.318 -161.51 446.39C-163.479 446.657 -165.768 446.941 -168.063 446.952C-172.28 447.07 -176.656 446.585 -181.069 445.508C-189.632 443.352 -197.445 438.943 -203.661 432.757C-209.96 426.507 -214.458 418.73 -216.667 410.269C-217.133 408.377 -217.646 406.132 -217.9 403.791C-218.018 403.025 -218.076 402.23 -218.131 401.461C-218.154 401.144 -218.178 400.83 -218.203 400.514C-218.233 400.186 -218.236 399.853 -218.242 399.503C-218.245 399.294 -218.25 399.084 -218.256 398.88L-218.289 397.641L-218.289 0.00827404L-219.392 0.00827394L-219.392 397.148L-219.359 398.908C-219.35 399.109 -219.348 399.31 -219.345 399.508C-219.339 399.864 -219.334 400.23 -219.301 400.599C-219.273 400.91 -219.251 401.221 -219.229 401.533C-219.171 402.326 -219.113 403.144 -218.992 403.929C-218.733 406.308 -218.211 408.6 -217.734 410.536C-215.473 419.195 -210.873 427.149 -204.436 433.536C-198.082 439.862 -190.092 444.371 -181.334 446.577C-176.822 447.679 -172.343 448.175 -168.044 448.051C-165.697 448.04 -163.363 447.75 -161.328 447.475C-160.953 447.401 -160.578 447.337 -160.2 447.271C-159.491 447.15 -158.761 447.023 -158.055 446.839C-157.845 446.789 -157.638 446.742 -157.429 446.696C-157.095 446.621 -156.764 446.544 -156.417 446.456L-154.817 445.999C-146.135 443.41 -138.35 438.557 -132.302 431.966C-126.108 425.265 -121.861 417.121 -120.021 408.437C-119.905 407.994 -119.828 407.545 -119.754 407.11L-119.693 406.757C-119.66 406.556 -119.621 406.353 -119.586 406.151C-119.522 405.802 -119.456 405.452 -119.409 405.091C-119.37 404.75 -119.326 404.411 -119.282 404.072C-119.183 403.317 -119.081 402.535 -119.042 401.759C-119.028 401.552 -119.012 401.343 -118.995 401.136C-118.968 400.786 -118.937 400.437 -118.924 400.073L-118.882 398.407L-118.86 129.449L-118.772 125.196L-118.524 121.924L-118.113 118.666L-117.539 115.43L-116.803 112.23L-115.904 109.068L-114.85 105.961C-114.699 105.581 -114.55 105.201 -114.404 104.821C-114.028 103.851 -113.64 102.852 -113.19 101.901C-113.088 101.678 -112.989 101.455 -112.889 101.232C-112.691 100.789 -112.492 100.345 -112.28 99.9157L-111.282 97.9575C-105.782 87.5522 -97.6248 78.8215 -87.6938 72.71C-77.6359 66.5104 -66.1826 63.1614 -54.5611 63.0237L20.8273 62.9961C21.0424 62.9933 21.3126 63.0016 21.5774 63.0071L22.9646 63.0402C28.6292 63.1668 34.4096 64.1033 40.1459 65.8274C51.3593 69.2508 61.453 75.6322 69.3377 84.2831C77.2858 92.9835 82.7463 103.626 85.1291 115.061C85.7937 118.426 86.1798 121.178 86.3398 123.745C86.4528 124.924 86.4804 126.138 86.5052 127.309L86.5356 128.642L86.5355 661L87.6387 661L87.6387 130.085L87.6084 127.273C87.5808 126.08 87.5532 124.849 87.4402 123.646L87.4484 123.646Z" fill="#998675"/>
<path d="M82.198 127.287C82.1732 126.221 82.1484 125.119 82.0436 124.048C81.8974 121.668 81.5499 119.17 80.9156 115.948C78.69 105.27 73.5908 95.3273 66.1667 87.1998C58.8032 79.1218 49.3742 73.1617 38.8971 69.9614C33.5249 68.353 28.125 67.4772 22.8465 67.3615L22.1708 67.345C21.7185 67.3312 21.2662 67.3201 20.8305 67.3201L-52.4977 67.3201L-54.4779 67.345C-65.3189 67.4716 -76.0194 70.5976 -85.4208 76.3896C-94.6982 82.0962 -102.318 90.2541 -107.462 99.9845L-108.385 101.794C-108.584 102.193 -108.766 102.601 -108.948 103.011C-109.045 103.226 -109.138 103.438 -109.235 103.645C-109.651 104.521 -110.004 105.427 -110.346 106.308C-110.492 106.683 -110.636 107.054 -110.796 107.454L-111.78 110.357L-112.619 113.309L-113.305 116.297L-113.84 119.319L-114.224 122.362L-114.455 125.419L-114.511 127.438C-114.544 128.385 -114.541 129.275 -114.541 130.14C-114.541 130.55 -114.541 130.961 -114.541 131.379L-114.541 396.575C-114.541 397.148 -114.541 397.82 -114.563 398.456L-114.61 400.293C-114.626 400.679 -114.657 401.064 -114.69 401.453C-114.706 401.676 -114.726 401.899 -114.742 402.13C-114.786 402.981 -114.899 403.852 -115.01 404.692C-115.057 405.047 -115.104 405.405 -115.142 405.752C-115.195 406.135 -115.263 406.515 -115.332 406.892C-115.371 407.113 -115.412 407.33 -115.448 407.545L-115.512 407.906C-115.597 408.396 -115.677 408.856 -115.801 409.338C-117.809 418.804 -122.423 427.648 -129.144 434.919C-135.718 442.077 -144.174 447.346 -153.586 450.152L-155.34 450.653C-155.71 450.75 -156.085 450.832 -156.457 450.918C-156.678 450.967 -156.899 451.02 -157.13 451.075C-157.902 451.273 -158.713 451.413 -159.497 451.551C-159.902 451.62 -160.305 451.692 -160.677 451.763C-162.974 452.077 -165.442 452.372 -167.944 452.386C-172.64 452.515 -177.497 451.978 -182.378 450.783C-191.885 448.392 -200.558 443.498 -207.464 436.624C-214.455 429.691 -219.446 421.054 -221.904 411.652C-222.386 409.707 -222.979 407.132 -223.274 404.46C-223.407 403.582 -223.473 402.667 -223.536 401.786C-223.561 401.464 -223.583 401.144 -223.611 400.822C-223.644 400.45 -223.649 400.076 -223.655 399.682C-223.66 399.456 -223.663 399.227 -223.671 399.015C-223.674 398.795 -223.683 398.58 -223.688 398.365C-223.699 397.974 -223.713 397.583 -223.707 397.154L-223.707 0.00552745L-224.81 0.00552736L-224.81 397.14C-224.816 397.578 -224.805 397.985 -224.791 398.39C-224.786 398.6 -224.78 398.812 -224.775 399.037C-224.766 399.255 -224.764 399.473 -224.758 399.693C-224.75 400.09 -224.744 400.497 -224.708 400.908C-224.681 401.224 -224.659 401.544 -224.637 401.86C-224.571 402.764 -224.502 403.697 -224.366 404.598C-224.069 407.314 -223.465 409.933 -222.971 411.919C-220.464 421.52 -215.37 430.333 -208.239 437.403C-201.192 444.415 -192.342 449.411 -182.64 451.851C-177.662 453.069 -172.707 453.619 -167.922 453.487C-165.368 453.474 -162.856 453.173 -160.492 452.848C-160.098 452.771 -159.701 452.702 -159.303 452.634C-158.498 452.493 -157.665 452.35 -156.86 452.143C-156.642 452.091 -156.424 452.041 -156.206 451.992C-155.823 451.904 -155.44 451.818 -155.045 451.716L-153.269 451.21C-143.658 448.345 -135.032 442.969 -128.325 435.665C-121.469 428.251 -116.764 419.225 -114.717 409.586C-114.591 409.087 -114.502 408.583 -114.417 408.093L-114.353 407.73C-114.318 407.515 -114.279 407.303 -114.238 407.088C-114.166 406.691 -114.091 406.295 -114.039 405.884C-113.998 405.532 -113.951 405.182 -113.907 404.829C-113.794 403.967 -113.678 403.075 -113.631 402.191C-113.617 401.973 -113.598 401.753 -113.581 401.535C-113.548 401.136 -113.518 400.737 -113.498 400.326L-113.452 398.487C-113.43 397.839 -113.427 397.154 -113.43 396.57L-113.43 131.379C-113.43 130.961 -113.43 130.545 -113.43 130.132C-113.43 129.278 -113.435 128.397 -113.402 127.468L-113.35 125.472L-113.123 122.47L-112.746 119.481L-112.219 116.515L-111.543 113.579L-110.721 110.682L-109.756 107.834C-109.604 107.457 -109.458 107.079 -109.312 106.702C-108.978 105.843 -108.634 104.953 -108.231 104.11C-108.132 103.893 -108.032 103.675 -107.936 103.458C-107.759 103.064 -107.586 102.67 -107.395 102.29L-106.48 100.494C-101.433 90.9454 -93.9509 82.9363 -84.8417 77.3315C-75.6112 71.6442 -65.1066 68.5733 -54.4558 68.4521L20.8333 68.4273C21.258 68.4273 21.702 68.4411 22.1432 68.4521L22.8272 68.4687C28.0064 68.5816 33.3098 69.4409 38.5827 71.0218C48.8667 74.1643 58.1248 80.0169 65.3559 87.9489C72.6448 95.9304 77.6558 105.691 79.8373 116.171C80.4606 119.338 80.8025 121.789 80.9459 124.139C81.048 125.188 81.0728 126.27 81.0949 127.314L81.1142 128.14C81.1307 128.994 81.128 129.82 81.1252 130.644C81.1252 131.104 81.1252 131.561 81.1252 132.024L81.1252 661L82.2283 661L82.2283 132.018C82.2283 131.556 82.2283 131.101 82.2283 130.644C82.2283 129.812 82.2311 128.98 82.2173 128.113L82.198 127.287Z" fill="#998675"/>
</g>
<defs>
<clipPath id="clip0_364_456">
<rect width="410" height="661" fill="white" transform="translate(131 661) rotate(-180)"/>
</clipPath>
</defs>
</svg>
