<svg width="87" height="106" viewBox="0 0 87 106" fill="none" xmlns="http://www.w3.org/2000/svg">
<path d="M53.3634 10.1131L23.0145 46.9446C28.2413 53.0208 33.3416 59.1386 38.3154 65.298C43.2892 71.3742 48.3052 77.5336 53.3634 83.7762H43.5L13.0247 46.8198L43.5 10.1131H53.3634ZM40.2122 90.768H68.4113C62.3416 83.4433 56.2296 76.2018 50.0756 69.0436C44.0058 61.8021 38.0203 54.4358 32.1192 46.9446L68.2849 3.12132H40.2122L4.04651 46.8198L40.2122 90.768ZM38.8212 0H74.8605L86.7471 12.8598L48.3052 59.4299C52.2674 64.424 56.1875 69.2517 60.0654 73.9128C64.0276 78.574 68.032 83.3184 72.0785 88.146L87 106H51.4666L38.6948 93.8893L0 46.8198L38.8212 0Z" fill="#232233"/>
</svg>
