<svg width="87" height="106" viewBox="0 0 87 106" fill="none" xmlns="http://www.w3.org/2000/svg">
<path d="M61.8723 46.8198C56.8215 53.0624 51.7286 59.2218 46.5936 65.298C41.5428 71.3742 36.4499 77.5336 31.315 83.7762H21.5922C26.7271 77.7 31.7779 71.5822 36.7446 65.4228C41.7112 59.2634 46.7199 53.104 51.7707 46.9446C46.6357 40.7852 41.5849 34.6674 36.6183 28.5913C31.6517 22.5151 26.643 16.3557 21.5922 10.1131H31.315L61.8723 46.8198ZM6.69231 3.12132C12.7533 10.446 18.73 17.7707 24.6226 25.0954C30.5994 32.3369 36.6183 39.6199 42.6792 46.9446L6.56604 90.768H34.7242L70.8374 46.8198L34.7242 3.12132H6.69231ZM48.6139 12.8598L87 59.3051L48.7402 106H13.3846L0 93.8893L38.6386 46.9446C29.463 35.7911 21.6763 26.3023 15.2787 18.4782C8.88099 10.6541 3.7881 4.4947 0 0H36.1132L48.6139 12.8598Z" fill="#8CC540"/>
</svg>
