<svg width="544" height="551" viewBox="0 0 544 551" fill="none" xmlns="http://www.w3.org/2000/svg">
<g clip-path="url(#clip0_392_2356)">
<path d="M485.151 284.062L484.827 283.833L257.651 127.535L257.422 127.878L99.2169 359.442L99.541 359.671L326.698 515.969L326.926 515.626L485.132 284.062H485.151ZM257.861 128.66L484.017 284.262L326.488 514.825L100.342 359.232L257.861 128.66Z" fill="#FFFFFF"/>
<path d="M487.783 292.07L263.181 127.88L262.943 128.194L96.5874 351.418L321.18 515.618L321.418 515.303L487.774 292.08L487.783 292.07ZM263.353 129.004L486.649 292.251L321.028 514.493L97.7312 351.246L263.353 129.004Z" fill="#FFFFFF"/>
<path d="M487.192 297.597L486.878 297.34L271.312 125.448L271.064 125.772L97.1785 345.907L97.493 346.164L313.059 518.056L313.307 517.732L487.183 297.588L487.192 297.597ZM271.436 126.582L486.058 297.721L312.926 516.912L98.3128 345.783L271.445 126.592L271.436 126.582Z" fill="#FFFFFF"/>
<path d="M489.25 305.776L488.936 305.518L276.782 126.173L276.515 126.478L95.1086 337.719L95.4231 337.977L307.577 517.322L307.844 517.017L489.26 305.766L489.25 305.776ZM276.887 127.307L488.116 305.862L307.491 516.188L96.2619 337.633L276.887 127.307Z" fill="#FFFFFF"/>
<path d="M488.289 311.238L285.066 124.314L96.0918 332.258L299.315 519.181L488.289 311.238ZM285.105 125.458L487.136 311.286L299.248 518.028L97.2261 332.21L285.114 125.468L285.105 125.458Z" fill="#FFFFFF"/>
<path d="M489.766 319.559L290.47 125.411L290.184 125.697L94.5945 323.937L293.881 518.076L294.167 517.79L489.757 319.55L489.766 319.559ZM290.489 126.555L488.622 319.559L293.881 516.932L95.7478 323.927L290.489 126.555Z" fill="#FFFFFF"/>
<path d="M298.849 124.143L95.9384 318.55L96.2243 318.836L285.512 519.352L488.413 324.935L488.127 324.649L298.839 124.133L298.849 124.143ZM97.0917 318.579L298.83 125.286L487.288 324.916L285.55 518.208L97.0917 318.579Z" fill="#FFFFFF"/>
<path d="M304.176 125.621L303.871 125.888L95.0414 310.144L280.192 517.866L280.497 517.599L489.327 333.342L304.176 125.621ZM96.1852 310.22L304.1 126.765L488.174 333.295L280.259 516.75L96.1852 310.22Z" fill="#FFFFFF"/>
<path d="M312.612 124.926L96.7573 304.864L97.0146 305.179L271.747 518.572L487.602 338.633L487.345 338.319L312.612 124.926ZM97.8916 304.969L312.498 126.07L486.468 338.528L271.862 517.428L97.8916 304.969Z" fill="#FFFFFF"/>
<path d="M317.817 126.774L317.493 127.022L96.4521 296.398L266.552 516.711L266.876 516.464L487.926 347.077L317.826 126.764L317.817 126.774ZM97.5864 296.561L317.664 127.918L486.773 346.953L266.695 515.596L97.5864 296.561Z" fill="#FFFFFF"/>
<path d="M326.281 126.679L325.947 126.917L98.5297 291.252L98.7584 291.576L258.088 516.826L258.421 516.588L485.839 352.254L485.61 351.929L326.29 126.689L326.281 126.679ZM99.6544 291.442L326.09 127.823L484.704 352.072L258.278 515.682L99.6544 291.442Z" fill="#FFFFFF"/>
<path d="M331.332 128.891L330.999 129.11L98.8152 282.788L253.026 514.605L253.36 514.386L485.543 360.708L331.323 128.881L331.332 128.891ZM99.9399 283.016L331.113 130.006L484.437 360.48L253.255 513.48L99.9399 283.016Z" fill="#FFFFFF"/>
<path d="M339.787 129.376L101.246 277.783L244.59 514.118L483.131 365.712L339.787 129.376ZM102.351 278.05L339.511 130.492L482.007 365.445L244.857 512.994L102.351 278.05Z" fill="#FFFFFF"/>
<path d="M344.669 131.931L102.115 269.347L239.702 511.554L482.256 374.138L344.669 131.931ZM103.22 269.652L344.364 133.037L481.151 373.833L239.997 510.458L103.22 269.652Z" fill="#FFFFFF"/>
<path d="M353.057 133.019L352.695 133.209L104.889 264.534L105.07 264.887L231.314 510.487L231.676 510.297L479.483 378.972L353.057 133.019ZM105.985 264.868L352.714 134.105L478.397 378.609L231.657 509.382L105.985 264.868Z" fill="#FFFFFF"/>
<path d="M357.756 135.907L106.346 256.175L106.517 256.537L226.614 507.58L478.014 387.321L477.843 386.959L357.746 135.916L357.756 135.907ZM107.432 256.556L357.374 136.993L476.947 386.94L227.005 506.503L107.432 256.556Z" fill="#FFFFFF"/>
</g>
<circle cx="145.12" cy="145.12" r="145.12" transform="matrix(1 0 0 -1 51.5254 364.069)" fill="url(#paint0_linear_392_2356)"/>
<path d="M1 1.00024L532.707 593.708" stroke="#FFFFFF" stroke-linecap="round"/>
<defs>
<linearGradient id="paint0_linear_392_2356" x1="305.961" y1="97.956" x2="40.5126" y2="260.611" gradientUnits="userSpaceOnUse">
<stop stop-color="#8CC540"/>
<stop offset="1" stop-color="#FBE100"/>
</linearGradient>
<clipPath id="clip0_392_2356">
<rect width="355.544" height="355.544" fill="white" transform="matrix(0.707107 0.707107 0.707107 -0.707107 40.7773 321.743)"/>
</clipPath>
</defs>
</svg>
