<?xml version="1.0" standalone="no"?>
<!DOCTYPE svg PUBLIC "-//W3C//DTD SVG 1.1//EN" "http://www.w3.org/Graphics/SVG/1.1/DTD/svg11.dtd" >
<svg xmlns="http://www.w3.org/2000/svg" xmlns:xlink="http://www.w3.org/1999/xlink" version="1.1">
<metadata>
Created by FontForge 20190801 at Tue Jul 19 21:42:19 2022
 By Unknown
Pangram Pangram
</metadata>
<defs>
<font id="PPMonumentExtended-Regular" horiz-adv-x="0" >
  <font-face 
    font-family="PP Monument Extended"
    font-weight="400"
    font-stretch="normal"
    units-per-em="1000"
    panose-1="0 0 0 0 0 0 0 0 0 0"
    ascent="800"
    descent="-200"
    x-height="591"
    cap-height="709"
    bbox="-68 -272 1881 1040"
    underline-thickness="61"
    underline-position="-90"
    unicode-range="U+0020-FB02"
  />
<missing-glyph horiz-adv-x="520" 
d="M426 800v-1040h-329v1040h329zM174 -168h172v34h-106l73 49h33v34h-172v-34h72l-72 -49v-34zM174 -27h172v118h-172v-118zM174 153h172v118h-104v-59h36v24h34v-49h-104v84h-34v-118zM174 294h172v104h-34v-69h-138v-35zM174 353h104v73h68v34h-172v-34h68v-39h-68v-34z
M174 488h172v35h-68v73h-104v-108zM174 623h172v35h-68v38h68v34h-171v-34h67v-38h-68v-35zM208 8v48h104v-48h-104zM208 523v38h34v-38h-34z" />
    <glyph glyph-name="f_i" unicode="fi" horiz-adv-x="983" 
d="M221 624q0 91 49 133.5t169 42.5h465v-84h-432q-71 0 -95 -21t-24 -85v-19h551v-591h-132v491h-419v-491h-132v491h-162v100h162v33z" />
    <glyph glyph-name="f_l" unicode="fl" horiz-adv-x="983" 
d="M221 624q0 91 49 133.5t169 42.5h465v-800h-132v716h-300q-71 0 -95 -21t-24 -85v-19h261v-100h-261v-491h-132v491h-162v100h162v33z" />
    <glyph glyph-name="f_f" unicode="ff" horiz-adv-x="1253" 
d="M221 624q0 91 49 133.5t169 42.5h208v-84h-175q-71 0 -95 -21t-24 -85v-19h419v33q0 91 49 133.5t169 42.5h208v-84h-175q-71 0 -95 -21t-24 -85v-19h294v-100h-294v-491h-132v491h-419v-491h-132v491h-162v100h162v33z" />
    <glyph glyph-name="f_f_i" unicode="ffi" horiz-adv-x="1534" 
d="M221 624q0 91 49 133.5t169 42.5h208v-84h-175q-71 0 -95 -21t-24 -85v-19h419v33q0 91 49 133.5t169 42.5h465v-84h-432q-71 0 -95 -21t-24 -85v-19h551v-591h-132v491h-419v-491h-132v491h-419v-491h-132v491h-162v100h162v33z" />
    <glyph glyph-name=".notdef" horiz-adv-x="520" 
d="M426 800v-1040h-329v1040h329zM174 -168h172v34h-106l73 49h33v34h-172v-34h72l-72 -49v-34zM174 -27h172v118h-172v-118zM174 153h172v118h-104v-59h36v24h34v-49h-104v84h-34v-118zM174 294h172v104h-34v-69h-138v-35zM174 353h104v73h68v34h-172v-34h68v-39h-68v-34z
M174 488h172v35h-68v73h-104v-108zM174 623h172v35h-68v38h68v34h-171v-34h67v-38h-68v-35zM208 8v48h104v-48h-104zM208 523v38h34v-38h-34z" />
    <glyph glyph-name=".null" 
 />
    <glyph glyph-name="nonmarkingreturn" horiz-adv-x="333" 
 />
    <glyph glyph-name="space" unicode=" " horiz-adv-x="395" 
 />
    <glyph glyph-name="space" unicode="&#xa0;" horiz-adv-x="395" 
 />
    <glyph glyph-name="exclam" unicode="!" horiz-adv-x="314" 
d="M89 221l-6 490h147l-5 -490h-136zM80 0v120h154v-120h-154z" />
    <glyph glyph-name="quotedbl" unicode="&#x22;" horiz-adv-x="533" 
d="M321 419l-13 352h146l-12 -352h-121zM79 771h146l-12 -352h-121z" />
    <glyph glyph-name="numbersign" unicode="#" horiz-adv-x="1302" 
d="M672 -150l66 218h-317l-66 -218h-127l66 218h-209v99h239l80 266h-240v99h270l67 223h126l-67 -223h318l67 223h126l-67 -223h213v-99h-243l-80 -266h245v-99h-275l-66 -218h-126zM450 167h318l80 266h-318z" />
    <glyph glyph-name="dollar" unicode="$" horiz-adv-x="975" 
d="M426 -100v82q-181 9 -269.5 68.5t-92.5 186.5h139q0 -73 53 -110t170 -44v228q-188 15 -264.5 63t-76.5 152q0 189 341 200v74h121v-75q328 -22 334 -243h-138q0 67 -48.5 100t-147.5 42v-218q66 -5 109 -10t89 -14.5t73 -23.5t50 -35.5t33 -51.5t10 -71
q0 -114 -92 -164.5t-272 -55.5v-80h-121zM223 526q0 -55 42.5 -77.5t160.5 -33.5v212q-110 -3 -156.5 -26.5t-46.5 -74.5zM547 80q120 4 173 30.5t53 85.5q0 57 -45 77t-181 30v-223z" />
    <glyph glyph-name="percent" unicode="%" horiz-adv-x="1385" 
d="M371 0l528 711h115l-528 -711h-115zM79 506q0 89 65.5 155.5t189.5 66.5t189.5 -66.5t65.5 -155.5q0 -90 -65 -156.5t-190 -66.5q-124 0 -189.5 66.5t-65.5 156.5zM183 507q0 -63 41.5 -101.5t109.5 -38.5t110 38t42 102q0 63 -41.5 100.5t-110.5 37.5
q-68 0 -109.5 -37.5t-41.5 -100.5zM796 202q0 90 65 156.5t190 66.5q124 0 189 -66.5t65 -156.5q0 -89 -65 -155.5t-189 -66.5t-189.5 66.5t-65.5 155.5zM899 202q0 -63 42 -101t110 -38t109.5 38t41.5 101t-41.5 101t-109.5 38q-69 0 -110.5 -38t-41.5 -101z" />
    <glyph glyph-name="ampersand" unicode="&#x26;" horiz-adv-x="1096" 
d="M419 -20q-166 0 -255 51.5t-89 147.5q0 138 192 206q-86 71 -86 156q0 84 74 131.5t204 47.5q125 0 197.5 -43.5t72.5 -119.5q0 -69 -62.5 -122.5t-178.5 -82.5l261 -172q61 70 73 191h112q-12 -149 -101 -247l188 -124h-173l-93 61q-128 -81 -336 -81zM215 198
q0 -124 233 -124q134 0 220 44l-312 205q-141 -38 -141 -125zM309 533q0 -61 80 -115q129 29 178.5 56.5t49.5 68.5t-40.5 64.5t-111.5 23.5q-75 0 -115.5 -25.5t-40.5 -72.5z" />
    <glyph glyph-name="quotesingle" unicode="'" horiz-adv-x="305" 
d="M92 419l-13 352h146l-12 -352h-121z" />
    <glyph glyph-name="parenleft" unicode="(" horiz-adv-x="602" 
d="M522 -200q-443 0 -443 501q0 499 443 499v-105q-156 0 -232.5 -89.5t-76.5 -304.5q0 -216 76.5 -306t232.5 -90v-105z" />
    <glyph glyph-name="parenright" unicode=")" horiz-adv-x="602" 
d="M80 800q443 0 443 -501q0 -499 -443 -499v105q156 0 232.5 89.5t76.5 304.5q0 216 -76.5 306t-232.5 90v105z" />
    <glyph glyph-name="asterisk" unicode="*" horiz-adv-x="607" 
d="M261 364l14 175l-158 -99l-38 70l173 78l-173 77l38 70l158 -99l-14 175h85l-13 -175l158 99l37 -70l-173 -78l173 -77l-38 -70l-157 99l13 -175h-85z" />
    <glyph glyph-name="plus" unicode="+" horiz-adv-x="917" 
d="M398 0v290h-319v100h319v290h121v-290h318v-100h-318v-290h-121z" />
    <glyph glyph-name="comma" unicode="," horiz-adv-x="305" 
d="M93 -180l47 180h-66v123h157v-123l-74 -180h-64z" />
    <glyph glyph-name="hyphen" unicode="-" horiz-adv-x="957" 
d="M99 290v100h758v-100h-758z" />
    <glyph glyph-name="period" unicode="." horiz-adv-x="305" 
d="M74 0v123h157v-123h-157z" />
    <glyph glyph-name="slash" unicode="/" horiz-adv-x="568" 
d="M85 -150l272 905h126l-272 -905h-126z" />
    <glyph glyph-name="zero" unicode="0" horiz-adv-x="911" 
d="M455 -20q-181 0 -283.5 102.5t-102.5 272.5q0 169 102 271t284 102t284.5 -102t102.5 -271t-103 -272t-284 -103zM211 355q0 -123 65 -191.5t179 -68.5q115 0 180 69t65 191q0 121 -65 189.5t-180 68.5q-114 0 -179 -68t-65 -190z" />
    <glyph glyph-name="one" unicode="1" horiz-adv-x="795" 
d="M79 0v105h252v492l-222 -84l-30 99l264 97h121v-604h251v-105h-636z" />
    <glyph glyph-name="two" unicode="2" horiz-adv-x="885" 
d="M75 56q0 64 33 113t85.5 78.5t116.5 52.5t128 42t116.5 40t85.5 53.5t33 75.5q0 121 -196 121q-116 0 -180 -41.5t-64 -125.5h-138q7 130 109 196t276 66q158 0 244.5 -53.5t86.5 -155.5q0 -58 -30 -102.5t-78.5 -72t-107 -48.5t-119.5 -39t-112 -36.5t-87.5 -47.5
t-44.5 -67h574v-105h-731v56z" />
    <glyph glyph-name="three" unicode="3" horiz-adv-x="889" 
d="M457 -20q-376 0 -388 259h134q0 -159 258 -159q222 0 222 130q0 62 -48.5 88t-154.5 26h-89v81h85q101 1 149 27t48 85q0 115 -217 115q-128 0 -190.5 -39.5t-62.5 -122.5h-129q14 257 387 257q349 0 349 -198q0 -65 -34 -104.5t-105 -58.5q149 -35 149 -168
q0 -106 -90 -162t-273 -56z" />
    <glyph glyph-name="four" unicode="4" horiz-adv-x="976" 
d="M620 0v144h-541v100l541 465h133v-465h144v-100h-144v-144h-133zM225 244h395v345z" />
    <glyph glyph-name="five" unicode="5" horiz-adv-x="886" 
d="M448 -20q-168 0 -267 64.5t-113 180.5h147q14 -67 73 -103t155 -36q107 0 167.5 45t60.5 123q0 72 -52.5 111t-145.5 39q-115 0 -238 -78l-131 30l68 354h605v-106h-490l-36 -172q103 57 260 57q146 0 226.5 -61.5t80.5 -174.5q0 -128 -98 -200.5t-272 -72.5z" />
    <glyph glyph-name="six" unicode="6" horiz-adv-x="912" 
d="M471 -20q-191 0 -292 91.5t-101 264.5q0 187 112 289.5t318 102.5q127 0 279 -31v-106q-159 31 -264 31q-132 0 -203 -51.5t-88 -161.5q94 90 261 90q169 0 260 -65t91 -184q0 -126 -99.5 -198t-273.5 -72zM233 244q0 -71 63.5 -114.5t167.5 -43.5q108 0 170 44.5
t62 121.5q0 73 -57 112.5t-163 39.5q-110 0 -176.5 -43.5t-66.5 -116.5z" />
    <glyph glyph-name="seven" unicode="7" horiz-adv-x="821" 
d="M252 0q0 419 357 605h-549v104h701v-104q-195 -105 -285.5 -252t-90.5 -353h-133z" />
    <glyph glyph-name="eight" unicode="8" horiz-adv-x="941" 
d="M470 -20q-213 0 -304 57t-91 162q0 147 210 185q-150 38 -150 159q0 184 335 184q172 0 254 -49t82 -135q0 -120 -150 -159q211 -38 211 -185q0 -104 -92 -161.5t-305 -57.5zM217 208q0 -137 253 -137q254 0 254 137q0 127 -254 127q-253 0 -253 -127zM263 535
q0 -101 207 -101q208 0 208 101q0 106 -208 106q-207 0 -207 -106z" />
    <glyph glyph-name="nine" unicode="9" horiz-adv-x="912" 
d="M441 727q191 0 292 -91.5t101 -264.5q0 -187 -112 -289.5t-318 -102.5q-127 0 -279 31v106q159 -31 264 -31q132 0 203 51.5t88 161.5q-94 -90 -261 -90q-169 0 -260 65t-91 184q0 126 99.5 198t273.5 72zM216 455q0 -73 57 -112.5t163 -39.5q110 0 176.5 43.5
t66.5 116.5q0 71 -63.5 114.5t-167.5 43.5q-108 0 -170 -44.5t-62 -121.5z" />
    <glyph glyph-name="colon" unicode=":" horiz-adv-x="305" 
d="M74 0v123h157v-123h-157zM74 300v123h157v-123h-157z" />
    <glyph glyph-name="semicolon" unicode=";" horiz-adv-x="305" 
d="M93 -180l47 180h-66v123h157v-123l-74 -180h-64zM74 300v123h157v-123h-157z" />
    <glyph glyph-name="less" unicode="&#x3c;" horiz-adv-x="906" 
d="M827 579v-112l-647 -126l647 -127v-112l-748 156v166z" />
    <glyph glyph-name="equal" unicode="=" horiz-adv-x="917" 
d="M79 450v100h758v-100h-758zM79 130v100h758v-100h-758z" />
    <glyph glyph-name="greater" unicode="&#x3e;" horiz-adv-x="906" 
d="M79 102v112l647 126l-647 127v112l748 -156v-166z" />
    <glyph glyph-name="question" unicode="?" horiz-adv-x="851" 
d="M323 214q0 67 32 110.5t78 63.5t92 36t78 41t32 65q0 104 -193 104q-119 0 -178 -40.5t-59 -135.5h-129q6 269 366 269q331 0 331 -183q0 -49 -24 -83t-59.5 -50.5t-77 -34t-77 -33.5t-59.5 -49t-24 -80h-129zM309 0v123h157v-123h-157z" />
    <glyph glyph-name="at" unicode="@" horiz-adv-x="1414" 
d="M714 -251q-302 0 -473.5 140.5t-171.5 383.5q0 247 176.5 392t485.5 145q286 0 449.5 -129t163.5 -349q0 -146 -70 -234t-187 -88q-72 0 -120.5 34t-64.5 95q-67 -121 -252 -121q-130 0 -208.5 68t-78.5 189q0 122 78 190t209 68q174 0 245 -109v91h95v-311
q0 -52 28 -80.5t77 -28.5q66 0 106 62.5t40 164.5q0 184 -135.5 291t-374.5 107q-262 0 -409.5 -120t-147.5 -324t144.5 -320.5t401.5 -116.5q142 0 287 37l25 -85q-142 -42 -318 -42zM462 275q0 -79 57.5 -123.5t152.5 -44.5q104 0 163.5 43.5t59.5 124.5t-59.5 125
t-163.5 44q-95 0 -152.5 -44.5t-57.5 -124.5z" />
    <glyph glyph-name="A" unicode="A" horiz-adv-x="1093" 
d="M69 0l393 709h170l391 -709h-143l-87 162h-493l-87 -162h-144zM354 262h385l-192 359z" />
    <glyph glyph-name="B" unicode="B" horiz-adv-x="954" 
d="M79 0v709h533q121 0 176.5 -47.5t55.5 -129.5q0 -58 -31.5 -100.5t-88.5 -63.5q161 -38 161 -175q0 -90 -58 -141.5t-170 -51.5h-578zM213 100h402q131 0 131 108q0 57 -37 81.5t-94 24.5h-402v-214zM213 400h362q136 0 136 106q0 103 -136 103h-362v-209z" />
    <glyph glyph-name="C" unicode="C" horiz-adv-x="1041" 
d="M531 -20q-205 0 -333.5 103t-128.5 272q0 168 128.5 270t333.5 102q180 0 302.5 -81.5t138.5 -205.5h-141q-14 69 -96 121.5t-204 52.5q-146 0 -234.5 -72.5t-88.5 -186.5q0 -115 88.5 -188t234.5 -73q122 0 204 53.5t96 122.5h141q-15 -126 -138 -208t-303 -82z" />
    <glyph glyph-name="D" unicode="D" horiz-adv-x="984" 
d="M79 0v709h462q161 0 267.5 -100.5t106.5 -253.5t-106.5 -254t-267.5 -101h-462zM213 114h276q131 0 209.5 65.5t78.5 175.5q0 109 -78.5 174.5t-209.5 65.5h-276v-481z" />
    <glyph glyph-name="E" unicode="E" horiz-adv-x="851" 
d="M79 0v709h698v-103h-564v-203h544v-96h-544v-203h564v-104h-698z" />
    <glyph glyph-name="F" unicode="F" horiz-adv-x="851" 
d="M79 0v709h698v-114h-564v-230h504v-114h-504v-251h-134z" />
    <glyph glyph-name="G" unicode="G" horiz-adv-x="1046" 
d="M542 -20q-216 0 -345 101.5t-129 271.5q0 171 128 273t341 102q195 0 312 -78.5t130 -197.5h-151q-11 58 -85 106.5t-205 48.5q-156 0 -240 -74t-84 -180q0 -109 86.5 -180.5t249.5 -71.5q186 0 313 68v78h-343v121h459v-273q-176 -115 -437 -115z" />
    <glyph glyph-name="H" unicode="H" horiz-adv-x="994" 
d="M79 0v709h134v-298h568v298h134v-709h-134v298h-568v-298h-134z" />
    <glyph glyph-name="I" unicode="I" horiz-adv-x="292" 
d="M79 0v709h134v-709h-134z" />
    <glyph glyph-name="J" unicode="J" horiz-adv-x="946" 
d="M473 -15q-205 0 -299.5 94t-94.5 272h134q0 -54 11.5 -96.5t39 -79t80.5 -56.5t129 -20t129 20t80 57t38.5 79t11.5 96v244h-329v114h463v-358q0 -178 -93 -272t-300 -94z" />
    <glyph glyph-name="K" unicode="K" horiz-adv-x="972" 
d="M79 0v709h134v-383l490 383h200l-369 -291l369 -418h-165l-303 340l-222 -175v-165h-134z" />
    <glyph glyph-name="L" unicode="L" horiz-adv-x="810" 
d="M79 0v709h134v-595h533v-114h-667z" />
    <glyph glyph-name="M" unicode="M" horiz-adv-x="1219" 
d="M79 0v709h202l329 -564l328 564h201v-709h-133v581l-334 -581h-125l-334 581v-581h-134z" />
    <glyph glyph-name="N" unicode="N" horiz-adv-x="1025" 
d="M79 0v709h197l536 -588v588h133v-709h-196l-536 588v-588h-134z" />
    <glyph glyph-name="O" unicode="O" horiz-adv-x="1078" 
d="M539 -20q-215 0 -342.5 102t-127.5 273q0 170 127.5 271t342.5 101q214 0 341.5 -101.5t127.5 -270.5q0 -171 -127.5 -273t-341.5 -102zM208 355q0 -118 89 -189.5t242 -71.5q152 0 241.5 72t89.5 189q0 116 -89 187.5t-242 71.5t-242 -71.5t-89 -187.5z" />
    <glyph glyph-name="P" unicode="P" horiz-adv-x="943" 
d="M79 0v709h512q130 0 206 -68t76 -186t-76 -186t-206 -68h-378v-201h-134zM213 314h350q172 0 172 141q0 140 -172 140h-350v-281z" />
    <glyph glyph-name="Q" unicode="Q" horiz-adv-x="1030" 
d="M887 -60l-95 89q-107 -49 -253 -49q-215 0 -342.5 102t-127.5 273q0 170 127.5 271t342.5 101q214 0 341.5 -101.5t127.5 -270.5q0 -170 -127 -273l77 -72zM208 355q0 -118 89 -189.5t242 -71.5q87 0 157 25l-158 148l70 72l179 -168q83 72 83 184q0 116 -89 187.5
t-242 71.5t-242 -71.5t-89 -187.5z" />
    <glyph glyph-name="R" unicode="R" horiz-adv-x="988" 
d="M79 0v709h543q276 0 276 -204q0 -145 -148 -183q66 -2 104.5 -38t38.5 -98v-186h-133v167q0 91 -96 91h-451v-258h-134zM213 368h381q83 0 124.5 28t41.5 91q0 62 -41 87.5t-125 25.5h-381v-232z" />
    <glyph glyph-name="S" unicode="S" horiz-adv-x="975" 
d="M508 -20q-224 0 -332 58.5t-112 198.5h139q0 -84 71.5 -120.5t233.5 -36.5q142 0 203.5 26.5t61.5 89.5q0 61 -52 80t-220 30l-40 3q-209 13 -292.5 61t-83.5 156q0 201 386 201q404 0 410 -245h-138q0 80 -69 112.5t-214 32.5q-129 0 -183 -23t-54 -78q0 -60 52 -82
t204 -33l42 -3q54 -4 89.5 -7.5t77 -9t67.5 -12.5t54.5 -18t45 -25.5t30.5 -34t20 -44.5t6 -57q0 -120 -101.5 -170t-301.5 -50z" />
    <glyph glyph-name="T" unicode="T" horiz-adv-x="956" 
d="M69 595v114h818v-114h-342v-595h-133v595h-343z" />
    <glyph glyph-name="U" unicode="U" horiz-adv-x="986" 
d="M493 -20q-414 0 -414 366v363h134v-359q0 -256 280 -256q279 0 279 256v359h134v-363q0 -366 -413 -366z" />
    <glyph glyph-name="V" unicode="V" horiz-adv-x="1093" 
d="M452 0l-383 709h144l334 -621l333 621h143l-383 -709h-188z" />
    <glyph glyph-name="W" unicode="W" horiz-adv-x="1642" 
d="M347 0l-278 709h137l237 -610l290 610h175l291 -610l237 610h136l-277 -709h-187l-287 608l-287 -608h-187z" />
    <glyph glyph-name="X" unicode="X" horiz-adv-x="1067" 
d="M69 0l371 355l-371 354h183l282 -277l282 277h182l-370 -354l370 -355h-182l-282 277l-282 -277h-183z" />
    <glyph glyph-name="Y" unicode="Y" horiz-adv-x="1074" 
d="M470 0v239l-401 470h168l300 -359l301 359h166l-400 -470v-239h-134z" />
    <glyph glyph-name="Z" unicode="Z" horiz-adv-x="916" 
d="M79 0v114l572 481h-572v114h757v-114l-572 -481h572v-114h-757z" />
    <glyph glyph-name="bracketleft" unicode="[" horiz-adv-x="602" 
d="M79 -200v1000h443v-105h-309v-790h309v-105h-443z" />
    <glyph glyph-name="backslash" unicode="\" horiz-adv-x="558" 
d="M352 -150l-273 905h127l272 -905h-126z" />
    <glyph glyph-name="bracketright" unicode="]" horiz-adv-x="602" 
d="M523 800v-1000h-443v105h309v790h-309v105h443z" />
    <glyph glyph-name="asciicircum" unicode="^" horiz-adv-x="907" 
d="M79 350l290 450h170l288 -450h-128l-245 389l-247 -389h-128z" />
    <glyph glyph-name="underscore" unicode="_" horiz-adv-x="1157" 
d="M99 -182v104h958v-104h-958z" />
    <glyph glyph-name="grave" unicode="`" horiz-adv-x="518" 
d="M468 677l-368 80v73l368 -80v-73z" />
    <glyph glyph-name="a" unicode="a" horiz-adv-x="948" 
d="M731 356q0 79 -54.5 108.5t-173.5 29.5q-117 0 -349 -61l-20 123q209 55 388 55q183 0 265.5 -64.5t82.5 -209.5v-337h-139v72q-173 -93 -364 -93q-136 0 -208.5 51.5t-72.5 147.5q0 101 85.5 154.5t245.5 53.5q143 0 314 -45v15zM231 187q0 -111 169 -111q144 0 331 89
v78q-103 25 -167 34.5t-143 9.5q-99 0 -144.5 -23t-45.5 -77z" />
    <glyph glyph-name="b" unicode="b" horiz-adv-x="958" 
d="M79 0v800h132v-334q46 69 128.5 107t188.5 38q165 0 263.5 -86t98.5 -229t-98.5 -229.5t-263.5 -86.5q-106 0 -188.5 38.5t-128.5 107.5v-126h-132zM211 296q0 -91 73.5 -145t201.5 -54q120 0 189.5 54t69.5 145q0 90 -70 144t-189 54q-127 0 -201 -53.5t-74 -144.5z" />
    <glyph glyph-name="c" unicode="c" horiz-adv-x="925" 
d="M470 -20q-185 0 -295.5 86t-110.5 229q0 144 110.5 230t295.5 86q154 0 261 -63.5t130 -168.5h-135q-19 58 -89 92.5t-167 34.5q-125 0 -200 -57.5t-75 -153.5q0 -95 75 -152.5t200 -57.5q97 0 167 34.5t89 92.5h135q-22 -106 -129 -169t-262 -63z" />
    <glyph glyph-name="d" unicode="d" horiz-adv-x="957" 
d="M747 0v124q-46 -69 -128.5 -107t-188.5 -38q-165 0 -263.5 86t-98.5 229t98.5 229.5t263.5 86.5q106 0 188.5 -38.5t128.5 -107.5v336h131v-800h-131zM213 294q0 -90 70 -144t189 -54q127 0 201 53.5t74 144.5t-73.5 145t-201.5 54q-120 0 -189.5 -54t-69.5 -145z" />
    <glyph glyph-name="e" unicode="e" horiz-adv-x="928" 
d="M474 -20q-193 0 -302.5 83.5t-109.5 231.5q0 147 109.5 231.5t295.5 84.5q189 0 294 -92.5t105 -271.5h-661q15 -79 85 -120t188 -41q96 0 159 28.5t83 79.5h137q-27 -102 -125 -158t-258 -56zM207 350h516q-35 156 -255 156q-226 0 -261 -156z" />
    <glyph glyph-name="f" unicode="f" horiz-adv-x="668" 
d="M221 630q0 92 53 138.5t177 46.5q83 0 163 -10v-87q-85 8 -133 8q-77 0 -102.5 -23t-25.5 -86v-26h261v-100h-261v-491h-132v491h-162v100h162v39z" />
    <glyph glyph-name="g" unicode="g" horiz-adv-x="956" 
d="M497 -260q-158 0 -399 35l17 100q230 -30 359 -30q154 0 213 44.5t59 141.5v93q-46 -69 -128 -106.5t-188 -37.5q-165 0 -263.5 86t-98.5 229t98.5 229.5t263.5 86.5q106 0 188 -38t128 -106v124h131v-553q0 -149 -86 -223.5t-294 -74.5zM213 295q0 -90 70 -144t189 -54
q120 0 193 48t81 130v40q-8 83 -81 131t-193 48t-189.5 -54t-69.5 -145z" />
    <glyph glyph-name="h" unicode="h" horiz-adv-x="943" 
d="M79 0v800h132v-366q116 177 345 177q151 0 229.5 -72t78.5 -240v-299h-132v256q0 132 -55 188t-178 56q-129 0 -208.5 -67t-79.5 -183v-250h-132z" />
    <glyph glyph-name="i" unicode="i" horiz-adv-x="290" 
d="M79 0v591h132v-591h-132zM79 681v119h132v-119h-132z" />
    <glyph glyph-name="j" unicode="j" horiz-adv-x="485" 
d="M201 -260q-69 0 -162 18v92q90 -16 134 -16q61 0 81 27t20 106v624h132v-617q0 -117 -47 -175.5t-158 -58.5zM274 681v119h132v-119h-132z" />
    <glyph glyph-name="k" unicode="k" horiz-adv-x="905" 
d="M79 0v800h132v-505l428 296h201l-334 -232l334 -359h-162l-267 293l-200 -139v-154h-132z" />
    <glyph glyph-name="l" unicode="l" horiz-adv-x="291" 
d="M79 0v800h132v-800h-132z" />
    <glyph glyph-name="m" unicode="m" horiz-adv-x="1389" 
d="M1171 295q0 109 -43.5 154t-139.5 45q-100 0 -161.5 -50.5t-61.5 -156.5v-287h-141v295q0 109 -43.5 154t-139.5 45q-101 0 -162 -50.5t-61 -156.5v-287h-140v591h140v-95q98 115 279 115q190 0 245 -146q97 146 302 146q267 0 267 -296v-315h-140v295z" />
    <glyph glyph-name="n" unicode="n" horiz-adv-x="947" 
d="M78 0v591h140v-128q118 148 345 148q151 0 228.5 -71.5t77.5 -238.5v-301h-140v254q0 129 -53.5 184.5t-175.5 55.5q-127 0 -204.5 -65.5t-77.5 -179.5v-249h-140z" />
    <glyph glyph-name="o" unicode="o" horiz-adv-x="939" 
d="M470 -20q-183 0 -294.5 86t-111.5 229t111.5 229.5t294.5 86.5q182 0 293.5 -86.5t111.5 -229.5t-111.5 -229t-293.5 -86zM196 295q0 -95 75.5 -152.5t198.5 -57.5q122 0 197.5 57.5t75.5 152.5q0 96 -75.5 153.5t-197.5 57.5q-123 0 -198.5 -57.5t-75.5 -153.5z" />
    <glyph glyph-name="p" unicode="p" horiz-adv-x="958" 
d="M79 -244v835h132v-125q46 69 128.5 107t188.5 38q165 0 263.5 -86t98.5 -229t-98.5 -229.5t-263.5 -86.5q-106 0 -188.5 38.5t-128.5 107.5v-370h-132zM211 296q0 -91 73.5 -145t201.5 -54q120 0 189.5 54t69.5 145q0 90 -70 144t-189 54q-127 0 -201 -53.5t-74 -144.5z
" />
    <glyph glyph-name="q" unicode="q" horiz-adv-x="957" 
d="M878 591v-822h-131v356q-46 -69 -128.5 -107t-188.5 -38q-165 0 -263.5 86t-98.5 229t98.5 229.5t263.5 86.5q106 0 188.5 -38.5t128.5 -107.5v126h131zM213 295q0 -90 70 -144t189 -54q127 0 201 53.5t74 144.5t-73.5 145t-201.5 54q-120 0 -189.5 -54t-69.5 -145z" />
    <glyph glyph-name="r" unicode="r" horiz-adv-x="688" 
d="M79 0v591h132v-116q59 74 123.5 105t143.5 31q83 0 156 -26v-115q-80 25 -161 25q-144 0 -262 -125v-370h-132z" />
    <glyph glyph-name="s" unicode="s" horiz-adv-x="894" 
d="M462 -20q-390 0 -400 209h145q13 -98 268 -98q230 0 230 76q0 36 -51.5 54t-179.5 29l-59 5q-177 15 -255 57t-78 122q0 177 355 177q349 0 373 -188h-145q-10 42 -63.5 59.5t-170.5 17.5q-222 0 -222 -64q0 -32 49 -47.5t178 -25.5l66 -5q177 -14 253.5 -56t76.5 -128
q0 -194 -370 -194z" />
    <glyph glyph-name="t" unicode="t" horiz-adv-x="692" 
d="M457 -20q-125 0 -185.5 45.5t-60.5 159.5v306h-152v100h152v134l131 40v-174h287v-100h-287v-264q0 -79 33 -108t109 -29q54 0 145 18v-108q-104 -20 -172 -20z" />
    <glyph glyph-name="u" unicode="u" horiz-adv-x="947" 
d="M869 591v-591h-140v128q-118 -148 -345 -148q-151 0 -228.5 71.5t-77.5 238.5v301h140v-254q0 -129 53.5 -184.5t175.5 -55.5q127 0 204.5 65.5t77.5 179.5v249h140z" />
    <glyph glyph-name="v" unicode="v" horiz-adv-x="956" 
d="M385 0l-321 591h148l267 -509l266 509h147l-320 -591h-187z" />
    <glyph glyph-name="w" unicode="w" horiz-adv-x="1504" 
d="M335 0l-271 591h144l219 -493l240 493h170l240 -492l219 492h144l-271 -591h-181l-236 478l-236 -478h-181z" />
    <glyph glyph-name="x" unicode="x" horiz-adv-x="934" 
d="M64 0l313 295l-313 296h173l230 -230l230 230h173l-313 -296l313 -295h-173l-230 229l-230 -229h-173z" />
    <glyph glyph-name="y" unicode="y" horiz-adv-x="946" 
d="M272 -260q-73 0 -177 26v101q111 -22 160 -22q46 0 75.5 17t47.5 44t53 94h-58l-309 591h143l266 -510l266 510h143l-313 -601q-33 -65 -59.5 -105.5t-61.5 -76.5t-78 -52t-98 -16z" />
    <glyph glyph-name="z" unicode="z" horiz-adv-x="821" 
d="M79 0v100l496 391h-496v100h663v-100l-496 -391h496v-100h-663z" />
    <glyph glyph-name="braceleft" unicode="{" horiz-adv-x="636" 
d="M502 -198q-160 0 -229.5 57t-52.5 193l9 76q8 65 -15.5 90.5t-76.5 25.5h-38v114h38q53 0 76.5 25.5t15.5 90.5l-9 76q-17 136 52.5 193t229.5 57h54v-105h-53q-168 0 -149 -163l10 -76q10 -76 -23 -112t-92 -36v-14q59 0 92 -36t23 -112l-10 -75q-19 -164 149 -164h53
v-105h-54z" />
    <glyph glyph-name="bar" unicode="|" horiz-adv-x="280" 
d="M79 -150v950h122v-950h-122z" />
    <glyph glyph-name="braceright" unicode="}" horiz-adv-x="636" 
d="M134 798q160 0 229.5 -57t52.5 -193l-9 -76q-8 -65 15.5 -90.5t76.5 -25.5h38v-114h-38q-53 0 -76.5 -25.5t-15.5 -90.5l9 -76q17 -136 -52.5 -193t-229.5 -57h-54v105h53q168 0 149 163l-10 76q-10 76 23 112t92 36v14q-59 0 -92 36t-23 112l10 75q19 164 -149 164h-53
v105h54z" />
    <glyph glyph-name="asciitilde" unicode="~" horiz-adv-x="912" 
d="M79 200q0 56 9 103t30 88.5t60 65t93 23.5q44 0 84 -17t69 -41t57 -48.5t61 -41.5t68 -17q63 0 88 41t25 124h110q0 -56 -9 -102.5t-29.5 -88.5t-59.5 -65.5t-93 -23.5t-103 26t-79.5 56.5t-72.5 56.5t-85 26q-63 0 -88 -41t-25 -124h-110z" />
    <glyph glyph-name="exclamdown" unicode="&#xa1;" horiz-adv-x="314" 
d="M225 370l6 -490h-147l5 490h136zM80 471v120h154v-120h-154z" />
    <glyph glyph-name="cent" unicode="&#xa2;" horiz-adv-x="930" 
d="M411 -100v130q-160 14 -253.5 98t-93.5 215q0 132 93.5 216t253.5 98v143h121v-144q132 -12 220.5 -73.5t108.5 -155.5h-135q-16 48 -68 80.5t-126 42.5v-413q74 10 126 42.5t68 80.5h135q-20 -94 -108.5 -155.5t-220.5 -73.5v-131h-121zM195 343q0 -83 58 -138t158 -68
v413q-100 -13 -158 -68t-58 -139z" />
    <glyph glyph-name="sterling" unicode="&#xa3;" horiz-adv-x="974" 
d="M78 111q70 50 101.5 89t39.5 83h-141v96h136q-17 90 -17 119q0 116 91.5 173t281.5 57q144 0 329 -30v-111q-175 30 -302 30q-138 0 -197 -34t-59 -111q0 -29 11 -93h441v-96h-437q-8 -63 -53.5 -104.5t-134.5 -67.5h731v-111h-821v111z" />
    <glyph glyph-name="currency" unicode="&#xa4;" horiz-adv-x="977" 
d="M142 -74l-52 51l125 124q-132 87 -132 244q0 158 132 244l-125 124l52 51l141 -139q91 36 206 36q114 0 205 -36l141 139l52 -51l-125 -124q132 -86 132 -244q0 -157 -132 -244l125 -124l-52 -51l-141 140q-92 -36 -205 -36q-114 0 -206 36zM215 345q0 -95 75.5 -152.5
t198.5 -57.5q122 0 197.5 57.5t75.5 152.5q0 96 -75.5 153.5t-197.5 57.5q-123 0 -198.5 -57.5t-75.5 -153.5z" />
    <glyph glyph-name="yen" unicode="&#xa5;" horiz-adv-x="1074" 
d="M470 0v110h-330v85h330v44l-3 3h-327v86h254l-325 381h168l300 -359l301 359h166l-324 -381h252v-86h-325l-3 -3v-44h328v-85h-328v-110h-134z" />
    <glyph glyph-name="brokenbar" unicode="&#xa6;" horiz-adv-x="280" 
d="M79 430v370h122v-370h-122zM79 -150v370h122v-370h-122z" />
    <glyph glyph-name="section" unicode="&#xa7;" horiz-adv-x="876" 
d="M456 -114q-172 0 -264.5 44.5t-104.5 146.5h129q7 -58 63.5 -82.5t178.5 -24.5q115 0 164 22.5t49 70.5q0 42 -48.5 63t-178.5 36l-37 4q-182 22 -259.5 57.5t-77.5 113.5q0 63 45 98t133 48q-89 21 -130.5 58.5t-41.5 98.5q0 98 87.5 139.5t260.5 41.5q171 0 262 -44
t103 -146h-129q-8 58 -63.5 82t-175.5 24q-117 0 -167 -22.5t-50 -70.5q0 -38 51 -58.5t189 -37.5l34 -4q178 -21 253 -56t75 -115q0 -63 -45 -97.5t-136 -46.5q91 -21 133 -59t42 -103q0 -98 -86.5 -139.5t-257.5 -41.5zM193 365q0 -45 51.5 -68.5t179.5 -37.5l34 -4h4
q115 -4 167.5 18.5t52.5 70.5q0 47 -53.5 71.5t-184.5 38.5l-26 3h-4q-116 4 -168.5 -19t-52.5 -73z" />
    <glyph glyph-name="dieresis" unicode="&#xa8;" horiz-adv-x="498" 
d="M334 689v80h114v-80h-114zM100 689v80h114v-80h-114z" />
    <glyph glyph-name="copyright" unicode="&#xa9;" horiz-adv-x="1035" 
d="M517 -21q-203 0 -325.5 102t-122.5 274t122 272.5t326 100.5q205 0 326.5 -100.5t121.5 -272.5q0 -173 -121.5 -274.5t-326.5 -101.5zM145 355q0 -138 100.5 -222.5t271.5 -84.5t272 84.5t101 222.5q0 136 -101 220t-272 84t-271.5 -84t-100.5 -220zM278 354q0 88 64 138
t184 50q101 0 160 -39.5t72 -107.5h-79q-23 79 -158 79q-75 0 -121 -29.5t-46 -90.5q0 -62 46 -91.5t121 -29.5q135 0 158 79h79q-13 -68 -72 -107.5t-160 -39.5q-120 0 -184 50t-64 139z" />
    <glyph glyph-name="guillemotleft" unicode="&#xab;" horiz-adv-x="914" 
d="M673 0l-260 295l260 296h161l-260 -295l260 -296h-161zM79 295l260 296h161l-260 -295l260 -296h-161z" />
    <glyph glyph-name="logicalnot" unicode="&#xac;" horiz-adv-x="925" 
d="M724 69v237h-645v99h767v-336h-122z" />
    <glyph glyph-name="registered" unicode="&#xae;" horiz-adv-x="1002" 
d="M496 204q-205 0 -321.5 87t-116.5 240q0 151 116.5 237.5t321.5 86.5q196 0 306.5 -86.5t110.5 -237.5q0 -153 -110.5 -240t-306.5 -87zM134 531q0 -121 96 -189t266 -68q161 0 251.5 68t90.5 189q0 119 -90.5 186.5t-251.5 67.5q-170 0 -266 -67.5t-96 -186.5zM303 359
v350h260q72 0 109.5 -29.5t37.5 -84.5q0 -44 -22 -71t-57 -38l71 -127h-92l-59 112h-172v-112h-76zM379 533h175q78 0 78 58q0 55 -78 55h-175v-113z" />
    <glyph glyph-name="macron" unicode="&#xaf;" horiz-adv-x="577" 
d="M100 706v63h427v-63h-427z" />
    <glyph glyph-name="degree" unicode="&#xb0;" horiz-adv-x="679" 
d="M339 271q-73 0 -126 19.5t-81 53.5t-40.5 72.5t-12.5 84.5q0 45 12.5 83.5t40.5 73t81 54t126 19.5t126 -19.5t81.5 -54t41 -73t12.5 -83.5q0 -98 -60.5 -164t-200.5 -66zM183 501q0 -68 41 -107.5t115 -39.5q75 0 116 39.5t41 107.5t-40.5 107t-116.5 39q-74 0 -115 -39
t-41 -107z" />
    <glyph glyph-name="plusminus" unicode="&#xb1;" horiz-adv-x="917" 
d="M398 235v185h-319v100h319v185h121v-185h318v-100h-318v-185h-121zM79 50v100h758v-100h-758z" />
    <glyph glyph-name="acute" unicode="&#xb4;" horiz-adv-x="518" 
d="M100 677v73l368 80v-73z" />
    <glyph glyph-name="paragraph" unicode="&#xb6;" horiz-adv-x="831" 
d="M393 370q-173 0 -243.5 48t-70.5 167t70.5 167t243.5 48h121v-950h-121v520zM631 -150v950h121v-950h-121z" />
    <glyph glyph-name="periodcentered" unicode="&#xb7;" horiz-adv-x="315" 
d="M74 255v123h157v-123h-157z" />
    <glyph glyph-name="cedilla" unicode="&#xb8;" horiz-adv-x="437" 
d="M100 -178q199 -31 199 40q0 37 -48 39q-30 1 -64 -18l-52 12l24 105h67l-14 -61q34 12 76 12q44 0 71.5 -21.5t27.5 -65.5q0 -49 -42.5 -77t-106 -31.5t-138.5 4.5v62z" />
    <glyph glyph-name="guillemotright" unicode="&#xbb;" horiz-adv-x="912" 
d="M239 591l260 -295l-260 -296h-161l260 296l-260 295h161zM412 0l260 296l-260 295h161l260 -295l-260 -296h-161z" />
    <glyph glyph-name="questiondown" unicode="&#xbf;" horiz-adv-x="851" 
d="M528 377q0 -67 -32 -110.5t-78 -63.5t-92 -36t-78 -41t-32 -65q0 -104 193 -104q119 0 178 40.5t59 135.5h129q-6 -269 -366 -269q-331 0 -331 183q0 49 24 83t59.5 50.5t77 34t77 33.5t59.5 49t24 80h129zM385 468v123h157v-123h-157z" />
    <glyph glyph-name="Agrave" unicode="&#xc0;" horiz-adv-x="1093" 
d="M69 0l393 709h170l391 -709h-143l-87 162h-493l-87 -162h-144zM354 262h385l-192 359zM362 877v73l368 -80v-73z" />
    <glyph glyph-name="Aacute" unicode="&#xc1;" horiz-adv-x="1093" 
d="M69 0l393 709h170l391 -709h-143l-87 162h-493l-87 -162h-144zM354 262h385l-192 359zM362 797v73l368 80v-73z" />
    <glyph glyph-name="Acircumflex" unicode="&#xc2;" horiz-adv-x="1093" 
d="M69 0l393 709h170l391 -709h-143l-87 162h-493l-87 -162h-144zM354 262h385l-192 359zM360 790v74l186 80l186 -80v-74l-186 78z" />
    <glyph glyph-name="Atilde" unicode="&#xc3;" horiz-adv-x="1093" 
d="M69 0l393 709h170l391 -709h-143l-87 162h-493l-87 -162h-144zM295 784q0 82 39.5 128t108.5 46q33 0 58 -11t40.5 -26t29.5 -30.5t32.5 -26.5t42.5 -11q37 0 58 26.5t21 73.5h74q0 -82 -39 -127.5t-109 -45.5q-33 0 -58.5 10.5t-41 26t-29.5 31t-32.5 26t-42.5 10.5
q-36 0 -57 -26.5t-21 -73.5h-74zM354 262h385l-192 359z" />
    <glyph glyph-name="Adieresis" unicode="&#xc4;" horiz-adv-x="1093" 
d="M69 0l393 709h170l391 -709h-143l-87 162h-493l-87 -162h-144zM354 262h385l-192 359zM372 809v80h114v-80h-114zM606 809v80h114v-80h-114z" />
    <glyph glyph-name="Aring" unicode="&#xc5;" horiz-adv-x="1093" 
d="M69 0l393 709h170l391 -709h-143l-87 162h-493l-87 -162h-144zM348 891q0 116 199 116q198 0 198 -116t-198 -116q-199 0 -199 116zM354 262h385l-192 359zM421 891q0 -62 126 -62q124 0 124 62t-124 62q-126 0 -126 -62z" />
    <glyph glyph-name="AE" unicode="&#xc6;" horiz-adv-x="1449" 
d="M69 0l339 709h967v-103h-564v-203h544v-96h-544v-203h564v-104h-698v166h-382l-80 -166h-146zM344 266h333v339h-169z" />
    <glyph glyph-name="Ccedilla" unicode="&#xc7;" horiz-adv-x="1041" 
d="M419 -188q199 -31 199 40q0 37 -48 39q-30 1 -64 -18l-52 12l22 97q-183 14 -295 115t-112 258q0 168 128.5 270t333.5 102q180 0 302.5 -81.5t138.5 -205.5h-141q-14 69 -96 121.5t-204 52.5q-146 0 -234.5 -72.5t-88.5 -186.5q0 -115 88.5 -188t234.5 -73
q122 0 204 53.5t96 122.5h141q-15 -123 -134.5 -205t-294.5 -85l-12 -51q34 12 76 12q44 0 71.5 -21.5t27.5 -65.5q0 -49 -42.5 -77t-106 -31.5t-138.5 4.5v62z" />
    <glyph glyph-name="Egrave" unicode="&#xc8;" horiz-adv-x="851" 
d="M79 0v709h698v-103h-564v-203h544v-96h-544v-203h564v-104h-698zM258 876v73l368 -80v-73z" />
    <glyph glyph-name="Eacute" unicode="&#xc9;" horiz-adv-x="851" 
d="M79 0v709h698v-103h-564v-203h544v-96h-544v-203h564v-104h-698zM258 796v73l368 80v-73z" />
    <glyph glyph-name="Ecircumflex" unicode="&#xca;" horiz-adv-x="851" 
d="M79 0v709h698v-103h-564v-203h544v-96h-544v-203h564v-104h-698zM256 789v74l186 80l186 -80v-74l-186 78z" />
    <glyph glyph-name="Edieresis" unicode="&#xcb;" horiz-adv-x="851" 
d="M79 0v709h698v-103h-564v-203h544v-96h-544v-203h564v-104h-698zM268 808v80h114v-80h-114zM502 808v80h114v-80h-114z" />
    <glyph glyph-name="Igrave" unicode="&#xcc;" horiz-adv-x="292" 
d="M79 0v709h134v-709h-134zM-8 876v73l309 -80v-73z" />
    <glyph glyph-name="Iacute" unicode="&#xcd;" horiz-adv-x="292" 
d="M79 0v709h134v-709h-134zM-38 796v73l368 80v-73z" />
    <glyph glyph-name="Icircumflex" unicode="&#xce;" horiz-adv-x="292" 
d="M79 0v709h134v-709h-134zM-10 789v74l156 80l157 -80v-74l-157 78z" />
    <glyph glyph-name="Idieresis" unicode="&#xcf;" horiz-adv-x="292" 
d="M79 0v709h134v-709h-134zM0 808v80h96v-80h-96zM197 808v80h96v-80h-96z" />
    <glyph glyph-name="Eth" unicode="&#xd0;" horiz-adv-x="984" 
d="M79 0v320h-98v60h98v329h462q161 0 267.5 -100.5t106.5 -253.5t-106.5 -254t-267.5 -101h-462zM213 114h276q131 0 209.5 65.5t78.5 175.5q0 109 -78.5 174.5t-209.5 65.5h-276v-215h203v-60h-203v-206z" />
    <glyph glyph-name="Ntilde" unicode="&#xd1;" horiz-adv-x="1025" 
d="M79 0v709h197l536 -588v588h133v-709h-196l-536 588v-588h-134zM261 783q0 82 39.5 128t108.5 46q33 0 58 -11t40.5 -26.5t29.5 -30.5t32.5 -26t42.5 -11q37 0 58 26.5t21 73.5h74q0 -82 -39 -127.5t-109 -45.5q-40 0 -70 16.5t-44.5 35.5t-37.5 35.5t-52 16.5
q-36 0 -57 -26.5t-21 -73.5h-74z" />
    <glyph glyph-name="Ograve" unicode="&#xd2;" horiz-adv-x="1078" 
d="M539 -20q-215 0 -342.5 102t-127.5 273q0 170 127.5 271t342.5 101q214 0 341.5 -101.5t127.5 -270.5q0 -171 -127.5 -273t-341.5 -102zM208 355q0 -118 89 -189.5t242 -71.5q152 0 241.5 72t89.5 189q0 116 -89 187.5t-242 71.5t-242 -71.5t-89 -187.5zM354 876v73
l368 -80v-73z" />
    <glyph glyph-name="Oacute" unicode="&#xd3;" horiz-adv-x="1078" 
d="M539 -20q-215 0 -342.5 102t-127.5 273q0 170 127.5 271t342.5 101q214 0 341.5 -101.5t127.5 -270.5q0 -171 -127.5 -273t-341.5 -102zM208 355q0 -118 89 -189.5t242 -71.5q152 0 241.5 72t89.5 189q0 116 -89 187.5t-242 71.5t-242 -71.5t-89 -187.5zM354 796v73
l368 80v-73z" />
    <glyph glyph-name="Ocircumflex" unicode="&#xd4;" horiz-adv-x="1078" 
d="M539 -20q-215 0 -342.5 102t-127.5 273q0 170 127.5 271t342.5 101q214 0 341.5 -101.5t127.5 -270.5q0 -171 -127.5 -273t-341.5 -102zM208 355q0 -118 89 -189.5t242 -71.5q152 0 241.5 72t89.5 189q0 116 -89 187.5t-242 71.5t-242 -71.5t-89 -187.5zM353 789v74
l186 80l186 -80v-74l-186 78z" />
    <glyph glyph-name="Otilde" unicode="&#xd5;" horiz-adv-x="1078" 
d="M539 -20q-215 0 -342.5 102t-127.5 273q0 170 127.5 271t342.5 101q214 0 341.5 -101.5t127.5 -270.5q0 -171 -127.5 -273t-341.5 -102zM208 355q0 -118 89 -189.5t242 -71.5q152 0 241.5 72t89.5 189q0 116 -89 187.5t-242 71.5t-242 -71.5t-89 -187.5zM287 783
q0 82 39.5 128t108.5 46q33 0 58 -11t40.5 -26.5t29.5 -30.5t32.5 -26t42.5 -11q37 0 58 26.5t21 73.5h74q0 -82 -39 -127.5t-109 -45.5q-40 0 -70 16.5t-44.5 35.5t-37.5 35.5t-52 16.5q-36 0 -57 -26.5t-21 -73.5h-74z" />
    <glyph glyph-name="Odieresis" unicode="&#xd6;" horiz-adv-x="1078" 
d="M539 -20q-215 0 -342.5 102t-127.5 273q0 170 127.5 271t342.5 101q214 0 341.5 -101.5t127.5 -270.5q0 -171 -127.5 -273t-341.5 -102zM208 355q0 -118 89 -189.5t242 -71.5q152 0 241.5 72t89.5 189q0 116 -89 187.5t-242 71.5t-242 -71.5t-89 -187.5zM365 808v80h114
v-80h-114zM599 808v80h114v-80h-114z" />
    <glyph glyph-name="multiply" unicode="&#xd7;" horiz-adv-x="867" 
d="M81 487l49 86l303 -175l303 175l50 -86l-253 -146l254 -147l-50 -86l-303 175l-304 -175l-50 86l254 147z" />
    <glyph glyph-name="Oslash" unicode="&#xd8;" horiz-adv-x="1078" 
d="M539 -20q-63 0 -118 9l-35 -78h-90l43 97q-128 40 -199 130.5t-71 216.5q0 170 127.5 271t342.5 101q62 0 116 -9l35 79h90l-43 -98q128 -39 199.5 -129t71.5 -215q0 -171 -127.5 -273t-341.5 -102zM208 355q0 -84 47 -146.5t133 -91.5l219 493q-29 4 -68 4
q-153 0 -242 -71.5t-89 -187.5zM469 98q29 -4 70 -4q152 0 241.5 72t89.5 189q0 83 -47.5 145.5t-133.5 91.5z" />
    <glyph glyph-name="Ugrave" unicode="&#xd9;" horiz-adv-x="986" 
d="M493 -20q-414 0 -414 366v363h134v-359q0 -256 280 -256q279 0 279 256v359h134v-363q0 -366 -413 -366zM309 876v73l368 -80v-73z" />
    <glyph glyph-name="Uacute" unicode="&#xda;" horiz-adv-x="986" 
d="M493 -20q-414 0 -414 366v363h134v-359q0 -256 280 -256q279 0 279 256v359h134v-363q0 -366 -413 -366zM309 796v73l368 80v-73z" />
    <glyph glyph-name="Ucircumflex" unicode="&#xdb;" horiz-adv-x="986" 
d="M493 -20q-414 0 -414 366v363h134v-359q0 -256 280 -256q279 0 279 256v359h134v-363q0 -366 -413 -366zM307 789v74l186 80l186 -80v-74l-186 78z" />
    <glyph glyph-name="Udieresis" unicode="&#xdc;" horiz-adv-x="986" 
d="M493 -20q-414 0 -414 366v363h134v-359q0 -256 280 -256q279 0 279 256v359h134v-363q0 -366 -413 -366zM319 808v80h114v-80h-114zM553 808v80h114v-80h-114z" />
    <glyph glyph-name="Yacute" unicode="&#xdd;" horiz-adv-x="1074" 
d="M470 0v239l-401 470h168l300 -359l301 359h166l-400 -470v-239h-134zM353 796v73l368 80v-73z" />
    <glyph glyph-name="Thorn" unicode="&#xde;" horiz-adv-x="933" 
d="M79 0v709h134v-100h373q131 0 204 -66t73 -184t-73 -184t-204 -66h-373v-109h-134zM213 223h345q167 0 167 136q0 74 -43.5 105t-123.5 31h-345v-272z" />
    <glyph glyph-name="germandbls" unicode="&#xdf;" horiz-adv-x="980" 
d="M78 475q0 167 104.5 254.5t308.5 87.5q163 0 261 -56.5t98 -157.5q0 -63 -41 -109.5t-112 -67.5q215 -28 215 -192q0 -234 -426 -234h-92v111h107q130 0 198 35t68 102q0 60 -57 85t-187 25h-130v112h118q194 0 194 107q0 60 -62.5 94t-161.5 34q-129 0 -196.5 -56.5
t-67.5 -162.5v-486h-139v475z" />
    <glyph glyph-name="agrave" unicode="&#xe0;" horiz-adv-x="948" 
d="M731 356q0 79 -54.5 108.5t-173.5 29.5q-117 0 -349 -61l-20 123q209 55 388 55q183 0 265.5 -64.5t82.5 -209.5v-337h-139v72q-173 -93 -364 -93q-136 0 -208.5 51.5t-72.5 147.5q0 101 85.5 154.5t245.5 53.5q143 0 314 -45v15zM231 187q0 -111 169 -111q144 0 331 89
v78q-103 25 -167 34.5t-143 9.5q-99 0 -144.5 -23t-45.5 -77zM302 758v73l368 -80v-73z" />
    <glyph glyph-name="aacute" unicode="&#xe1;" horiz-adv-x="948" 
d="M731 356q0 79 -54.5 108.5t-173.5 29.5q-117 0 -349 -61l-20 123q209 55 388 55q183 0 265.5 -64.5t82.5 -209.5v-337h-139v72q-173 -93 -364 -93q-136 0 -208.5 51.5t-72.5 147.5q0 101 85.5 154.5t245.5 53.5q143 0 314 -45v15zM231 187q0 -111 169 -111q144 0 331 89
v78q-103 25 -167 34.5t-143 9.5q-99 0 -144.5 -23t-45.5 -77zM302 678v73l368 80v-73z" />
    <glyph glyph-name="acircumflex" unicode="&#xe2;" horiz-adv-x="948" 
d="M731 356q0 79 -54.5 108.5t-173.5 29.5q-117 0 -349 -61l-20 123q209 55 388 55q183 0 265.5 -64.5t82.5 -209.5v-337h-139v72q-173 -93 -364 -93q-136 0 -208.5 51.5t-72.5 147.5q0 101 85.5 154.5t245.5 53.5q143 0 314 -45v15zM231 187q0 -111 169 -111q144 0 331 89
v78q-103 25 -167 34.5t-143 9.5q-99 0 -144.5 -23t-45.5 -77zM301 671v74l186 80l186 -80v-74l-186 78z" />
    <glyph glyph-name="atilde" unicode="&#xe3;" horiz-adv-x="948" 
d="M731 356q0 79 -54.5 108.5t-173.5 29.5q-117 0 -349 -61l-20 123q209 55 388 55q183 0 265.5 -64.5t82.5 -209.5v-337h-139v72q-173 -93 -364 -93q-136 0 -208.5 51.5t-72.5 147.5q0 101 85.5 154.5t245.5 53.5q143 0 314 -45v15zM231 187q0 -111 169 -111q144 0 331 89
v78q-103 25 -167 34.5t-143 9.5q-99 0 -144.5 -23t-45.5 -77zM235 665q0 82 39.5 128t108.5 46q33 0 58 -11t40.5 -26.5t29.5 -30.5t32.5 -26t42.5 -11q37 0 58 26.5t21 73.5h74q0 -82 -39 -127.5t-109 -45.5q-40 0 -70 16.5t-44.5 35.5t-37.5 35.5t-52 16.5
q-36 0 -57 -26.5t-21 -73.5h-74z" />
    <glyph glyph-name="adieresis" unicode="&#xe4;" horiz-adv-x="948" 
d="M731 356q0 79 -54.5 108.5t-173.5 29.5q-117 0 -349 -61l-20 123q209 55 388 55q183 0 265.5 -64.5t82.5 -209.5v-337h-139v72q-173 -93 -364 -93q-136 0 -208.5 51.5t-72.5 147.5q0 101 85.5 154.5t245.5 53.5q143 0 314 -45v15zM231 187q0 -111 169 -111q144 0 331 89
v78q-103 25 -167 34.5t-143 9.5q-99 0 -144.5 -23t-45.5 -77zM312 690v80h114v-80h-114zM546 690v80h114v-80h-114z" />
    <glyph glyph-name="aring" unicode="&#xe5;" horiz-adv-x="948" 
d="M731 356q0 79 -54.5 108.5t-173.5 29.5q-117 0 -349 -61l-20 123q209 55 388 55q183 0 265.5 -64.5t82.5 -209.5v-337h-139v72q-173 -93 -364 -93q-136 0 -208.5 51.5t-72.5 147.5q0 101 85.5 154.5t245.5 53.5q143 0 314 -45v15zM231 187q0 -111 169 -111q144 0 331 89
v78q-103 25 -167 34.5t-143 9.5q-99 0 -144.5 -23t-45.5 -77zM288 772q0 116 199 116q198 0 198 -116t-198 -116q-199 0 -199 116zM361 772q0 -62 126 -62q124 0 124 62t-124 62q-126 0 -126 -62z" />
    <glyph glyph-name="ae" unicode="&#xe6;" horiz-adv-x="1544" 
d="M349 -20q-139 0 -212 46.5t-73 132.5q0 100 88.5 143t291.5 43h221q0 78 -55.5 119.5t-161.5 41.5q-117 0 -294 -56l-37 89q161 66 332 66q212 0 294 -114q109 120 334 120q189 0 294 -92.5t105 -271.5h-661q15 -79 85 -120t188 -41q96 0 159 28.5t83 79.5h137
q-27 -102 -125 -158t-258 -56q-259 0 -362 145q-56 -70 -152.5 -107.5t-220.5 -37.5zM200 177q0 -106 168 -106q110 0 186.5 38t110.5 107v54l-207 5q-148 4 -203 -18t-55 -80zM817 350h516q-35 156 -255 156q-226 0 -261 -156z" />
    <glyph glyph-name="ccedilla" unicode="&#xe7;" horiz-adv-x="925" 
d="M373 -183q199 -31 199 40q0 37 -48 39q-30 1 -64 -18l-52 12l21 91q-168 10 -266.5 94.5t-98.5 219.5q0 144 110.5 230t295.5 86q154 0 261 -63.5t130 -168.5h-135q-19 58 -89 92.5t-167 34.5q-125 0 -200 -57.5t-75 -153.5q0 -95 75 -152.5t200 -57.5q97 0 167 34.5
t89 92.5h135q-22 -101 -121 -163.5t-244 -68.5l-11 -46q34 12 76 12q44 0 71.5 -21.5t27.5 -65.5q0 -49 -42.5 -77t-106 -31.5t-138.5 4.5v62z" />
    <glyph glyph-name="egrave" unicode="&#xe8;" horiz-adv-x="928" 
d="M474 -20q-193 0 -302.5 83.5t-109.5 231.5q0 147 109.5 231.5t295.5 84.5q189 0 294 -92.5t105 -271.5h-661q15 -79 85 -120t188 -41q96 0 159 28.5t83 79.5h137q-27 -102 -125 -158t-258 -56zM207 350h516q-35 156 -255 156q-226 0 -261 -156zM274 747v73l368 -80v-73z
" />
    <glyph glyph-name="eacute" unicode="&#xe9;" horiz-adv-x="928" 
d="M474 -20q-193 0 -302.5 83.5t-109.5 231.5q0 147 109.5 231.5t295.5 84.5q189 0 294 -92.5t105 -271.5h-661q15 -79 85 -120t188 -41q96 0 159 28.5t83 79.5h137q-27 -102 -125 -158t-258 -56zM207 350h516q-35 156 -255 156q-226 0 -261 -156zM274 667v73l368 80v-73z
" />
    <glyph glyph-name="ecircumflex" unicode="&#xea;" horiz-adv-x="928" 
d="M474 -20q-193 0 -302.5 83.5t-109.5 231.5q0 147 109.5 231.5t295.5 84.5q189 0 294 -92.5t105 -271.5h-661q15 -79 85 -120t188 -41q96 0 159 28.5t83 79.5h137q-27 -102 -125 -158t-258 -56zM207 350h516q-35 156 -255 156q-226 0 -261 -156zM272 660v74l186 80
l186 -80v-74l-186 78z" />
    <glyph glyph-name="edieresis" unicode="&#xeb;" horiz-adv-x="928" 
d="M474 -20q-193 0 -302.5 83.5t-109.5 231.5q0 147 109.5 231.5t295.5 84.5q189 0 294 -92.5t105 -271.5h-661q15 -79 85 -120t188 -41q96 0 159 28.5t83 79.5h137q-27 -102 -125 -158t-258 -56zM207 350h516q-35 156 -255 156q-226 0 -261 -156zM284 679v80h114v-80h-114z
M518 679v80h114v-80h-114z" />
    <glyph glyph-name="igrave" unicode="&#xec;" horiz-adv-x="290" 
d="M79 0v591h132v-591h-132zM-39 757v73l368 -80v-73z" />
    <glyph glyph-name="iacute" unicode="&#xed;" horiz-adv-x="290" 
d="M79 0v591h132v-591h-132zM-39 677v73l368 80v-73z" />
    <glyph glyph-name="icircumflex" unicode="&#xee;" horiz-adv-x="290" 
d="M79 0v591h132v-591h-132zM-40 670v74l186 80l186 -80v-74l-186 78z" />
    <glyph glyph-name="idieresis" unicode="&#xef;" horiz-adv-x="290" 
d="M79 0v591h132v-591h-132zM-29 689v80h114v-80h-114zM205 689v80h114v-80h-114z" />
    <glyph glyph-name="ntilde" unicode="&#xf1;" horiz-adv-x="947" 
d="M78 0v591h140v-128q118 148 345 148q151 0 228.5 -71.5t77.5 -238.5v-301h-140v254q0 129 -53.5 184.5t-175.5 55.5q-127 0 -204.5 -65.5t-77.5 -179.5v-249h-140zM225 654q0 82 39.5 128t108.5 46q33 0 58 -11t40.5 -26t29.5 -30.5t32.5 -26.5t42.5 -11q37 0 58 26.5
t21 73.5h74q0 -82 -39 -127.5t-109 -45.5q-33 0 -58.5 10.5t-41 26t-29.5 31t-32.5 26t-42.5 10.5q-36 0 -57 -26.5t-21 -73.5h-74z" />
    <glyph glyph-name="ograve" unicode="&#xf2;" horiz-adv-x="939" 
d="M470 -20q-183 0 -294.5 86t-111.5 229t111.5 229.5t294.5 86.5q182 0 293.5 -86.5t111.5 -229.5t-111.5 -229t-293.5 -86zM196 295q0 -95 75.5 -152.5t198.5 -57.5q122 0 197.5 57.5t75.5 152.5q0 96 -75.5 153.5t-197.5 57.5q-123 0 -198.5 -57.5t-75.5 -153.5zM286 757
v73l368 -80v-73z" />
    <glyph glyph-name="oacute" unicode="&#xf3;" horiz-adv-x="939" 
d="M470 -20q-183 0 -294.5 86t-111.5 229t111.5 229.5t294.5 86.5q182 0 293.5 -86.5t111.5 -229.5t-111.5 -229t-293.5 -86zM196 295q0 -95 75.5 -152.5t198.5 -57.5q122 0 197.5 57.5t75.5 152.5q0 96 -75.5 153.5t-197.5 57.5q-123 0 -198.5 -57.5t-75.5 -153.5zM286 677
v73l368 80v-73z" />
    <glyph glyph-name="ocircumflex" unicode="&#xf4;" horiz-adv-x="939" 
d="M470 -20q-183 0 -294.5 86t-111.5 229t111.5 229.5t294.5 86.5q182 0 293.5 -86.5t111.5 -229.5t-111.5 -229t-293.5 -86zM196 295q0 -95 75.5 -152.5t198.5 -57.5q122 0 197.5 57.5t75.5 152.5q0 96 -75.5 153.5t-197.5 57.5q-123 0 -198.5 -57.5t-75.5 -153.5zM284 670
v74l186 80l186 -80v-74l-186 78z" />
    <glyph glyph-name="otilde" unicode="&#xf5;" horiz-adv-x="939" 
d="M470 -20q-183 0 -294.5 86t-111.5 229t111.5 229.5t294.5 86.5q182 0 293.5 -86.5t111.5 -229.5t-111.5 -229t-293.5 -86zM196 295q0 -95 75.5 -152.5t198.5 -57.5q122 0 197.5 57.5t75.5 152.5q0 96 -75.5 153.5t-197.5 57.5q-123 0 -198.5 -57.5t-75.5 -153.5zM218 664
q0 82 39.5 128t108.5 46q33 0 58 -11t40.5 -26t29.5 -30.5t32.5 -26.5t42.5 -11q37 0 58 26.5t21 73.5h74q0 -82 -39 -127.5t-109 -45.5q-33 0 -58.5 10.5t-41 26t-29.5 31t-32.5 26t-42.5 10.5q-36 0 -57 -26.5t-21 -73.5h-74z" />
    <glyph glyph-name="odieresis" unicode="&#xf6;" horiz-adv-x="939" 
d="M470 -20q-183 0 -294.5 86t-111.5 229t111.5 229.5t294.5 86.5q182 0 293.5 -86.5t111.5 -229.5t-111.5 -229t-293.5 -86zM196 295q0 -95 75.5 -152.5t198.5 -57.5q122 0 197.5 57.5t75.5 152.5q0 96 -75.5 153.5t-197.5 57.5q-123 0 -198.5 -57.5t-75.5 -153.5zM296 689
v80h114v-80h-114zM530 689v80h114v-80h-114z" />
    <glyph glyph-name="divide" unicode="&#xf7;" horiz-adv-x="957" 
d="M99 290v100h758v-100h-758zM414 76v101h129v-101h-129zM414 510v102h129v-102h-129z" />
    <glyph glyph-name="oslash" unicode="&#xf8;" horiz-adv-x="939" 
d="M470 -20q-18 0 -54 2l-36 -122h-82l40 134q-127 28 -200.5 107.5t-73.5 193.5q0 143 111.5 229.5t294.5 86.5q18 0 52 -2l36 121h82l-40 -132q128 -28 201.5 -108t73.5 -195q0 -143 -111.5 -229t-293.5 -86zM196 295q0 -73 46.5 -125.5t126.5 -72.5l122 409h-21
q-123 0 -198.5 -57.5t-75.5 -153.5zM447 86q8 -1 23 -1q122 0 197.5 57.5t75.5 152.5q0 74 -46 126t-127 73z" />
    <glyph glyph-name="ugrave" unicode="&#xf9;" horiz-adv-x="947" 
d="M869 591v-591h-140v128q-118 -148 -345 -148q-151 0 -228.5 71.5t-77.5 238.5v301h140v-254q0 -129 53.5 -184.5t175.5 -55.5q127 0 204.5 65.5t77.5 179.5v249h140zM279 757v73l368 -80v-73z" />
    <glyph glyph-name="uacute" unicode="&#xfa;" horiz-adv-x="947" 
d="M869 591v-591h-140v128q-118 -148 -345 -148q-151 0 -228.5 71.5t-77.5 238.5v301h140v-254q0 -129 53.5 -184.5t175.5 -55.5q127 0 204.5 65.5t77.5 179.5v249h140zM279 677v73l368 80v-73z" />
    <glyph glyph-name="ucircumflex" unicode="&#xfb;" horiz-adv-x="947" 
d="M869 591v-591h-140v128q-118 -148 -345 -148q-151 0 -228.5 71.5t-77.5 238.5v301h140v-254q0 -129 53.5 -184.5t175.5 -55.5q127 0 204.5 65.5t77.5 179.5v249h140zM277 670v74l186 80l186 -80v-74l-186 78z" />
    <glyph glyph-name="udieresis" unicode="&#xfc;" horiz-adv-x="947" 
d="M869 591v-591h-140v128q-118 -148 -345 -148q-151 0 -228.5 71.5t-77.5 238.5v301h140v-254q0 -129 53.5 -184.5t175.5 -55.5q127 0 204.5 65.5t77.5 179.5v249h140zM289 689v80h114v-80h-114zM523 689v80h114v-80h-114z" />
    <glyph glyph-name="yacute" unicode="&#xfd;" horiz-adv-x="946" 
d="M272 -260q-73 0 -177 26v101q111 -22 160 -22q46 0 75.5 17t47.5 44t53 94h-58l-309 591h143l266 -510l266 510h143l-313 -601q-33 -65 -59.5 -105.5t-61.5 -76.5t-78 -52t-98 -16zM287 677v73l368 80v-73z" />
    <glyph glyph-name="thorn" unicode="&#xfe;" horiz-adv-x="957" 
d="M79 -200v1000h132v-333q46 69 128 106.5t188 37.5q165 0 263.5 -86t98.5 -229t-98.5 -229.5t-263.5 -86.5q-105 0 -187.5 38t-128.5 106v-324h-132zM211 276q8 -83 81 -131t193 -48t189.5 54t69.5 145q0 90 -70 144t-189 54q-120 0 -193 -48t-81 -130v-40z" />
    <glyph glyph-name="ydieresis" unicode="&#xff;" horiz-adv-x="946" 
d="M272 -260q-73 0 -177 26v101q111 -22 160 -22q46 0 75.5 17t47.5 44t53 94h-58l-309 591h143l266 -510l266 510h143l-313 -601q-33 -65 -59.5 -105.5t-61.5 -76.5t-78 -52t-98 -16zM297 689v80h114v-80h-114zM531 689v80h114v-80h-114z" />
    <glyph glyph-name="Amacron" unicode="&#x100;" horiz-adv-x="1093" 
d="M69 0l393 709h170l391 -709h-143l-87 162h-493l-87 -162h-144zM332 826v63h427v-63h-427zM354 262h385l-192 359z" />
    <glyph glyph-name="amacron" unicode="&#x101;" horiz-adv-x="948" 
d="M731 356q0 79 -54.5 108.5t-173.5 29.5q-117 0 -349 -61l-20 123q209 55 388 55q183 0 265.5 -64.5t82.5 -209.5v-337h-139v72q-173 -93 -364 -93q-136 0 -208.5 51.5t-72.5 147.5q0 101 85.5 154.5t245.5 53.5q143 0 314 -45v15zM231 187q0 -111 169 -111q144 0 331 89
v78q-103 25 -167 34.5t-143 9.5q-99 0 -144.5 -23t-45.5 -77zM273 707v63h427v-63h-427z" />
    <glyph glyph-name="Abreve" unicode="&#x102;" horiz-adv-x="1093" 
d="M69 0l393 709h170l391 -709h-143l-87 162h-493l-87 -162h-144zM337 964h79q0 -54 32 -77t98 -23t98 23t32 77h79q0 -172 -209 -172t-209 172zM354 262h385l-192 359z" />
    <glyph glyph-name="abreve" unicode="&#x103;" horiz-adv-x="948" 
d="M731 356q0 79 -54.5 108.5t-173.5 29.5q-117 0 -349 -61l-20 123q209 55 388 55q183 0 265.5 -64.5t82.5 -209.5v-337h-139v72q-173 -93 -364 -93q-136 0 -208.5 51.5t-72.5 147.5q0 101 85.5 154.5t245.5 53.5q143 0 314 -45v15zM231 187q0 -111 169 -111q144 0 331 89
v78q-103 25 -167 34.5t-143 9.5q-99 0 -144.5 -23t-45.5 -77zM277 845h79q0 -54 32 -77t98 -23t98 23t32 77h79q0 -172 -209 -172t-209 172z" />
    <glyph glyph-name="Aogonek" unicode="&#x104;" horiz-adv-x="1093" 
d="M69 0l393 709h170l391 -709h-31q-38 -31 -52 -52t-14 -45q0 -37 34.5 -52.5t117.5 -15.5v-71q-131 0 -184.5 25.5t-53.5 86.5q0 67 78 124h-38l-87 162h-493l-87 -162h-144zM354 262h385l-192 359z" />
    <glyph glyph-name="aogonek" unicode="&#x105;" horiz-adv-x="954" 
d="M711 357q0 41 -14.5 71t-35.5 46.5t-53.5 26.5t-60 12.5t-63.5 2.5q-152 0 -353 -54l-20 93q206 56 395 56q172 0 254 -65t82 -207v-339h-63q-38 -31 -52 -52t-14 -45q0 -37 34.5 -52.5t117.5 -15.5v-71q-131 0 -184.5 25.5t-53.5 86.5q0 68 84 129v76
q-195 -101 -366 -101q-137 0 -209 51t-72 150q0 57 27 98.5t75 64t106 32.5t129 10q141 0 310 -46v17zM200 186q0 -115 185 -115q135 0 326 73v121q-196 44 -292 44q-219 0 -219 -123z" />
    <glyph glyph-name="Cacute" unicode="&#x106;" horiz-adv-x="1041" 
d="M531 -20q-205 0 -333.5 103t-128.5 272q0 168 128.5 270t333.5 102q180 0 302.5 -81.5t138.5 -205.5h-141q-14 69 -96 121.5t-204 52.5q-146 0 -234.5 -72.5t-88.5 -186.5q0 -115 88.5 -188t234.5 -73q122 0 204 53.5t96 122.5h141q-15 -126 -138 -208t-303 -82zM341 796
v73l368 80v-73z" />
    <glyph glyph-name="cacute" unicode="&#x107;" horiz-adv-x="925" 
d="M470 -20q-185 0 -295.5 86t-110.5 229q0 144 110.5 230t295.5 86q154 0 261 -63.5t130 -168.5h-135q-19 58 -89 92.5t-167 34.5q-125 0 -200 -57.5t-75 -153.5q0 -95 75 -152.5t200 -57.5q97 0 167 34.5t89 92.5h135q-22 -106 -129 -169t-262 -63zM285 677v73l368 80v-73
z" />
    <glyph glyph-name="Cdotaccent" unicode="&#x10a;" horiz-adv-x="1041" 
d="M531 -20q-205 0 -333.5 103t-128.5 272q0 168 128.5 270t333.5 102q180 0 302.5 -81.5t138.5 -205.5h-141q-14 69 -96 121.5t-204 52.5q-146 0 -234.5 -72.5t-88.5 -186.5q0 -115 88.5 -188t234.5 -73q122 0 204 53.5t96 122.5h141q-15 -126 -138 -208t-303 -82zM463 815
v73h125v-73h-125z" />
    <glyph glyph-name="cdotaccent" unicode="&#x10b;" horiz-adv-x="925" 
d="M470 -20q-185 0 -295.5 86t-110.5 229q0 144 110.5 230t295.5 86q154 0 261 -63.5t130 -168.5h-135q-19 58 -89 92.5t-167 34.5q-125 0 -200 -57.5t-75 -153.5q0 -95 75 -152.5t200 -57.5q97 0 167 34.5t89 92.5h135q-22 -106 -129 -169t-262 -63zM407 696v73h125v-73
h-125z" />
    <glyph glyph-name="Ccaron" unicode="&#x10c;" horiz-adv-x="1041" 
d="M531 -20q-205 0 -333.5 103t-128.5 272q0 168 128.5 270t333.5 102q180 0 302.5 -81.5t138.5 -205.5h-141q-14 69 -96 121.5t-204 52.5q-146 0 -234.5 -72.5t-88.5 -186.5q0 -115 88.5 -188t234.5 -73q122 0 204 53.5t96 122.5h141q-15 -126 -138 -208t-303 -82zM340 865
v74l186 -78l186 78v-74l-186 -80z" />
    <glyph glyph-name="ccaron" unicode="&#x10d;" horiz-adv-x="925" 
d="M470 -20q-185 0 -295.5 86t-110.5 229q0 144 110.5 230t295.5 86q154 0 261 -63.5t130 -168.5h-135q-19 58 -89 92.5t-167 34.5q-125 0 -200 -57.5t-75 -153.5q0 -95 75 -152.5t200 -57.5q97 0 167 34.5t89 92.5h135q-22 -106 -129 -169t-262 -63zM284 746v74l186 -78
l186 78v-74l-186 -80z" />
    <glyph glyph-name="Dcaron" unicode="&#x10e;" horiz-adv-x="984" 
d="M79 0v709h462q161 0 267.5 -100.5t106.5 -253.5t-106.5 -254t-267.5 -101h-462zM213 114h276q131 0 209.5 65.5t78.5 175.5q0 109 -78.5 174.5t-209.5 65.5h-276v-481zM226 856v74l186 -78l186 78v-74l-186 -80z" />
    <glyph glyph-name="dcaron" unicode="&#x10f;" horiz-adv-x="1180" 
d="M747 0v124q-46 -69 -128.5 -107t-188.5 -38q-165 0 -263.5 86t-98.5 229t98.5 229.5t263.5 86.5q106 0 188.5 -38.5t128.5 -107.5v336h131v-800h-131zM213 294q0 -90 70 -144t189 -54q127 0 201 53.5t74 144.5t-73.5 145t-201.5 54q-120 0 -189.5 -54t-69.5 -145z
M959 685v115h141v-102l-65 -162h-64l46 149h-58z" />
    <glyph glyph-name="Dcroat" unicode="&#x110;" horiz-adv-x="984" 
d="M79 0v320h-98v60h98v329h462q161 0 267.5 -100.5t106.5 -253.5t-106.5 -254t-267.5 -101h-462zM213 114h276q131 0 209.5 65.5t78.5 175.5q0 109 -78.5 174.5t-209.5 65.5h-276v-215h203v-60h-203v-206z" />
    <glyph glyph-name="dcroat" unicode="&#x111;" horiz-adv-x="957" 
d="M747 0v124q-46 -69 -128.5 -107t-188.5 -38q-165 0 -263.5 86t-98.5 229t98.5 229.5t263.5 86.5q106 0 188.5 -38.5t128.5 -107.5v195h-222v63h222v78h131v-78h99v-63h-99v-659h-131zM213 294q0 -90 70 -144t189 -54q127 0 201 53.5t74 144.5t-73.5 145t-201.5 54
q-120 0 -189.5 -54t-69.5 -145z" />
    <glyph glyph-name="Emacron" unicode="&#x112;" horiz-adv-x="851" 
d="M79 0v709h698v-103h-564v-203h544v-96h-544v-203h564v-104h-698zM228 825v63h427v-63h-427z" />
    <glyph glyph-name="emacron" unicode="&#x113;" horiz-adv-x="928" 
d="M474 -20q-193 0 -302.5 83.5t-109.5 231.5q0 147 109.5 231.5t295.5 84.5q189 0 294 -92.5t105 -271.5h-661q15 -79 85 -120t188 -41q96 0 159 28.5t83 79.5h137q-27 -102 -125 -158t-258 -56zM207 350h516q-35 156 -255 156q-226 0 -261 -156zM244 696v63h427v-63h-427z
" />
    <glyph glyph-name="Edotaccent" unicode="&#x116;" horiz-adv-x="851" 
d="M79 0v709h698v-103h-564v-203h544v-96h-544v-203h564v-104h-698zM380 815v73h125v-73h-125z" />
    <glyph glyph-name="edotaccent" unicode="&#x117;" horiz-adv-x="928" 
d="M474 -20q-193 0 -302.5 83.5t-109.5 231.5q0 147 109.5 231.5t295.5 84.5q189 0 294 -92.5t105 -271.5h-661q15 -79 85 -120t188 -41q96 0 159 28.5t83 79.5h137q-27 -102 -125 -158t-258 -56zM207 350h516q-35 156 -255 156q-226 0 -261 -156zM396 686v73h125v-73h-125z
" />
    <glyph glyph-name="Eogonek" unicode="&#x118;" horiz-adv-x="899" 
d="M79 0v709h698v-103h-564v-203h544v-96h-544v-203h564v-104h-1q-38 -31 -52 -52t-14 -45q0 -37 34.5 -52.5t117.5 -15.5v-71q-131 0 -184.5 25.5t-53.5 86.5q0 67 78 124h-623z" />
    <glyph glyph-name="eogonek" unicode="&#x119;" horiz-adv-x="928" 
d="M474 -20q-193 0 -302.5 83.5t-109.5 231.5q0 147 109.5 231.5t295.5 84.5q189 0 294 -92.5t105 -271.5h-661q15 -79 85 -120t188 -41q96 0 159 28.5t83 79.5h137q-22 -82 -89.5 -134.5t-176.5 -70.5q-53 -45 -53 -86q0 -37 34.5 -52.5t117.5 -15.5v-71
q-131 0 -184.5 25.5t-53.5 86.5q0 56 54 105q-10 -1 -32 -1zM207 350h516q-35 156 -255 156q-226 0 -261 -156z" />
    <glyph glyph-name="Ecaron" unicode="&#x11a;" horiz-adv-x="851" 
d="M79 0v709h698v-103h-564v-203h544v-96h-544v-203h564v-104h-698zM256 865v74l186 -78l186 78v-74l-186 -80z" />
    <glyph glyph-name="ecaron" unicode="&#x11b;" horiz-adv-x="928" 
d="M474 -20q-193 0 -302.5 83.5t-109.5 231.5q0 147 109.5 231.5t295.5 84.5q189 0 294 -92.5t105 -271.5h-661q15 -79 85 -120t188 -41q96 0 159 28.5t83 79.5h137q-27 -102 -125 -158t-258 -56zM207 350h516q-35 156 -255 156q-226 0 -261 -156zM272 736v74l186 -78
l186 78v-74l-186 -80z" />
    <glyph glyph-name="Gbreve" unicode="&#x11e;" horiz-adv-x="1046" 
d="M542 -20q-216 0 -345 101.5t-129 271.5q0 171 128 273t341 102q195 0 312 -78.5t130 -197.5h-151q-11 58 -85 106.5t-205 48.5q-156 0 -240 -74t-84 -180q0 -109 86.5 -180.5t249.5 -71.5q186 0 313 68v78h-343v121h459v-273q-176 -115 -437 -115zM323 954h79
q0 -54 32 -77t98 -23t98 23t32 77h79q0 -172 -209 -172t-209 172z" />
    <glyph glyph-name="gbreve" unicode="&#x11f;" horiz-adv-x="956" 
d="M497 -260q-158 0 -399 35l17 100q230 -30 359 -30q154 0 213 44.5t59 141.5v93q-46 -69 -128 -106.5t-188 -37.5q-165 0 -263.5 86t-98.5 229t98.5 229.5t263.5 86.5q106 0 188 -38t128 -106v124h131v-553q0 -149 -86 -223.5t-294 -74.5zM213 295q0 -90 70 -144t189 -54
q120 0 193 48t81 130v40q-8 83 -81 131t-193 48t-189.5 -54t-69.5 -145zM284 844h79q0 -54 32 -77t98 -23t98 23t32 77h79q0 -172 -209 -172t-209 172z" />
    <glyph glyph-name="Gdotaccent" unicode="&#x120;" horiz-adv-x="1046" 
d="M542 -20q-216 0 -345 101.5t-129 271.5q0 171 128 273t341 102q195 0 312 -78.5t130 -197.5h-151q-11 58 -85 106.5t-205 48.5q-156 0 -240 -74t-84 -180q0 -109 86.5 -180.5t249.5 -71.5q186 0 313 68v78h-343v121h459v-273q-176 -115 -437 -115zM470 806v73h125v-73
h-125z" />
    <glyph glyph-name="gdotaccent" unicode="&#x121;" horiz-adv-x="956" 
d="M497 -260q-158 0 -399 35l17 100q230 -30 359 -30q154 0 213 44.5t59 141.5v93q-46 -69 -128 -106.5t-188 -37.5q-165 0 -263.5 86t-98.5 229t98.5 229.5t263.5 86.5q106 0 188 -38t128 -106v124h131v-553q0 -149 -86 -223.5t-294 -74.5zM213 295q0 -90 70 -144t189 -54
q120 0 193 48t81 130v40q-8 83 -81 131t-193 48t-189.5 -54t-69.5 -145zM430 696v73h125v-73h-125z" />
    <glyph glyph-name="uni0122" unicode="&#x122;" horiz-adv-x="1046" 
d="M542 -20q-216 0 -345 101.5t-129 271.5q0 171 128 273t341 102q195 0 312 -78.5t130 -197.5h-151q-11 58 -85 106.5t-205 48.5q-156 0 -240 -74t-84 -180q0 -109 86.5 -180.5t249.5 -71.5q186 0 313 68v78h-343v121h459v-273q-176 -115 -437 -115zM463 -160v88h133v-88
l-73 -102h-58l48 102h-50z" />
    <glyph glyph-name="uni0123" unicode="&#x123;" horiz-adv-x="956" 
d="M497 -260q-158 0 -399 35l17 100q230 -30 359 -30q154 0 213 44.5t59 141.5v93q-46 -69 -128 -106.5t-188 -37.5q-165 0 -263.5 86t-98.5 229t98.5 229.5t263.5 86.5q106 0 188 -38t128 -106v124h131v-553q0 -149 -86 -223.5t-294 -74.5zM213 295q0 -90 70 -144t189 -54
q120 0 193 48t81 130v40q-8 83 -81 131t-193 48t-189.5 -54t-69.5 -145zM427 703v88l73 102h58l-49 -102h51v-88h-133z" />
    <glyph glyph-name="Hbar" unicode="&#x126;" horiz-adv-x="1037" 
d="M100 0v547h-76v63h76v99h134v-99h568v99h134v-99h77v-63h-77v-547h-134v298h-568v-298h-134zM234 411h568v136h-568v-136z" />
    <glyph glyph-name="hbar" unicode="&#x127;" horiz-adv-x="943" 
d="M79 0v658h-99v63h99v79h132v-79h221v-63h-221v-224q116 177 345 177q151 0 229.5 -72t78.5 -240v-299h-132v256q0 132 -55 188t-178 56q-129 0 -208.5 -67t-79.5 -183v-250h-132z" />
    <glyph glyph-name="Imacron" unicode="&#x12a;" horiz-adv-x="292" 
d="M79 0v709h134v-709h-134zM-67 825v63h427v-63h-427z" />
    <glyph glyph-name="imacron" unicode="&#x12b;" horiz-adv-x="290" 
d="M79 0v591h132v-591h-132zM-68 706v63h427v-63h-427z" />
    <glyph glyph-name="Iogonek" unicode="&#x12e;" horiz-adv-x="292" 
d="M79 0v709h134v-709q-38 -31 -52 -52t-14 -45q0 -37 34.5 -52.5t117.5 -15.5v-71q-131 0 -184.5 25.5t-53.5 86.5q0 67 78 124h-60z" />
    <glyph glyph-name="iogonek" unicode="&#x12f;" horiz-adv-x="290" 
d="M79 0v591h132v-591h-33q-38 -31 -52 -52t-14 -45q0 -37 34.5 -52.5t117.5 -15.5v-71q-131 0 -184.5 25.5t-53.5 86.5q0 67 78 124h-25zM79 681v119h132v-119h-132z" />
    <glyph glyph-name="Idotaccent" unicode="&#x130;" horiz-adv-x="292" 
d="M79 0v709h134v-709h-134zM84 815v73h125v-73h-125z" />
    <glyph glyph-name="dotlessi" unicode="&#x131;" horiz-adv-x="290" 
d="M79 0v591h132v-591h-132z" />
    <glyph glyph-name="uni0136" unicode="&#x136;" horiz-adv-x="972" 
d="M79 0v709h134v-383l490 383h200l-369 -291l369 -418h-165l-303 340l-222 -175v-165h-134zM406 -160v88h133v-88l-73 -102h-58l48 102h-50z" />
    <glyph glyph-name="uni0137" unicode="&#x137;" horiz-adv-x="905" 
d="M79 0v800h132v-505l428 296h201l-334 -232l334 -359h-162l-267 293l-200 -139v-154h-132zM375 -160v88h133v-88l-73 -102h-58l48 102h-50z" />
    <glyph glyph-name="Lacute" unicode="&#x139;" horiz-adv-x="810" 
d="M79 0v709h134v-595h533v-114h-667zM80 796v73l368 80v-73z" />
    <glyph glyph-name="lacute" unicode="&#x13a;" horiz-adv-x="291" 
d="M79 0v800h132v-800h-132zM-39 887v73l368 80v-73z" />
    <glyph glyph-name="uni013B" unicode="&#x13b;" horiz-adv-x="810" 
d="M79 0v709h134v-595h533v-114h-667zM351 -160v88h133v-88l-73 -102h-58l48 102h-50z" />
    <glyph glyph-name="uni013C" unicode="&#x13c;" horiz-adv-x="291" 
d="M79 0v800h132v-800h-132zM83 -160v88h133v-88l-73 -102h-58l48 102h-50z" />
    <glyph glyph-name="Lcaron" unicode="&#x13d;" horiz-adv-x="810" 
d="M79 0v709h134v-595h533v-114h-667zM588 594v115h141v-102l-65 -162h-64l46 149h-58z" />
    <glyph glyph-name="lcaron" unicode="&#x13e;" horiz-adv-x="522" 
d="M79 0v800h132v-800h-132zM301 685v115h141v-102l-65 -162h-64l46 149h-58z" />
    <glyph glyph-name="Lslash" unicode="&#x141;" horiz-adv-x="810" 
d="M79 0v311l-113 -46v76l113 46v322h134v-267l296 120v-76l-296 -120v-252h533v-114h-667z" />
    <glyph glyph-name="lslash" unicode="&#x142;" horiz-adv-x="496" 
d="M182 0v304l-139 -66v69l139 66v427h132v-364l138 66v-69l-138 -66v-367h-132z" />
    <glyph glyph-name="Nacute" unicode="&#x143;" horiz-adv-x="1025" 
d="M79 0v709h197l536 -588v588h133v-709h-196l-536 588v-588h-134zM329 796v73l368 80v-73z" />
    <glyph glyph-name="nacute" unicode="&#x144;" horiz-adv-x="947" 
d="M78 0v591h140v-128q118 148 345 148q151 0 228.5 -71.5t77.5 -238.5v-301h-140v254q0 129 -53.5 184.5t-175.5 55.5q-127 0 -204.5 -65.5t-77.5 -179.5v-249h-140zM292 667v73l368 80v-73z" />
    <glyph glyph-name="uni0145" unicode="&#x145;" horiz-adv-x="1025" 
d="M79 0v709h197l536 -588v588h133v-709h-196l-536 588v-588h-134zM423 -160v88h133v-88l-73 -102h-58l48 102h-50z" />
    <glyph glyph-name="uni0146" unicode="&#x146;" horiz-adv-x="947" 
d="M78 0v591h140v-128q118 148 345 148q151 0 228.5 -71.5t77.5 -238.5v-301h-140v254q0 129 -53.5 184.5t-175.5 55.5q-127 0 -204.5 -65.5t-77.5 -179.5v-249h-140zM413 -160v88h133v-88l-73 -102h-58l48 102h-50z" />
    <glyph glyph-name="Ncaron" unicode="&#x147;" horiz-adv-x="1025" 
d="M79 0v709h197l536 -588v588h133v-709h-196l-536 588v-588h-134zM327 865v74l186 -78l186 78v-74l-186 -80z" />
    <glyph glyph-name="ncaron" unicode="&#x148;" horiz-adv-x="947" 
d="M78 0v591h140v-128q118 148 345 148q151 0 228.5 -71.5t77.5 -238.5v-301h-140v254q0 129 -53.5 184.5t-175.5 55.5q-127 0 -204.5 -65.5t-77.5 -179.5v-249h-140zM291 736v74l186 -78l186 78v-74l-186 -80z" />
    <glyph glyph-name="Eng" unicode="&#x14a;" horiz-adv-x="1025" 
d="M79 0v709h197l536 -588v588h133v-709q0 -126 -55 -190t-191 -64q-94 0 -177 19v90q85 -17 144 -17q74 0 103.5 33.5t29.5 128.5h-50l-536 588v-588h-134z" />
    <glyph glyph-name="eng" unicode="&#x14b;" horiz-adv-x="947" 
d="M78 0v591h140v-128q118 148 345 148q151 0 228.5 -71.5t77.5 -238.5v-301q0 -130 -55.5 -195t-195.5 -65q-85 0 -173 20v102q88 -18 148 -18q83 0 114 33t31 123h-9v254q0 129 -53.5 184.5t-175.5 55.5q-127 0 -204.5 -65.5t-77.5 -179.5v-249h-140z" />
    <glyph glyph-name="Omacron" unicode="&#x14c;" horiz-adv-x="1078" 
d="M539 -20q-215 0 -342.5 102t-127.5 273q0 170 127.5 271t342.5 101q214 0 341.5 -101.5t127.5 -270.5q0 -171 -127.5 -273t-341.5 -102zM208 355q0 -118 89 -189.5t242 -71.5q152 0 241.5 72t89.5 189q0 116 -89 187.5t-242 71.5t-242 -71.5t-89 -187.5zM325 825v63h427
v-63h-427z" />
    <glyph glyph-name="omacron" unicode="&#x14d;" horiz-adv-x="939" 
d="M470 -20q-183 0 -294.5 86t-111.5 229t111.5 229.5t294.5 86.5q182 0 293.5 -86.5t111.5 -229.5t-111.5 -229t-293.5 -86zM196 295q0 -95 75.5 -152.5t198.5 -57.5q122 0 197.5 57.5t75.5 152.5q0 96 -75.5 153.5t-197.5 57.5q-123 0 -198.5 -57.5t-75.5 -153.5zM256 706
v63h427v-63h-427z" />
    <glyph glyph-name="Ohungarumlaut" unicode="&#x150;" horiz-adv-x="1078" 
d="M539 -20q-215 0 -342.5 102t-127.5 273q0 170 127.5 271t342.5 101q214 0 341.5 -101.5t127.5 -270.5q0 -171 -127.5 -273t-341.5 -102zM208 355q0 -118 89 -189.5t242 -71.5q152 0 241.5 72t89.5 189q0 116 -89 187.5t-242 71.5t-242 -71.5t-89 -187.5zM317 798v75
l197 80v-75zM563 798v75l196 80v-75z" />
    <glyph glyph-name="ohungarumlaut" unicode="&#x151;" horiz-adv-x="939" 
d="M470 -20q-183 0 -294.5 86t-111.5 229t111.5 229.5t294.5 86.5q182 0 293.5 -86.5t111.5 -229.5t-111.5 -229t-293.5 -86zM196 295q0 -95 75.5 -152.5t198.5 -57.5q122 0 197.5 57.5t75.5 152.5q0 96 -75.5 153.5t-197.5 57.5q-123 0 -198.5 -57.5t-75.5 -153.5zM248 679
v75l197 80v-75zM494 679v75l196 80v-75z" />
    <glyph glyph-name="OE" unicode="&#x152;" horiz-adv-x="1669" 
d="M539 -20q-215 0 -342.5 102t-127.5 273q0 170 127.5 271t342.5 101q229 0 358 -115v97h698v-103h-564v-203h544v-96h-544v-203h564v-104h-698v96q-129 -116 -358 -116zM208 355q0 -118 89 -189.5t242 -71.5q152 0 241.5 72t89.5 189q0 116 -89 187.5t-242 71.5
t-242 -71.5t-89 -187.5z" />
    <glyph glyph-name="oe" unicode="&#x153;" horiz-adv-x="1612" 
d="M470 -20q-183 0 -294.5 86t-111.5 229t111.5 229.5t294.5 86.5q226 0 336 -126q106 126 339 126q189 0 294 -92.5t105 -271.5h-661q15 -79 85 -120t188 -41q96 0 159 28.5t83 79.5h137q-27 -102 -125 -158t-258 -56q-239 0 -347 125q-52 -60 -139 -92.5t-196 -32.5z
M196 295q0 -95 75.5 -152.5t198.5 -57.5q113 0 186.5 49.5t84.5 132.5q-1 9 -1 28t1 28q-11 84 -84.5 133.5t-186.5 49.5q-123 0 -198.5 -57.5t-75.5 -153.5zM885 350h516q-35 156 -255 156q-226 0 -261 -156z" />
    <glyph glyph-name="Racute" unicode="&#x154;" horiz-adv-x="988" 
d="M79 0v709h543q276 0 276 -204q0 -145 -148 -183q66 -2 104.5 -38t38.5 -98v-186h-133v167q0 91 -96 91h-451v-258h-134zM213 368h381q83 0 124.5 28t41.5 91q0 62 -41 87.5t-125 25.5h-381v-232zM277 796v73l368 80v-73z" />
    <glyph glyph-name="racute" unicode="&#x155;" horiz-adv-x="688" 
d="M79 0v591h132v-116q59 74 123.5 105t143.5 31q83 0 156 -26v-115q-80 25 -161 25q-144 0 -262 -125v-370h-132zM160 677v73l368 80v-73z" />
    <glyph glyph-name="uni0156" unicode="&#x156;" horiz-adv-x="988" 
d="M79 0v709h543q276 0 276 -204q0 -145 -148 -183q66 -2 104.5 -38t38.5 -98v-186h-133v167q0 91 -96 91h-451v-258h-134zM213 368h381q83 0 124.5 28t41.5 91q0 62 -41 87.5t-125 25.5h-381v-232zM429 -160v88h133v-88l-73 -102h-58l48 102h-50z" />
    <glyph glyph-name="uni0157" unicode="&#x157;" horiz-adv-x="688" 
d="M79 0v591h132v-116q59 74 123.5 105t143.5 31q83 0 156 -26v-115q-80 25 -161 25q-144 0 -262 -125v-370h-132zM83 -160v88h133v-88l-73 -102h-58l48 102h-50z" />
    <glyph glyph-name="Rcaron" unicode="&#x158;" horiz-adv-x="988" 
d="M79 0v709h543q276 0 276 -204q0 -145 -148 -183q66 -2 104.5 -38t38.5 -98v-186h-133v167q0 91 -96 91h-451v-258h-134zM213 368h381q83 0 124.5 28t41.5 91q0 62 -41 87.5t-125 25.5h-381v-232zM275 865v74l186 -78l186 78v-74l-186 -80z" />
    <glyph glyph-name="rcaron" unicode="&#x159;" horiz-adv-x="688" 
d="M79 0v591h132v-116q59 74 123.5 105t143.5 31q83 0 156 -26v-115q-80 25 -161 25q-144 0 -262 -125v-370h-132zM158 746v74l186 -78l186 78v-74l-186 -80z" />
    <glyph glyph-name="Sacute" unicode="&#x15a;" horiz-adv-x="975" 
d="M508 -20q-224 0 -332 58.5t-112 198.5h139q0 -84 71.5 -120.5t233.5 -36.5q142 0 203.5 26.5t61.5 89.5q0 61 -52 80t-220 30l-40 3q-209 13 -292.5 61t-83.5 156q0 201 386 201q404 0 410 -245h-138q0 80 -69 112.5t-214 32.5q-129 0 -183 -23t-54 -78q0 -60 52 -82
t204 -33l42 -3q54 -4 89.5 -7.5t77 -9t67.5 -12.5t54.5 -18t45 -25.5t30.5 -34t20 -44.5t6 -57q0 -120 -101.5 -170t-301.5 -50zM303 796v73l368 80v-73z" />
    <glyph glyph-name="sacute" unicode="&#x15b;" horiz-adv-x="894" 
d="M462 -20q-390 0 -400 209h145q13 -98 268 -98q230 0 230 76q0 36 -51.5 54t-179.5 29l-59 5q-177 15 -255 57t-78 122q0 177 355 177q349 0 373 -188h-145q-10 42 -63.5 59.5t-170.5 17.5q-222 0 -222 -64q0 -32 49 -47.5t178 -25.5l66 -5q177 -14 253.5 -56t76.5 -128
q0 -194 -370 -194zM266 667v73l368 80v-73z" />
    <glyph glyph-name="Scedilla" unicode="&#x15e;" horiz-adv-x="975" 
d="M390 -188q199 -31 199 40q0 37 -48 39q-30 1 -64 -18l-52 12l22 96q-192 7 -285.5 66t-97.5 190h139q0 -84 71.5 -120.5t233.5 -36.5q142 0 203.5 26.5t61.5 89.5q0 61 -52 80t-220 30l-40 3q-209 13 -292.5 61t-83.5 156q0 201 386 201q404 0 410 -245h-138
q0 80 -69 112.5t-214 32.5q-129 0 -183 -23t-54 -78q0 -60 52 -82t204 -33l42 -3q54 -4 89.5 -7.5t77 -9t67.5 -12.5t54.5 -18t45 -25.5t30.5 -34t20 -44.5t6 -57q0 -61 -26.5 -104.5t-80 -68t-124 -36t-166.5 -11.5l-12 -51q34 12 76 12q44 0 71.5 -21.5t27.5 -65.5
q0 -49 -42.5 -77t-106 -31.5t-138.5 4.5v62z" />
    <glyph glyph-name="scedilla" unicode="&#x15f;" horiz-adv-x="894" 
d="M353 -188q199 -31 199 40q0 37 -48 39q-30 1 -64 -18l-52 12l22 96q-338 14 -348 208h145q13 -98 268 -98q230 0 230 76q0 36 -51.5 54t-179.5 29l-59 5q-177 15 -255 57t-78 122q0 177 355 177q349 0 373 -188h-145q-10 42 -63.5 59.5t-170.5 17.5q-222 0 -222 -64
q0 -32 49 -47.5t178 -25.5l66 -5q177 -14 253.5 -56t76.5 -128q0 -189 -355 -194l-12 -51q34 12 76 12q44 0 71.5 -21.5t27.5 -65.5q0 -49 -42.5 -77t-106 -31.5t-138.5 4.5v62z" />
    <glyph glyph-name="Scaron" unicode="&#x160;" horiz-adv-x="975" 
d="M508 -20q-224 0 -332 58.5t-112 198.5h139q0 -84 71.5 -120.5t233.5 -36.5q142 0 203.5 26.5t61.5 89.5q0 61 -52 80t-220 30l-40 3q-209 13 -292.5 61t-83.5 156q0 201 386 201q404 0 410 -245h-138q0 80 -69 112.5t-214 32.5q-129 0 -183 -23t-54 -78q0 -60 52 -82
t204 -33l42 -3q54 -4 89.5 -7.5t77 -9t67.5 -12.5t54.5 -18t45 -25.5t30.5 -34t20 -44.5t6 -57q0 -120 -101.5 -170t-301.5 -50zM301 865v74l186 -78l186 78v-74l-186 -80z" />
    <glyph glyph-name="scaron" unicode="&#x161;" horiz-adv-x="894" 
d="M462 -20q-390 0 -400 209h145q13 -98 268 -98q230 0 230 76q0 36 -51.5 54t-179.5 29l-59 5q-177 15 -255 57t-78 122q0 177 355 177q349 0 373 -188h-145q-10 42 -63.5 59.5t-170.5 17.5q-222 0 -222 -64q0 -32 49 -47.5t178 -25.5l66 -5q177 -14 253.5 -56t76.5 -128
q0 -194 -370 -194zM264 736v74l186 -78l186 78v-74l-186 -80z" />
    <glyph glyph-name="uni0162" unicode="&#x162;" horiz-adv-x="956" 
d="M69 595v114h818v-114h-342v-595h-38l-14 -61q34 12 76 12q44 0 71.5 -21.5t27.5 -65.5q0 -49 -42.5 -77t-106 -31.5t-138.5 4.5v62q199 -31 199 40q0 37 -48 39q-30 1 -64 -18l-52 12l24 105h-28v595h-343z" />
    <glyph glyph-name="uni0163" unicode="&#x163;" horiz-adv-x="692" 
d="M457 -20h-20l-11 -46q34 12 76 12q44 0 71.5 -21.5t27.5 -65.5q0 -49 -42.5 -77t-106 -31.5t-138.5 4.5v62q199 -31 199 40q0 37 -48 39q-30 1 -64 -18l-52 12l22 96q-81 13 -120.5 59.5t-39.5 139.5v306h-152v100h152v134l131 40v-174h287v-100h-287v-264q0 -79 33 -108
t109 -29q54 0 145 18v-108q-104 -20 -172 -20z" />
    <glyph glyph-name="Tcaron" unicode="&#x164;" horiz-adv-x="956" 
d="M69 595v114h818v-114h-342v-595h-133v595h-343zM292 865v74l186 -78l186 78v-74l-186 -80z" />
    <glyph glyph-name="tcaron" unicode="&#x165;" horiz-adv-x="876" 
d="M457 -20q-125 0 -185.5 45.5t-60.5 159.5v306h-152v100h152v134l131 40v-174h287v-100h-287v-264q0 -79 33 -108t109 -29q54 0 145 18v-108q-104 -20 -172 -20zM666 685v115h141v-102l-65 -162h-64l46 149h-58z" />
    <glyph glyph-name="Tbar" unicode="&#x166;" horiz-adv-x="956" 
d="M69 595v114h818v-114h-342v-244h232v-63h-232v-288h-133v288h-234v63h234v244h-343z" />
    <glyph glyph-name="tbar" unicode="&#x167;" horiz-adv-x="692" 
d="M59 299v63h152v129h-152v100h152v134l131 40v-174h287v-100h-287v-129h287v-63h-287v-72q0 -79 33 -108t109 -29q54 0 145 18v-108q-104 -20 -172 -20q-125 0 -185.5 45.5t-60.5 159.5v114h-152z" />
    <glyph glyph-name="Umacron" unicode="&#x16a;" horiz-adv-x="986" 
d="M493 -20q-414 0 -414 366v363h134v-359q0 -256 280 -256q279 0 279 256v359h134v-363q0 -366 -413 -366zM279 825v63h427v-63h-427z" />
    <glyph glyph-name="umacron" unicode="&#x16b;" horiz-adv-x="947" 
d="M869 591v-591h-140v128q-118 -148 -345 -148q-151 0 -228.5 71.5t-77.5 238.5v301h140v-254q0 -129 53.5 -184.5t175.5 -55.5q127 0 204.5 65.5t77.5 179.5v249h140zM249 706v63h427v-63h-427z" />
    <glyph glyph-name="Uring" unicode="&#x16e;" horiz-adv-x="986" 
d="M493 -20q-414 0 -414 366v363h134v-359q0 -256 280 -256q279 0 279 256v359h134v-363q0 -366 -413 -366zM295 890q0 116 199 116q198 0 198 -116t-198 -116q-199 0 -199 116zM368 890q0 -62 126 -62q124 0 124 62t-124 62q-126 0 -126 -62z" />
    <glyph glyph-name="uring" unicode="&#x16f;" horiz-adv-x="947" 
d="M869 591v-591h-140v128q-118 -148 -345 -148q-151 0 -228.5 71.5t-77.5 238.5v301h140v-254q0 -129 53.5 -184.5t175.5 -55.5q127 0 204.5 65.5t77.5 179.5v249h140zM265 771q0 116 199 116q198 0 198 -116t-198 -116q-199 0 -199 116zM338 771q0 -62 126 -62
q124 0 124 62t-124 62q-126 0 -126 -62z" />
    <glyph glyph-name="Uhungarumlaut" unicode="&#x170;" horiz-adv-x="986" 
d="M493 -20q-414 0 -414 366v363h134v-359q0 -256 280 -256q279 0 279 256v359h134v-363q0 -366 -413 -366zM272 798v75l197 80v-75zM518 798v75l196 80v-75z" />
    <glyph glyph-name="uhungarumlaut" unicode="&#x171;" horiz-adv-x="947" 
d="M869 591v-591h-140v128q-118 -148 -345 -148q-151 0 -228.5 71.5t-77.5 238.5v301h140v-254q0 -129 53.5 -184.5t175.5 -55.5q127 0 204.5 65.5t77.5 179.5v249h140zM242 679v75l197 80v-75zM488 679v75l196 80v-75z" />
    <glyph glyph-name="Uogonek" unicode="&#x172;" horiz-adv-x="986" 
d="M493 -20q-414 0 -414 366v363h134v-359q0 -256 280 -256q279 0 279 256v359h134v-363q0 -283 -245 -347q-37 -31 -51 -51.5t-14 -44.5q0 -37 34.5 -52.5t117.5 -15.5v-71q-131 0 -184.5 25.5t-53.5 86.5q0 58 57 107q-34 -3 -74 -3z" />
    <glyph glyph-name="uogonek" unicode="&#x173;" horiz-adv-x="947" 
d="M869 591v-591h-68q-38 -31 -52 -52t-14 -45q0 -37 34.5 -52.5t117.5 -15.5v-71q-131 0 -184.5 25.5t-53.5 86.5q0 67 80 126v126q-118 -148 -345 -148q-151 0 -228.5 71.5t-77.5 238.5v301h140v-254q0 -129 53.5 -184.5t175.5 -55.5q127 0 204.5 65.5t77.5 179.5v249h140
z" />
    <glyph glyph-name="Wcircumflex" unicode="&#x174;" horiz-adv-x="1642" 
d="M347 0l-278 709h137l237 -610l290 610h175l291 -610l237 610h136l-277 -709h-187l-287 608l-287 -608h-187zM635 789v74l186 80l186 -80v-74l-186 78z" />
    <glyph glyph-name="wcircumflex" unicode="&#x175;" horiz-adv-x="1504" 
d="M335 0l-271 591h144l219 -493l240 493h170l240 -492l219 492h144l-271 -591h-181l-236 478l-236 -478h-181zM566 670v74l186 80l186 -80v-74l-186 78z" />
    <glyph glyph-name="Ycircumflex" unicode="&#x176;" horiz-adv-x="1074" 
d="M470 0v239l-401 470h168l300 -359l301 359h166l-400 -470v-239h-134zM351 789v74l186 80l186 -80v-74l-186 78z" />
    <glyph glyph-name="ycircumflex" unicode="&#x177;" horiz-adv-x="946" 
d="M272 -260q-73 0 -177 26v101q111 -22 160 -22q46 0 75.5 17t47.5 44t53 94h-58l-309 591h143l266 -510l266 510h143l-313 -601q-33 -65 -59.5 -105.5t-61.5 -76.5t-78 -52t-98 -16zM286 670v74l186 80l186 -80v-74l-186 78z" />
    <glyph glyph-name="Ydieresis" unicode="&#x178;" horiz-adv-x="1074" 
d="M470 0v239l-401 470h168l300 -359l301 359h166l-400 -470v-239h-134zM363 808v80h114v-80h-114zM597 808v80h114v-80h-114z" />
    <glyph glyph-name="Zacute" unicode="&#x179;" horiz-adv-x="916" 
d="M79 0v114l572 481h-572v114h757v-114l-572 -481h572v-114h-757zM273 796v73l368 80v-73z" />
    <glyph glyph-name="zacute" unicode="&#x17a;" horiz-adv-x="821" 
d="M79 0v100l496 391h-496v100h663v-100l-496 -391h496v-100h-663zM226 677v73l368 80v-73z" />
    <glyph glyph-name="Zdotaccent" unicode="&#x17b;" horiz-adv-x="916" 
d="M79 0v114l572 481h-572v114h757v-114l-572 -481h572v-114h-757zM395 815v73h125v-73h-125z" />
    <glyph glyph-name="zdotaccent" unicode="&#x17c;" horiz-adv-x="821" 
d="M79 0v100l496 391h-496v100h663v-100l-496 -391h496v-100h-663zM348 696v73h125v-73h-125z" />
    <glyph glyph-name="Zcaron" unicode="&#x17d;" horiz-adv-x="916" 
d="M79 0v114l572 481h-572v114h757v-114l-572 -481h572v-114h-757zM272 865v74l186 -78l186 78v-74l-186 -80z" />
    <glyph glyph-name="zcaron" unicode="&#x17e;" horiz-adv-x="821" 
d="M79 0v100l496 391h-496v100h663v-100l-496 -391h496v-100h-663zM225 746v74l186 -78l186 78v-74l-186 -80z" />
    <glyph glyph-name="uni0218" unicode="&#x218;" horiz-adv-x="975" 
d="M508 -20q-224 0 -332 58.5t-112 198.5h139q0 -84 71.5 -120.5t233.5 -36.5q142 0 203.5 26.5t61.5 89.5q0 61 -52 80t-220 30l-40 3q-209 13 -292.5 61t-83.5 156q0 201 386 201q404 0 410 -245h-138q0 80 -69 112.5t-214 32.5q-129 0 -183 -23t-54 -78q0 -60 52 -82
t204 -33l42 -3q54 -4 89.5 -7.5t77 -9t67.5 -12.5t54.5 -18t45 -25.5t30.5 -34t20 -44.5t6 -57q0 -120 -101.5 -170t-301.5 -50zM425 -170v88h133v-88l-73 -102h-58l48 102h-50z" />
    <glyph glyph-name="uni0219" unicode="&#x219;" horiz-adv-x="894" 
d="M462 -20q-390 0 -400 209h145q13 -98 268 -98q230 0 230 76q0 36 -51.5 54t-179.5 29l-59 5q-177 15 -255 57t-78 122q0 177 355 177q349 0 373 -188h-145q-10 42 -63.5 59.5t-170.5 17.5q-222 0 -222 -64q0 -32 49 -47.5t178 -25.5l66 -5q177 -14 253.5 -56t76.5 -128
q0 -194 -370 -194zM388 -170v88h133v-88l-73 -102h-58l48 102h-50z" />
    <glyph glyph-name="uni021A" unicode="&#x21a;" horiz-adv-x="956" 
d="M69 595v114h818v-114h-342v-595h-133v595h-343zM416 -160v88h133v-88l-73 -102h-58l48 102h-50z" />
    <glyph glyph-name="uni021B" unicode="&#x21b;" horiz-adv-x="692" 
d="M457 -20q-125 0 -185.5 45.5t-60.5 159.5v306h-152v100h152v134l131 40v-174h287v-100h-287v-264q0 -79 33 -108t109 -29q54 0 145 18v-108q-104 -20 -172 -20zM350 -165v88h133v-88l-73 -102h-58l48 102h-50z" />
    <glyph glyph-name="uni0237" unicode="&#x237;" horiz-adv-x="485" 
d="M201 -260q-69 0 -162 18v92q90 -16 134 -16q61 0 81 27t20 106v624h132v-617q0 -117 -47 -175.5t-158 -58.5z" />
    <glyph glyph-name="circumflex" unicode="&#x2c6;" horiz-adv-x="522" 
d="M100 670v74l186 80l186 -80v-74l-186 78z" />
    <glyph glyph-name="caron" unicode="&#x2c7;" horiz-adv-x="522" 
d="M286 666l-186 80v74l186 -78l186 78v-74z" />
    <glyph glyph-name="breve" unicode="&#x2d8;" horiz-adv-x="568" 
d="M309 672q-209 0 -209 172h79q0 -54 32 -77t98 -23t98 23t32 77h79q0 -172 -209 -172z" />
    <glyph glyph-name="dotaccent" unicode="&#x2d9;" horiz-adv-x="275" 
d="M100 696v73h125v-73h-125z" />
    <glyph glyph-name="ring" unicode="&#x2da;" horiz-adv-x="547" 
d="M299 655q-199 0 -199 116t199 116q198 0 198 -116t-198 -116zM173 771q0 -62 126 -62q124 0 124 62t-124 62q-126 0 -126 -62z" />
    <glyph glyph-name="ogonek" unicode="&#x2db;" horiz-adv-x="388" 
d="M338 -236q-131 0 -184.5 25.5t-53.5 86.5q0 70 89 132l63 -8q-38 -31 -52 -52t-14 -45q0 -37 34.5 -52.5t117.5 -15.5v-71z" />
    <glyph glyph-name="tilde" unicode="&#x2dc;" horiz-adv-x="654" 
d="M456 660q-33 0 -58.5 10.5t-41 26t-29.5 31t-32.5 26t-42.5 10.5q-36 0 -57 -26.5t-21 -73.5h-74q0 82 39.5 128t108.5 46q33 0 58 -11t40.5 -26t29.5 -30.5t32.5 -26.5t42.5 -11q37 0 58 26.5t21 73.5h74q0 -82 -39 -127.5t-109 -45.5z" />
    <glyph glyph-name="hungarumlaut" unicode="&#x2dd;" horiz-adv-x="592" 
d="M346 679v75l196 80v-75zM100 679v75l197 80v-75z" />
    <glyph glyph-name="gravecomb" unicode="&#x300;" 
d="M418 677l-368 80v73l368 -80v-73z" />
    <glyph glyph-name="acutecomb" unicode="&#x301;" 
d="M50 677v73l368 80v-73z" />
    <glyph glyph-name="uni0302" unicode="&#x302;" 
d="M50 670v74l186 80l186 -80v-74l-186 78z" />
    <glyph glyph-name="tildecomb" unicode="&#x303;" 
d="M406 660q-33 0 -58.5 10.5t-41 26t-29.5 31t-32.5 26t-42.5 10.5q-36 0 -57 -26.5t-21 -73.5h-74q0 82 39.5 128t108.5 46q33 0 58 -11t40.5 -26t29.5 -30.5t32.5 -26.5t42.5 -11q37 0 58 26.5t21 73.5h74q0 -82 -39 -127.5t-109 -45.5z" />
    <glyph glyph-name="uni0304" unicode="&#x304;" 
d="M50 706v63h427v-63h-427z" />
    <glyph glyph-name="uni0306" unicode="&#x306;" 
d="M259 672q-209 0 -209 172h79q0 -54 32 -77t98 -23t98 23t32 77h79q0 -172 -209 -172z" />
    <glyph glyph-name="uni0307" unicode="&#x307;" 
d="M50 696v73h125v-73h-125z" />
    <glyph glyph-name="uni0308" unicode="&#x308;" 
d="M284 689v80h114v-80h-114zM50 689v80h114v-80h-114z" />
    <glyph glyph-name="uni030A" unicode="&#x30a;" 
d="M249 655q-199 0 -199 116t199 116q198 0 198 -116t-198 -116zM123 771q0 -62 126 -62q124 0 124 62t-124 62q-126 0 -126 -62z" />
    <glyph glyph-name="uni030B" unicode="&#x30b;" 
d="M296 679v75l196 80v-75zM50 679v75l197 80v-75z" />
    <glyph glyph-name="uni030C" unicode="&#x30c;" 
d="M236 666l-186 80v74l186 -78l186 78v-74z" />
    <glyph glyph-name="uni0312" unicode="&#x312;" 
d="M50 703v88l73 102h58l-49 -102h51v-88h-133z" />
    <glyph glyph-name="uni0326" unicode="&#x326;" 
d="M52 -262l48 102h-50v88h133v-88l-73 -102h-58z" />
    <glyph glyph-name="uni0327" unicode="&#x327;" 
d="M50 -178q199 -31 199 40q0 37 -48 39q-30 1 -64 -18l-52 12l24 105h67l-14 -61q34 12 76 12q44 0 71.5 -21.5t27.5 -65.5q0 -49 -42.5 -77t-106 -31.5t-138.5 4.5v62z" />
    <glyph glyph-name="uni0328" unicode="&#x328;" 
d="M288 -236q-131 0 -184.5 25.5t-53.5 86.5q0 70 89 132l63 -8q-38 -31 -52 -52t-14 -45q0 -37 34.5 -52.5t117.5 -15.5v-71z" />
    <glyph glyph-name="uni0335" unicode="&#x335;" 
d="M50 309v63h438v-63h-438z" />
    <glyph glyph-name="uni0336" unicode="&#x336;" 
d="M50 309v63h958v-63h-958z" />
    <glyph glyph-name="uni0337" unicode="&#x337;" 
d="M135 -150l272 905h126l-272 -905h-126z" />
    <glyph glyph-name="uni0338" unicode="&#x338;" 
d="M50 -124l260 870h82l-260 -870h-82z" />
    <glyph glyph-name="Wgrave" unicode="&#x1e80;" horiz-adv-x="1642" 
d="M347 0l-278 709h137l237 -610l290 610h175l291 -610l237 610h136l-277 -709h-187l-287 608l-287 -608h-187zM637 876v73l368 -80v-73z" />
    <glyph glyph-name="wgrave" unicode="&#x1e81;" horiz-adv-x="1504" 
d="M335 0l-271 591h144l219 -493l240 493h170l240 -492l219 492h144l-271 -591h-181l-236 478l-236 -478h-181zM568 757v73l368 -80v-73z" />
    <glyph glyph-name="Wacute" unicode="&#x1e82;" horiz-adv-x="1642" 
d="M347 0l-278 709h137l237 -610l290 610h175l291 -610l237 610h136l-277 -709h-187l-287 608l-287 -608h-187zM637 796v73l368 80v-73z" />
    <glyph glyph-name="wacute" unicode="&#x1e83;" horiz-adv-x="1504" 
d="M335 0l-271 591h144l219 -493l240 493h170l240 -492l219 492h144l-271 -591h-181l-236 478l-236 -478h-181zM568 677v73l368 80v-73z" />
    <glyph glyph-name="Wdieresis" unicode="&#x1e84;" horiz-adv-x="1642" 
d="M347 0l-278 709h137l237 -610l290 610h175l291 -610l237 610h136l-277 -709h-187l-287 608l-287 -608h-187zM647 808v80h114v-80h-114zM881 808v80h114v-80h-114z" />
    <glyph glyph-name="wdieresis" unicode="&#x1e85;" horiz-adv-x="1504" 
d="M335 0l-271 591h144l219 -493l240 493h170l240 -492l219 492h144l-271 -591h-181l-236 478l-236 -478h-181zM578 689v80h114v-80h-114zM812 689v80h114v-80h-114z" />
    <glyph glyph-name="Ygrave" unicode="&#x1ef2;" horiz-adv-x="1074" 
d="M470 0v239l-401 470h168l300 -359l301 359h166l-400 -470v-239h-134zM353 876v73l368 -80v-73z" />
    <glyph glyph-name="ygrave" unicode="&#x1ef3;" horiz-adv-x="946" 
d="M272 -260q-73 0 -177 26v101q111 -22 160 -22q46 0 75.5 17t47.5 44t53 94h-58l-309 591h143l266 -510l266 510h143l-313 -601q-33 -65 -59.5 -105.5t-61.5 -76.5t-78 -52t-98 -16zM287 757v73l368 -80v-73z" />
    <glyph glyph-name="endash" unicode="&#x2013;" horiz-adv-x="1157" 
d="M99 290v100h958v-100h-958z" />
    <glyph glyph-name="emdash" unicode="&#x2014;" horiz-adv-x="1357" 
d="M99 290v100h1158v-100h-1158z" />
    <glyph glyph-name="quoteleft" unicode="&#x2018;" horiz-adv-x="347" 
d="M263 771l-43 -352h-130l60 352h113z" />
    <glyph glyph-name="quoteright" unicode="&#x2019;" horiz-adv-x="341" 
d="M84 419l43 352h130l-60 -352h-113z" />
    <glyph glyph-name="quotesinglbase" unicode="&#x201a;" horiz-adv-x="315" 
d="M93 -180l47 180h-66v123h157v-123l-74 -180h-64z" />
    <glyph glyph-name="quotedblleft" unicode="&#x201c;" horiz-adv-x="578" 
d="M494 771l-43 -352h-130l60 352h113zM84 419l60 352h113l-43 -352h-130z" />
    <glyph glyph-name="quotedblright" unicode="&#x201d;" horiz-adv-x="578" 
d="M84 419l43 352h130l-60 -352h-113zM320 419l43 352h130l-60 -352h-113z" />
    <glyph glyph-name="quotedblbase" unicode="&#x201e;" horiz-adv-x="530" 
d="M308 -180l47 180h-66v123h157v-123l-74 -180h-64zM74 0v123h157v-123l-74 -180h-64l47 180h-66z" />
    <glyph glyph-name="dagger" unicode="&#x2020;" horiz-adv-x="880" 
d="M380 -150v630h-301v111h301v167h121v-167h299v-111h-299v-630h-121z" />
    <glyph glyph-name="daggerdbl" unicode="&#x2021;" horiz-adv-x="880" 
d="M79 118v110h301v252h-301v111h301v167h121v-167h299v-111h-299v-252h299v-110h-299v-268h-121v268h-301z" />
    <glyph glyph-name="bullet" unicode="&#x2022;" horiz-adv-x="435" 
d="M218 219q-139 0 -139 99q0 97 139 97q137 0 137 -97q0 -99 -137 -99z" />
    <glyph glyph-name="ellipsis" unicode="&#x2026;" horiz-adv-x="807" 
d="M74 0v123h157v-123h-157zM325 0v123h157v-123h-157zM576 0v123h157v-123h-157z" />
    <glyph glyph-name="perthousand" unicode="&#x2030;" horiz-adv-x="1945" 
d="M1625 -20q-64 0 -114 20t-79.5 53t-45 71.5t-15.5 80.5t15.5 80.5t45 71.5t79.5 53t114 20q125 0 190.5 -67.5t65.5 -157.5t-65.5 -157.5t-190.5 -67.5zM79 506q0 89 65.5 155.5t189.5 66.5t189.5 -66.5t65.5 -155.5q0 -90 -65 -156.5t-190 -66.5q-124 0 -189.5 66.5
t-65.5 156.5zM183 507q0 -63 41.5 -101.5t109.5 -38.5t110 38t42 102q0 63 -41.5 100.5t-110.5 37.5q-68 0 -109.5 -37.5t-41.5 -100.5zM371 0l528 711h115l-528 -711h-115zM796 202q0 90 65 156.5t190 66.5q124 0 189 -66.5t65 -156.5q0 -89 -65 -155.5t-189 -66.5
t-189.5 66.5t-65.5 155.5zM899 202q0 -63 42 -101t110 -38t109.5 38t41.5 101t-41.5 101t-109.5 38q-69 0 -110.5 -38t-41.5 -101zM1475 206q0 -63 41.5 -102.5t108.5 -39.5q68 0 110 39.5t42 102.5t-42 101.5t-110 38.5q-67 0 -108.5 -38.5t-41.5 -101.5z" />
    <glyph glyph-name="guilsinglleft" unicode="&#x2039;" horiz-adv-x="579" 
d="M339 0l-260 295l260 296h161l-260 -295l260 -296h-161z" />
    <glyph glyph-name="guilsinglright" unicode="&#x203a;" horiz-adv-x="579" 
d="M240 591l260 -295l-260 -296h-161l260 296l-260 295h161z" />
    <glyph glyph-name="fraction" unicode="&#x2044;" horiz-adv-x="568" 
d="M85 -150l272 905h126l-272 -905h-126z" />
    <glyph glyph-name="Euro" unicode="&#x20ac;" horiz-adv-x="1043" 
d="M644 -21q-210 0 -324.5 61t-146.5 191h-95v86h83q-1 11 -1 35q0 22 1 32h-83v86h94q31 133 146.5 195.5t326.5 62.5q183 0 323 -40v-115q-144 40 -298 40q-278 0 -342 -143h524v-86h-544q-1 -10 -1 -30q0 -13 2 -37h543v-86h-520q66 -135 336 -135q161 0 300 40v-117
q-141 -40 -324 -40z" />
    <glyph glyph-name="trademark" unicode="&#x2122;" horiz-adv-x="1168" 
d="M58 632v77h416v-77h-165v-273h-87v273h-164zM534 359v350h125l148 -259l148 259h125v-350h-87v264l-149 -264h-79l-144 263v-263h-87z" />
    <glyph glyph-name="arrowleft" unicode="&#x2190;" horiz-adv-x="1146" 
d="M384 4l-285 297l285 295l64 -60l-193 -191h791v-90h-791l193 -191z" />
    <glyph glyph-name="arrowup" unicode="&#x2191;" horiz-adv-x="753" 
d="M673 443l-60 -64l-192 194v-573h-89v573l-192 -194l-60 64l296 285z" />
    <glyph glyph-name="arrowright" unicode="&#x2192;" horiz-adv-x="1146" 
d="M761 4l-63 60l193 191h-792v90h792l-193 191l63 60l285 -295z" />
    <glyph glyph-name="arrowdown" unicode="&#x2193;" horiz-adv-x="753" 
d="M673 264l-297 -285l-296 285l60 64l192 -194v575h89v-575l192 194z" />
    <glyph glyph-name="arrowboth" unicode="&#x2194;" horiz-adv-x="1366" 
d="M384 3l-285 297l285 296l64 -61l-193 -191h856l-193 191l64 61l285 -296l-285 -297l-64 60l194 192h-858l194 -192z" />
    <glyph glyph-name="arrowupdn" unicode="&#x2195;" horiz-adv-x="753" 
d="M376 -94l-296 285l60 63l192 -193v585l-192 -194l-60 63l296 285l297 -285l-60 -63l-192 194v-585l192 193l60 -63z" />
    <glyph glyph-name="uni2196" unicode="&#x2196;" horiz-adv-x="850" 
d="M70 289l9 411l410 8l2 -88l-271 2l560 -558l-63 -64l-561 559l1 -273z" />
    <glyph glyph-name="uni2197" unicode="&#x2197;" horiz-adv-x="847" 
d="M777 288l-87 -2l1 272l-558 -558l-64 64l559 557l-272 -1l2 87l410 -7z" />
    <glyph glyph-name="uni2198" unicode="&#x2198;" horiz-adv-x="850" 
d="M780 421l-9 -412l-410 -8l-3 88l272 -2l-561 559l64 63l561 -559l-2 273z" />
    <glyph glyph-name="uni2199" unicode="&#x2199;" horiz-adv-x="848" 
d="M489 2l-410 8l-9 411l87 2l-1 -272l558 558l64 -63l-559 -558l272 1z" />
    <glyph glyph-name="emptyset" unicode="&#x2205;" horiz-adv-x="1095" 
d="M122 -143l-68 67l124 124q-109 123 -109 312q0 201 126 328.5t353 127.5q186 0 308 -90l117 117l68 -67l-115 -115q100 -120 100 -301q0 -202 -125.5 -330t-352.5 -128q-179 0 -298 83zM197 360q0 -136 67 -226l509 509q-89 64 -225 64q-168 0 -259.5 -93.5t-91.5 -253.5
zM333 68q86 -57 215 -57q167 0 258.5 94t91.5 255q0 129 -59 214z" />
    <glyph glyph-name="product" unicode="&#x220f;" horiz-adv-x="1290" 
d="M69 690v110h1151v-110h-242v-840h-121v840h-424v-840h-121v840h-243z" />
    <glyph glyph-name="minus" unicode="&#x2212;" horiz-adv-x="917" 
d="M79 290v100h758v-100h-758z" />
    <glyph glyph-name="integral" unicode="&#x222b;" horiz-adv-x="910" 
d="M39 -40q71 0 117.5 8.5t88.5 33t68 72.5t41 124l56 254q12 56 29 101t34.5 79t42 60.5t46 44t53.5 29.5t56.5 19t62.5 10t65.5 4t70.5 1v-110q-68 0 -114 -8.5t-89 -32.5t-71 -72.5t-44 -124.5l-56 -254q-22 -101 -58.5 -169.5t-71 -103.5t-97.5 -52.5t-104 -20
t-124 -2.5h-2v110z" />
    <glyph glyph-name="approxequal" unicode="&#x2248;" horiz-adv-x="913" 
d="M79 364q0 56 9 103t30 88.5t60 65t93 23.5q44 0 84 -17t69 -41t57 -48.5t61 -41.5t68 -17q63 0 88 41t25 124h110q0 -56 -9 -102.5t-29.5 -88.5t-59.5 -65.5t-93 -23.5t-103 26t-79.5 56.5t-72.5 56.5t-85 26q-63 0 -88 -41t-25 -124h-110zM79 25q0 56 9 103t30 88.5
t60 65t93 23.5q44 0 84 -17t69 -41.5t57 -48.5t61 -41t68 -17q63 0 88 41t25 124h110q0 -56 -9 -102.5t-29.5 -88.5t-59.5 -65.5t-93 -23.5t-103 26t-79.5 56.5t-72.5 56.5t-85 26q-63 0 -88 -41t-25 -124h-110z" />
    <glyph glyph-name="notequal" unicode="&#x2260;" horiz-adv-x="917" 
d="M79 450v100h408l62 205h91l-62 -205h259v-100h-289l-66 -220h355v-100h-386l-84 -280h-91l84 280h-281v100h312l66 220h-378z" />
    <glyph glyph-name="lessequal" unicode="&#x2264;" horiz-adv-x="917" 
d="M79 35v100h758v-100h-758zM79 398v166l748 155v-112l-647 -126l647 -127v-112z" />
    <glyph glyph-name="greaterequal" unicode="&#x2265;" horiz-adv-x="918" 
d="M81 35v100h758v-100h-758zM90 244v112l647 126l-647 127v112l748 -156v-166z" />
    <glyph glyph-name="lozenge" unicode="&#x25ca;" horiz-adv-x="913" 
d="M369 -140l-290 470l290 470h176l288 -470l-288 -470h-176zM211 330l246 -406l245 406l-245 406z" />
    <glyph glyph-name="A.ss01" horiz-adv-x="1265" 
d="M69 0l383 709h361l382 -709h-149l-91 166h-645l-91 -166h-150zM364 266h537l-180 329h-177z" />
    <glyph glyph-name="Aacute.ss01" horiz-adv-x="1265" 
d="M69 0l383 709h361l382 -709h-149l-91 166h-645l-91 -166h-150zM364 266h537l-180 329h-177zM448 796v73l368 80v-73z" />
    <glyph glyph-name="Abreve.ss01" horiz-adv-x="1265" 
d="M69 0l383 709h361l382 -709h-149l-91 166h-645l-91 -166h-150zM364 266h537l-180 329h-177zM423 963h79q0 -54 32 -77t98 -23t98 23t32 77h79q0 -172 -209 -172t-209 172z" />
    <glyph glyph-name="Acircumflex.ss01" horiz-adv-x="1265" 
d="M69 0l383 709h361l382 -709h-149l-91 166h-645l-91 -166h-150zM364 266h537l-180 329h-177zM447 789v74l186 80l186 -80v-74l-186 78z" />
    <glyph glyph-name="Adieresis.ss01" horiz-adv-x="1265" 
d="M69 0l383 709h361l382 -709h-149l-91 166h-645l-91 -166h-150zM364 266h537l-180 329h-177zM459 808v80h114v-80h-114zM693 808v80h114v-80h-114z" />
    <glyph glyph-name="Agrave.ss01" horiz-adv-x="1265" 
d="M69 0l383 709h361l382 -709h-149l-91 166h-645l-91 -166h-150zM364 266h537l-180 329h-177zM448 876v73l368 -80v-73z" />
    <glyph glyph-name="Amacron.ss01" horiz-adv-x="1265" 
d="M69 0l383 709h361l382 -709h-149l-91 166h-645l-91 -166h-150zM364 266h537l-180 329h-177zM419 825v63h427v-63h-427z" />
    <glyph glyph-name="Aogonek.ss01" horiz-adv-x="1265" 
d="M69 0l383 709h361l382 -709h-27q-38 -31 -52 -52t-14 -45q0 -37 34.5 -52.5t117.5 -15.5v-71q-131 0 -184.5 25.5t-53.5 86.5q0 67 78 124h-48l-91 166h-645l-91 -166h-150zM364 266h537l-180 329h-177z" />
    <glyph glyph-name="Aring.ss01" horiz-adv-x="1265" 
d="M69 0l383 709h361l382 -709h-149l-91 166h-645l-91 -166h-150zM364 266h537l-180 329h-177zM434 890q0 116 199 116q198 0 198 -116t-198 -116q-199 0 -199 116zM507 890q0 -62 126 -62q124 0 124 62t-124 62q-126 0 -126 -62z" />
    <glyph glyph-name="Atilde.ss01" horiz-adv-x="1265" 
d="M69 0l383 709h361l382 -709h-149l-91 166h-645l-91 -166h-150zM364 266h537l-180 329h-177zM381 783q0 82 39.5 128t108.5 46q33 0 58 -11t40.5 -26.5t29.5 -30.5t32.5 -26t42.5 -11q37 0 58 26.5t21 73.5h74q0 -82 -39 -127.5t-109 -45.5q-40 0 -70 16.5t-44.5 35.5
t-37.5 35.5t-52 16.5q-36 0 -57 -26.5t-21 -73.5h-74z" />
    <glyph glyph-name="V.ss01" horiz-adv-x="1265" 
d="M452 0l-383 709h150l325 -595h177l325 595h149l-382 -709h-361z" />
    <glyph glyph-name="W.ss01" horiz-adv-x="1741" 
d="M347 0l-278 709h141l236 -595h101l227 595h198l226 -595h102l231 595h140l-272 -709h-304l-222 600l-223 -600h-303z" />
    <glyph glyph-name="Wacute.ss01" horiz-adv-x="1741" 
d="M347 0l-278 709h141l236 -595h101l227 595h198l226 -595h102l231 595h140l-272 -709h-304l-222 600l-223 -600h-303zM688 796v73l368 80v-73z" />
    <glyph glyph-name="Wcircumflex.ss01" horiz-adv-x="1741" 
d="M347 0l-278 709h141l236 -595h101l227 595h198l226 -595h102l231 595h140l-272 -709h-304l-222 600l-223 -600h-303zM687 789v74l186 80l186 -80v-74l-186 78z" />
    <glyph glyph-name="Wdieresis.ss01" horiz-adv-x="1741" 
d="M347 0l-278 709h141l236 -595h101l227 595h198l226 -595h102l231 595h140l-272 -709h-304l-222 600l-223 -600h-303zM699 808v80h114v-80h-114zM933 808v80h114v-80h-114z" />
    <glyph glyph-name="Wgrave.ss01" horiz-adv-x="1741" 
d="M347 0l-278 709h141l236 -595h101l227 595h198l226 -595h102l231 595h140l-272 -709h-304l-222 600l-223 -600h-303zM688 876v73l368 -80v-73z" />
    <glyph glyph-name="K.ss02" horiz-adv-x="1027" 
d="M785 0l-291 298h-281v-298h-134v709h134v-297h281l291 297h162l-334 -354l334 -355h-162z" />
    <glyph glyph-name="uni0136.ss02" horiz-adv-x="1027" 
d="M785 0l-291 298h-281v-298h-134v709h134v-297h281l291 297h162l-334 -354l334 -355h-162zM419 -160v88h133v-88l-73 -102h-58l48 102h-50z" />
    <glyph glyph-name="R.ss02" horiz-adv-x="975" 
d="M79 0v709h557q132 0 200 -63t68 -176q0 -87 -45.5 -147t-132.5 -81l174 -242h-154l-160 232h-373v-232h-134zM213 340h387q166 0 166 130q0 68 -41.5 99t-124.5 31h-387v-260z" />
    <glyph glyph-name="Racute.ss02" horiz-adv-x="975" 
d="M79 0v709h557q132 0 200 -63t68 -176q0 -87 -45.5 -147t-132.5 -81l174 -242h-154l-160 232h-373v-232h-134zM213 340h387q166 0 166 130q0 68 -41.5 99t-124.5 31h-387v-260zM271 796v73l368 80v-73z" />
    <glyph glyph-name="Rcaron.ss02" horiz-adv-x="975" 
d="M79 0v709h557q132 0 200 -63t68 -176q0 -87 -45.5 -147t-132.5 -81l174 -242h-154l-160 232h-373v-232h-134zM213 340h387q166 0 166 130q0 68 -41.5 99t-124.5 31h-387v-260zM270 865v74l186 -78l186 78v-74l-186 -80z" />
    <glyph glyph-name="uni0156.ss02" horiz-adv-x="975" 
d="M79 0v709h557q132 0 200 -63t68 -176q0 -87 -45.5 -147t-132.5 -81l174 -242h-154l-160 232h-373v-232h-134zM213 340h387q166 0 166 130q0 68 -41.5 99t-124.5 31h-387v-260zM394 -160v88h133v-88l-73 -102h-58l48 102h-50z" />
    <glyph glyph-name="i.loclTRK" horiz-adv-x="290" 
d="M79 0v591h132v-591h-132zM78 718v88h135v-88h-135z" />
    <glyph glyph-name="a.ss01" horiz-adv-x="957" 
d="M747 0v125q-46 -69 -128.5 -107t-188.5 -38q-165 0 -263.5 86t-98.5 229t98.5 229.5t263.5 86.5q106 0 188.5 -38.5t128.5 -107.5v126h131v-591h-131zM213 295q0 -90 70 -144t189 -54q127 0 201 53.5t74 144.5t-73.5 145t-201.5 54q-120 0 -189.5 -54t-69.5 -145z" />
    <glyph glyph-name="aacute.ss01" horiz-adv-x="957" 
d="M747 0v125q-46 -69 -128.5 -107t-188.5 -38q-165 0 -263.5 86t-98.5 229t98.5 229.5t263.5 86.5q106 0 188.5 -38.5t128.5 -107.5v126h131v-591h-131zM213 295q0 -90 70 -144t189 -54q127 0 201 53.5t74 144.5t-73.5 145t-201.5 54q-120 0 -189.5 -54t-69.5 -145z
M294 677v73l368 80v-73z" />
    <glyph glyph-name="abreve.ss01" horiz-adv-x="957" 
d="M747 0v125q-46 -69 -128.5 -107t-188.5 -38q-165 0 -263.5 86t-98.5 229t98.5 229.5t263.5 86.5q106 0 188.5 -38.5t128.5 -107.5v126h131v-591h-131zM213 295q0 -90 70 -144t189 -54q127 0 201 53.5t74 144.5t-73.5 145t-201.5 54q-120 0 -189.5 -54t-69.5 -145z
M269 844h79q0 -54 32 -77t98 -23t98 23t32 77h79q0 -172 -209 -172t-209 172z" />
    <glyph glyph-name="acircumflex.ss01" horiz-adv-x="957" 
d="M747 0v125q-46 -69 -128.5 -107t-188.5 -38q-165 0 -263.5 86t-98.5 229t98.5 229.5t263.5 86.5q106 0 188.5 -38.5t128.5 -107.5v126h131v-591h-131zM213 295q0 -90 70 -144t189 -54q127 0 201 53.5t74 144.5t-73.5 145t-201.5 54q-120 0 -189.5 -54t-69.5 -145z
M293 670v74l186 80l186 -80v-74l-186 78z" />
    <glyph glyph-name="adieresis.ss01" horiz-adv-x="957" 
d="M747 0v125q-46 -69 -128.5 -107t-188.5 -38q-165 0 -263.5 86t-98.5 229t98.5 229.5t263.5 86.5q106 0 188.5 -38.5t128.5 -107.5v126h131v-591h-131zM213 295q0 -90 70 -144t189 -54q127 0 201 53.5t74 144.5t-73.5 145t-201.5 54q-120 0 -189.5 -54t-69.5 -145z
M305 689v80h114v-80h-114zM539 689v80h114v-80h-114z" />
    <glyph glyph-name="agrave.ss01" horiz-adv-x="957" 
d="M747 0v125q-46 -69 -128.5 -107t-188.5 -38q-165 0 -263.5 86t-98.5 229t98.5 229.5t263.5 86.5q106 0 188.5 -38.5t128.5 -107.5v126h131v-591h-131zM213 295q0 -90 70 -144t189 -54q127 0 201 53.5t74 144.5t-73.5 145t-201.5 54q-120 0 -189.5 -54t-69.5 -145z
M294 757v73l368 -80v-73z" />
    <glyph glyph-name="amacron.ss01" horiz-adv-x="957" 
d="M747 0v125q-46 -69 -128.5 -107t-188.5 -38q-165 0 -263.5 86t-98.5 229t98.5 229.5t263.5 86.5q106 0 188.5 -38.5t128.5 -107.5v126h131v-591h-131zM213 295q0 -90 70 -144t189 -54q127 0 201 53.5t74 144.5t-73.5 145t-201.5 54q-120 0 -189.5 -54t-69.5 -145z
M265 706v63h427v-63h-427z" />
    <glyph glyph-name="aogonek.ss01" horiz-adv-x="957" 
d="M427 -20q-165 0 -264 86t-99 229t99 229.5t264 86.5q114 0 197 -43.5t123 -122.5v146h131v-591h-62q-38 -31 -52 -51.5t-14 -44.5q0 -38 34.5 -53.5t117.5 -15.5v-71q-130 0 -184 26t-54 87q0 68 83 127v142q-40 -79 -123 -122.5t-197 -43.5zM200 295q0 -93 72 -149
t195 -56q129 0 204.5 56t75.5 149q0 94 -75.5 150t-204.5 56q-123 0 -195 -56t-72 -150z" />
    <glyph glyph-name="aring.ss01" horiz-adv-x="957" 
d="M747 0v125q-46 -69 -128.5 -107t-188.5 -38q-165 0 -263.5 86t-98.5 229t98.5 229.5t263.5 86.5q106 0 188.5 -38.5t128.5 -107.5v126h131v-591h-131zM213 295q0 -90 70 -144t189 -54q127 0 201 53.5t74 144.5t-73.5 145t-201.5 54q-120 0 -189.5 -54t-69.5 -145z
M280 771q0 116 199 116q198 0 198 -116t-198 -116q-199 0 -199 116zM353 771q0 -62 126 -62q124 0 124 62t-124 62q-126 0 -126 -62z" />
    <glyph glyph-name="atilde.ss01" horiz-adv-x="957" 
d="M747 0v125q-46 -69 -128.5 -107t-188.5 -38q-165 0 -263.5 86t-98.5 229t98.5 229.5t263.5 86.5q106 0 188.5 -38.5t128.5 -107.5v126h131v-591h-131zM213 295q0 -90 70 -144t189 -54q127 0 201 53.5t74 144.5t-73.5 145t-201.5 54q-120 0 -189.5 -54t-69.5 -145z
M227 664q0 82 39.5 128t108.5 46q33 0 58 -11t40.5 -26t29.5 -30.5t32.5 -26.5t42.5 -11q37 0 58 26.5t21 73.5h74q0 -82 -39 -127.5t-109 -45.5q-33 0 -58.5 10.5t-41 26t-29.5 31t-32.5 26t-42.5 10.5q-36 0 -57 -26.5t-21 -73.5h-74z" />
    <glyph glyph-name="g.ss01" horiz-adv-x="964" 
d="M462 -260q-203 0 -301.5 38.5t-98.5 117.5q0 105 140 129q-58 11 -86.5 36.5t-27.5 66.5q3 92 138 107q-146 46 -146 170q0 105 97 155.5t298 50.5q125 0 214 -20h244v-94q-36 0 -90 8q30 -41 30 -99q0 -102 -98 -151t-301 -49h-2h-157q-99 0 -99 -44q0 -39 159 -39h178
q175 0 258.5 -42.5t83.5 -131.5q0 -106 -106 -157.5t-327 -51.5zM196 -73q0 -79 292 -79q291 0 291 86q0 41 -68 60t-211 19q-304 0 -304 -86zM236 406q0 -90 240 -90q242 0 242 90q0 95 -242 95q-240 0 -240 -95z" />
    <glyph glyph-name="gbreve.ss01" horiz-adv-x="964" 
d="M462 -260q-203 0 -301.5 38.5t-98.5 117.5q0 105 140 129q-58 11 -86.5 36.5t-27.5 66.5q3 92 138 107q-146 46 -146 170q0 105 97 155.5t298 50.5q125 0 214 -20h244v-94q-36 0 -90 8q30 -41 30 -99q0 -102 -98 -151t-301 -49h-2h-157q-99 0 -99 -44q0 -39 159 -39h178
q175 0 258.5 -42.5t83.5 -131.5q0 -106 -106 -157.5t-327 -51.5zM196 -73q0 -79 292 -79q291 0 291 86q0 41 -68 60t-211 19q-304 0 -304 -86zM236 406q0 -90 240 -90q242 0 242 90q0 95 -242 95q-240 0 -240 -95zM236 834h79q0 -54 32 -77t98 -23t98 23t32 77h79
q0 -172 -209 -172t-209 172z" />
    <glyph glyph-name="uni0123.ss01" horiz-adv-x="964" 
d="M462 -260q-203 0 -301.5 38.5t-98.5 117.5q0 105 140 129q-58 11 -86.5 36.5t-27.5 66.5q3 92 138 107q-146 46 -146 170q0 105 97 155.5t298 50.5q125 0 214 -20h244v-94q-36 0 -90 8q30 -41 30 -99q0 -102 -98 -151t-301 -49h-2h-157q-99 0 -99 -44q0 -39 159 -39h178
q175 0 258.5 -42.5t83.5 -131.5q0 -106 -106 -157.5t-327 -51.5zM196 -73q0 -79 292 -79q291 0 291 86q0 41 -68 60t-211 19q-304 0 -304 -86zM236 406q0 -90 240 -90q242 0 242 90q0 95 -242 95q-240 0 -240 -95zM379 693v88l73 102h58l-49 -102h51v-88h-133z" />
    <glyph glyph-name="gdotaccent.ss01" horiz-adv-x="964" 
d="M462 -260q-203 0 -301.5 38.5t-98.5 117.5q0 105 140 129q-58 11 -86.5 36.5t-27.5 66.5q3 92 138 107q-146 46 -146 170q0 105 97 155.5t298 50.5q125 0 214 -20h244v-94q-36 0 -90 8q30 -41 30 -99q0 -102 -98 -151t-301 -49h-2h-157q-99 0 -99 -44q0 -39 159 -39h178
q175 0 258.5 -42.5t83.5 -131.5q0 -106 -106 -157.5t-327 -51.5zM196 -73q0 -79 292 -79q291 0 291 86q0 41 -68 60t-211 19q-304 0 -304 -86zM236 406q0 -90 240 -90q242 0 242 90q0 95 -242 95q-240 0 -240 -95zM382 686v73h125v-73h-125z" />
    <glyph glyph-name="uni030C.alt" 
d="M62 536l46 149h-58v115h141v-102l-65 -162h-64z" />
    </font>
</defs>
</svg>
