<svg width="370" height="670" viewBox="0 0 370 670" fill="none" xmlns="http://www.w3.org/2000/svg">
<g clip-path="url(#clip0_414_88)">
<path d="M91.2437 260.356C92.1928 257.571 93.4146 254.692 94.9786 251.551C97.9354 245.747 101.588 240.443 105.835 235.794C106.85 234.646 107.949 233.557 109.012 232.502L109.164 232.35C109.646 231.885 110.149 231.428 110.634 230.986L111.807 229.926C112.036 229.727 112.266 229.535 112.498 229.341L112.721 229.156C113.33 228.647 113.944 228.142 114.568 227.64C115.198 227.157 115.831 226.679 116.465 226.207C117.157 225.684 117.871 225.192 118.418 224.823L118.843 224.536C119.351 224.192 119.876 223.837 120.402 223.505C131.195 216.605 143.679 212.733 156.503 212.304C162.989 212.101 169.37 212.748 175.47 214.225L177.606 214.756L224.414 227.298L227.822 228.306C228.573 228.556 229.322 228.817 230.065 229.08C231.324 229.508 232.573 230.028 233.782 230.532L234.514 230.836C237.803 232.307 240.582 233.753 243.01 235.253L244.039 235.88L245.04 236.534C245.706 236.974 246.366 237.418 247.031 237.875C247.677 238.341 248.319 238.814 248.96 239.293L249.921 240.02L250.847 240.767C253.127 242.586 255.424 244.712 257.87 247.268C266.643 256.543 272.792 268.056 275.655 280.568C275.827 281.345 275.992 282.126 276.153 282.907C276.275 283.527 276.38 284.158 276.479 284.769L276.561 285.267C276.802 286.659 276.956 288.084 277.103 289.461L277.164 290.034C277.234 290.856 277.286 291.69 277.332 292.428L277.4 293.632L277.429 294.829C277.444 295.627 277.454 296.426 277.455 297.233C277.437 298.032 277.411 298.829 277.38 299.627L277.327 300.832L277.233 302.022C277.168 302.816 277.098 303.611 277.019 304.412C276.921 305.201 276.816 305.989 276.705 306.779L276.533 307.969L275.873 311.481C275.702 312.251 275.517 313.02 275.329 313.788L275.043 314.939L229.705 484.144L229.688 484.249C229.678 484.314 229.661 484.378 229.637 484.44C229.635 484.475 229.63 484.529 229.603 484.616C229.599 484.63 229.6 484.645 229.599 484.658C229.597 484.702 229.593 484.762 229.575 484.831C229.576 484.861 229.578 484.904 229.568 484.954C229.566 484.97 229.563 484.988 229.559 485.007C229.564 485.073 229.56 485.143 229.552 485.187C229.556 485.22 229.563 485.272 229.556 485.333L229.556 485.374C229.562 485.416 229.571 485.472 229.566 485.538C229.574 485.571 229.584 485.619 229.585 485.663C229.585 485.676 229.585 485.691 229.585 485.704L229.591 485.724C229.603 485.774 229.61 485.824 229.613 485.875C229.63 485.924 229.641 485.975 229.648 486.025L229.66 486.077C229.68 486.129 229.688 486.175 229.693 486.217C229.719 486.278 229.734 486.334 229.745 486.378C229.749 486.392 229.752 486.408 229.753 486.412L229.794 486.508C229.82 486.604 229.872 486.709 229.928 486.82C229.953 486.872 229.98 486.923 230.007 486.983C230.038 487.054 230.089 487.131 230.142 487.21C230.187 487.278 230.232 487.345 230.271 487.415C230.323 487.473 230.371 487.536 230.418 487.597C230.476 487.672 230.529 487.744 230.586 487.796C230.631 487.838 230.673 487.883 230.715 487.926C230.791 488.003 230.864 488.079 230.933 488.125L231.004 488.189C231.013 488.197 231.024 488.203 231.035 488.21C231.069 488.232 231.117 488.261 231.162 488.305C231.192 488.321 231.236 488.343 231.269 488.373L231.31 488.402C231.359 488.427 231.407 488.454 231.452 488.489C231.486 488.501 231.533 488.521 231.583 488.555L231.61 488.574C231.61 488.574 231.617 488.575 231.622 488.577C231.661 488.591 231.719 488.612 231.778 488.648C231.845 488.67 231.91 488.697 231.977 488.726C232.067 488.763 232.146 488.797 232.227 488.811L232.255 488.819L232.283 488.826C232.629 488.945 232.953 488.967 233.265 488.987L233.291 488.989C233.356 488.984 233.421 488.985 233.486 488.984C233.58 488.983 233.661 488.984 233.729 488.967L233.796 488.944L233.861 488.952C233.901 488.943 233.957 488.93 234.023 488.927C234.055 488.915 234.104 488.9 234.144 488.896C234.16 488.893 234.175 488.892 234.191 488.89L234.213 488.882C234.261 488.865 234.311 488.852 234.365 488.844C234.414 488.822 234.464 488.806 234.516 488.794L234.567 488.776C234.625 488.747 234.676 488.733 234.711 488.727L234.836 488.668C234.962 488.611 235.087 488.552 235.201 488.489C235.813 488.128 236.3 487.652 236.61 487.115C236.639 487.049 236.673 486.984 236.709 486.919C236.753 486.836 236.792 486.767 236.812 486.694L236.818 486.651L236.853 486.602C236.859 486.586 236.862 486.57 236.866 486.555C236.878 486.51 236.894 486.449 236.929 486.382C236.933 486.352 236.942 486.306 236.959 486.257C236.967 486.224 236.982 486.193 236.988 486.176L237.003 486.141L303.968 236.224L304.662 236.41L237.69 486.355C237.669 486.419 237.663 486.429 237.665 486.42L237.64 486.492C237.634 486.538 237.62 486.622 237.575 486.695C237.567 486.711 237.565 486.729 237.559 486.746C237.545 486.798 237.527 486.866 237.488 486.935C237.446 487.063 237.389 487.166 237.338 487.26C237.311 487.311 237.283 487.359 237.262 487.411L237.242 487.45C236.872 488.102 236.291 488.674 235.556 489.109C235.418 489.186 235.278 489.252 235.137 489.317L235.018 489.372C234.976 489.392 234.931 489.406 234.877 489.419C234.828 489.443 234.757 489.48 234.664 489.494C234.654 489.497 234.643 489.501 234.634 489.506L234.569 489.541L234.497 489.547C234.47 489.55 234.456 489.553 234.445 489.558C234.416 489.57 234.385 489.582 234.355 489.591L234.234 489.609C234.202 489.619 234.17 489.629 234.136 489.636L234.021 489.65C233.975 489.662 233.909 489.676 233.833 489.676C233.706 489.699 233.588 489.699 233.483 489.699C233.428 489.699 233.373 489.699 233.318 489.703L233.21 489.7C232.876 489.677 232.497 489.652 232.071 489.512C231.921 489.483 231.794 489.43 231.692 489.386C231.635 489.361 231.578 489.337 231.519 489.321L231.433 489.298L231.384 489.255C231.384 489.255 231.377 489.253 231.367 489.251C231.319 489.234 231.245 489.207 231.171 489.15C231.143 489.141 231.115 489.128 231.089 489.115L230.996 489.053C230.923 489.024 230.87 488.982 230.823 488.942C230.793 488.926 230.744 488.902 230.694 488.859L230.664 488.83C230.655 488.822 230.644 488.816 230.633 488.809C230.593 488.784 230.538 488.746 230.483 488.693C230.368 488.61 230.273 488.512 230.189 488.425C230.152 488.387 230.117 488.352 230.08 488.316C229.983 488.225 229.905 488.122 229.836 488.031C229.792 487.975 229.749 487.917 229.701 487.863L229.647 487.786C229.613 487.723 229.573 487.664 229.534 487.603C229.469 487.506 229.394 487.395 229.341 487.274C229.32 487.227 229.297 487.182 229.274 487.137C229.214 487.017 229.146 486.884 229.1 486.736C229.065 486.665 229.048 486.597 229.036 486.55C229.032 486.536 229.029 486.52 229.029 486.515L228.997 486.439C228.984 486.402 228.978 486.364 228.979 486.338C228.947 486.263 228.916 486.171 228.912 486.081L228.876 485.973L228.88 485.888L228.861 485.822L228.851 485.678C228.844 485.649 228.837 485.619 228.834 485.588L228.82 485.529L228.832 485.471C228.825 485.421 228.814 485.349 228.825 485.267C228.821 485.234 228.815 485.181 228.822 485.119L228.828 485.062C228.816 484.975 228.832 484.903 228.841 484.861L228.844 484.851L228.842 484.85C228.84 484.815 228.838 484.753 228.864 484.648C228.868 484.636 228.867 484.623 228.868 484.608C228.872 484.552 228.877 484.47 228.909 484.378L228.907 484.378C228.911 484.336 228.915 484.294 228.926 484.253L228.933 484.227L228.943 484.202C228.953 484.179 228.96 484.154 228.962 484.138L228.966 484.11C228.97 484.051 228.985 483.996 228.997 483.951L274.15 315.437L274.616 313.61C274.802 312.847 274.986 312.083 275.153 311.327L275.6 309.001L275.806 307.846L275.977 306.669C276.086 305.886 276.19 305.101 276.287 304.324C276.366 303.536 276.434 302.745 276.499 301.955L276.591 300.78L276.642 299.589C276.674 298.796 276.699 298.001 276.717 297.217C276.713 296.424 276.705 295.628 276.691 294.835L276.663 293.654L276.595 292.463C276.549 291.73 276.498 290.9 276.428 290.097L276.368 289.531C276.222 288.166 276.07 286.752 275.831 285.38L275.748 284.877C275.649 284.272 275.547 283.647 275.426 283.043C275.267 282.266 275.103 281.491 274.932 280.719C272.098 268.335 266.009 256.935 257.326 247.756C254.905 245.226 252.632 243.123 250.374 241.322L249.456 240.58L248.507 239.862C247.871 239.388 247.232 238.918 246.598 238.458C245.944 238.01 245.284 237.566 244.623 237.129L243.635 236.484L242.612 235.863C240.21 234.379 237.459 232.948 234.207 231.494L233.483 231.194C232.286 230.695 231.049 230.18 229.807 229.758C229.064 229.494 228.32 229.236 227.583 228.99L225.328 228.315L224.199 227.99L177.403 215.451L175.279 214.923C169.242 213.461 162.926 212.823 156.504 213.023C143.809 213.447 131.451 217.281 120.764 224.112C120.245 224.439 119.726 224.791 119.224 225.132L118.798 225.42C118.259 225.784 117.554 226.269 116.875 226.783C116.241 227.253 115.611 227.73 114.992 228.206C114.377 228.702 113.767 229.204 113.161 229.71L112.938 229.895C112.71 230.086 112.482 230.278 112.262 230.467L111.095 231.52C110.615 231.959 110.117 232.412 109.646 232.867L109.496 233.016C108.441 234.062 107.349 235.144 106.345 236.278C102.14 240.884 98.5222 246.134 95.5965 251.878C94.0482 254.988 92.8378 257.839 91.8973 260.598C91.3553 262.093 90.9153 263.617 90.4896 265.088L90.332 265.641L0.672113 600.256L0 600.076L89.4178 266.365L89.823 264.887C90.2507 263.402 90.6957 261.866 91.2437 260.356Z" fill="#998675"/>
<path d="M236.961 486.352C236.961 486.352 236.968 486.339 236.972 486.331C236.969 486.337 236.965 486.346 236.961 486.352Z" fill="#998675"/>
<path d="M230.831 488.931C230.831 488.931 230.828 488.93 230.827 488.928C230.828 488.928 230.83 488.929 230.831 488.931Z" fill="#998675"/>
<path d="M94.5774 261.521C95.4748 258.887 96.6351 256.147 98.1292 253.149C100.943 247.628 104.416 242.587 108.449 238.172C109.391 237.107 110.411 236.093 111.398 235.114L111.616 234.898C112.065 234.463 112.535 234.036 112.987 233.623L114.129 232.591C114.344 232.404 114.563 232.22 114.783 232.037L114.997 231.857C115.577 231.374 116.16 230.894 116.756 230.412L118.558 229.052C119.205 228.56 119.86 228.111 120.414 227.737L120.837 227.449C121.313 227.128 121.804 226.794 122.299 226.481C132.56 219.922 144.428 216.24 156.62 215.831C162.79 215.64 168.857 216.255 174.652 217.659L176.691 218.167L223.498 230.708L226.739 231.666C227.453 231.904 228.164 232.154 228.87 232.402C230.046 232.801 231.212 233.286 232.338 233.756L233.101 234.072C236.288 235.501 238.855 236.835 241.175 238.271L242.155 238.865L245.002 240.762L246.833 242.108L247.746 242.8L248.626 243.51C250.784 245.23 252.967 247.251 255.302 249.689C263.641 258.505 269.489 269.453 272.212 281.355L272.684 283.574C272.8 284.156 272.898 284.75 272.991 285.324L273.071 285.817C273.297 287.113 273.441 288.44 273.578 289.721L273.646 290.35C273.708 291.088 273.755 291.839 273.8 292.566L273.87 293.77L273.923 297.195L273.852 299.467L273.801 300.613L273.509 304.019L273.21 306.266L273.047 307.397L272.42 310.737C272.255 311.471 272.081 312.202 271.902 312.933L271.631 314.029L226.295 483.225L226.263 483.393C226.242 483.497 226.215 483.597 226.189 483.667C226.181 483.698 226.178 483.73 226.173 483.761C226.166 483.818 226.158 483.875 226.138 483.955C226.119 484.011 226.113 484.082 226.105 484.162C226.096 484.258 226.084 484.353 226.065 484.422C226.06 484.447 226.061 484.473 226.061 484.499C226.06 484.554 226.058 484.609 226.053 484.641C226.05 484.674 226.046 484.708 226.041 484.742C226.037 484.769 226.031 484.806 226.032 484.817L226.034 484.857C226.035 484.957 226.031 485.057 226.021 485.136C226.02 485.161 226.022 485.188 226.024 485.214C226.028 485.269 226.032 485.324 226.027 485.404C226.022 485.453 226.027 485.516 226.036 485.588C226.043 485.665 226.051 485.752 226.048 485.846C226.051 485.865 226.054 485.887 226.058 485.906C226.069 485.965 226.077 486.024 226.081 486.087L226.091 486.214C226.097 486.24 226.103 486.267 226.106 486.283C226.123 486.367 226.136 486.45 226.143 486.536C226.167 486.618 226.187 486.705 226.207 486.818C226.211 486.864 226.23 486.921 226.252 486.984C226.269 487.039 226.282 487.094 226.294 487.151C226.299 487.175 226.304 487.199 226.311 487.223C226.343 487.302 226.368 487.384 226.392 487.467C226.414 487.545 226.435 487.614 226.461 487.667L226.484 487.722C226.565 487.981 226.692 488.232 226.823 488.497L226.887 488.628C226.977 488.815 227.094 488.995 227.218 489.184C227.28 489.279 227.343 489.373 227.4 489.47C227.467 489.553 227.533 489.636 227.598 489.72C227.739 489.901 227.872 490.073 228.022 490.221L228.148 490.348C228.341 490.544 228.523 490.728 228.723 490.875L228.769 490.915C228.808 490.955 228.865 490.994 228.929 491.039C229.004 491.093 229.079 491.146 229.125 491.19C229.145 491.207 229.169 491.219 229.192 491.232C229.238 491.26 229.286 491.289 229.322 491.315L229.37 491.351C229.404 491.376 229.438 491.402 229.459 491.41L229.492 491.426C229.571 491.469 229.648 491.516 229.721 491.569C229.741 491.578 229.761 491.589 229.781 491.598C229.835 491.624 229.888 491.649 229.966 491.698C230.002 491.724 230.062 491.749 230.126 491.776C230.198 491.806 230.278 491.839 230.362 491.889C230.467 491.927 230.57 491.967 230.674 492.01C230.875 492.092 231.065 492.168 231.304 492.221C232.005 492.446 232.689 492.503 233.232 492.528C233.324 492.525 233.415 492.524 233.507 492.522C233.741 492.518 233.961 492.516 234.174 492.478L234.241 492.472C234.293 492.473 234.357 492.461 234.431 492.445C234.515 492.429 234.599 492.412 234.685 492.407C234.706 492.402 234.727 492.396 234.748 492.391C234.804 492.376 234.863 492.36 234.921 492.352L235.048 492.328C235.075 492.319 235.102 492.309 235.117 492.306C235.201 492.28 235.284 492.262 235.369 492.244C235.45 492.21 235.538 492.181 235.648 492.152C235.689 492.144 235.747 492.118 235.812 492.09C235.863 492.066 235.916 492.049 235.97 492.034C235.999 492.025 236.027 492.017 236.057 492.003C236.354 491.871 236.67 491.728 236.962 491.563C238.128 490.885 239.076 489.947 239.687 488.873C239.733 488.78 239.782 488.687 239.83 488.596C239.936 488.397 240.035 488.21 240.104 488.007L240.131 487.946C240.16 487.894 240.183 487.823 240.208 487.744C240.233 487.663 240.26 487.585 240.294 487.507L240.51 486.769L307.398 237.138L308.093 237.324L241.203 486.962L240.976 487.731L240.957 487.781C240.931 487.839 240.913 487.899 240.892 487.961C240.862 488.054 240.83 488.159 240.776 488.263C240.69 488.508 240.577 488.722 240.467 488.93C240.422 489.016 240.377 489.101 240.324 489.207C239.638 490.411 238.601 491.442 237.318 492.185C236.996 492.366 236.661 492.519 236.348 492.658C236.296 492.681 236.24 492.7 236.185 492.718C236.157 492.727 236.129 492.735 236.097 492.75C236.006 492.791 235.904 492.836 235.811 492.85C235.743 492.869 235.677 492.892 235.614 492.92L235.535 492.943C235.464 492.956 235.397 492.971 235.33 492.992L235.285 493.006C235.254 493.018 235.222 493.028 235.158 493.043L235.034 493.061C235.001 493.067 234.969 493.075 234.937 493.085C234.892 493.097 234.846 493.109 234.801 493.118L234.746 493.123C234.686 493.126 234.628 493.138 234.569 493.15C234.479 493.167 234.378 493.188 234.268 493.19C234.011 493.232 233.759 493.235 233.518 493.239C233.432 493.241 233.344 493.241 233.229 493.246C232.609 493.219 231.872 493.158 231.116 492.915C230.854 492.858 230.624 492.765 230.404 492.676C230.298 492.633 230.192 492.591 230.087 492.554L230.003 492.513C229.955 492.481 229.901 492.461 229.85 492.438C229.756 492.398 229.649 492.355 229.57 492.295C229.539 492.277 229.508 492.261 229.476 492.247C229.438 492.23 229.399 492.21 229.361 492.191L229.321 492.165C229.272 492.128 229.219 492.095 229.164 492.065C229.071 492.024 229 491.969 228.941 491.926L228.895 491.893C228.875 491.879 228.853 491.865 228.83 491.853C228.778 491.823 228.727 491.792 228.66 491.737C228.617 491.696 228.566 491.664 228.518 491.629C228.443 491.575 228.356 491.517 228.275 491.438C228.037 491.261 227.834 491.054 227.635 490.852L227.514 490.729C227.333 490.549 227.179 490.352 227.031 490.16C226.965 490.075 226.898 489.989 226.83 489.905L226.8 489.864C226.742 489.767 226.678 489.672 226.616 489.577C226.484 489.377 226.348 489.168 226.239 488.94L226.178 488.816C226.042 488.544 225.903 488.264 225.804 487.961C225.754 487.856 225.725 487.754 225.699 487.664C225.682 487.603 225.664 487.543 225.641 487.485L225.626 487.444C225.611 487.395 225.6 487.346 225.591 487.297C225.584 487.265 225.578 487.234 225.571 487.21C225.537 487.11 225.503 487.001 225.496 486.908C225.484 486.84 225.467 486.774 225.447 486.707L225.431 486.621C225.427 486.553 225.417 486.486 225.405 486.42L225.396 486.378C225.386 486.344 225.379 486.309 225.372 486.244L225.366 486.121C225.364 486.086 225.357 486.052 225.351 486.017C225.344 485.975 225.336 485.934 225.333 485.89L225.331 485.827C225.336 485.768 225.328 485.713 225.322 485.655C225.311 485.554 225.301 485.442 225.313 485.339C225.314 485.314 225.312 485.289 225.31 485.262C225.305 485.203 225.302 485.143 225.307 485.065C225.314 485.004 225.317 484.941 225.317 484.878C225.309 484.783 225.32 484.703 225.33 484.635L225.341 484.553C225.344 484.527 225.345 484.504 225.344 484.479C225.347 484.415 225.349 484.352 225.365 484.262C225.381 484.203 225.386 484.143 225.391 484.083C225.402 483.979 225.414 483.859 225.447 483.755C225.455 483.724 225.459 483.692 225.463 483.659C225.47 483.606 225.477 483.552 225.498 483.467C225.522 483.393 225.541 483.32 225.556 483.25L225.568 483.186C225.573 483.141 225.584 483.098 225.603 483.029L270.755 314.516L271.203 312.755C271.379 312.028 271.555 311.303 271.716 310.586L272.139 308.374L272.336 307.277L272.792 303.935L272.994 301.681L273.081 300.563L273.202 297.181L273.176 294.916L273.149 293.794L273.081 292.605C273.036 291.882 272.988 291.137 272.927 290.413L272.859 289.792C272.723 288.522 272.581 287.209 272.358 285.932L272.277 285.435C272.183 284.867 272.087 284.28 271.975 283.714L271.504 281.504C268.811 269.734 263.024 258.902 254.775 250.181C252.464 247.767 250.304 245.769 248.169 244.067L247.297 243.362L244.583 241.347L242.704 240.085L241.765 239.472L240.793 238.881C238.499 237.461 235.958 236.14 232.811 234.729L232.057 234.416C230.94 233.951 229.786 233.471 228.63 233.078C227.924 232.828 227.216 232.58 226.517 232.349L224.371 231.707L223.3 231.399L176.505 218.861L174.478 218.356C168.746 216.967 162.744 216.361 156.64 216.549C144.578 216.952 132.835 220.597 122.681 227.086C122.195 227.392 121.708 227.722 121.237 228.043L120.812 228.329C120.266 228.699 119.621 229.14 118.987 229.624L117.195 230.977C116.611 231.447 116.03 231.926 115.455 232.407L115.239 232.586C115.024 232.766 114.808 232.946 114.601 233.128L113.466 234.152C113.018 234.561 112.553 234.985 112.114 235.408L111.901 235.62C110.922 236.591 109.91 237.595 108.98 238.648C104.987 243.02 101.551 248.007 98.7695 253.469C97.2928 256.437 96.1426 259.146 95.2552 261.756C94.7484 263.147 94.3323 264.589 93.9288 265.983L93.768 266.549L4.10485 601.176L3.41016 600.99L92.8279 267.279L93.2369 265.787C93.6437 264.38 94.063 262.926 94.5757 261.52L94.5774 261.521Z" fill="#998675"/>
<path d="M226.282 483.269L226.286 483.221C226.286 483.24 226.285 483.258 226.282 483.269Z" fill="#998675"/>
<path d="M97.914 262.684C98.7584 260.199 99.8597 257.603 101.281 254.745C103.952 249.506 107.243 244.729 111.062 240.548C111.933 239.56 112.877 238.622 113.791 237.714L114.064 237.443C114.479 237.042 114.912 236.649 115.329 236.267L116.451 235.253L118.94 233.19L120.648 231.902C121.255 231.439 121.878 231.011 122.41 230.654L122.828 230.371C123.274 230.069 123.733 229.756 124.197 229.465C133.925 223.247 145.176 219.755 156.737 219.368C162.593 219.187 168.345 219.769 173.833 221.101L175.778 221.583L222.583 234.124L225.658 235.033C226.334 235.259 227.008 235.495 227.676 235.732C228.767 236.1 229.849 236.551 230.894 236.985L231.688 237.315C234.725 238.678 237.158 239.942 239.342 241.296L240.271 241.86L242.97 243.658L244.704 244.933L245.571 245.588L246.403 246.262C248.435 247.881 250.506 249.796 252.733 252.118C260.642 260.477 266.185 270.858 268.769 282.145L269.217 284.25C269.323 284.785 269.414 285.331 269.499 285.858L269.584 286.375C269.795 287.574 269.928 288.803 270.055 289.989L270.129 290.671C270.186 291.34 270.227 292.007 270.271 292.678L270.343 293.914L270.393 297.162L270.324 299.314L270.277 300.4L270 303.63L269.716 305.758L269.562 306.832L268.967 310C268.81 310.694 268.643 311.388 268.476 312.082L268.22 313.121L222.886 482.31C222.877 482.349 222.872 482.368 222.871 482.371L222.839 482.533C222.81 482.668 222.774 482.802 222.743 482.914C222.729 482.97 222.722 483.025 222.713 483.08C222.702 483.15 222.691 483.219 222.671 483.306C222.641 483.419 222.627 483.541 222.61 483.671C222.597 483.791 222.581 483.911 222.56 484.011C222.551 484.065 222.55 484.118 222.547 484.171C222.544 484.237 222.541 484.305 222.533 484.355C222.53 484.397 222.524 484.438 222.52 484.48C222.511 484.549 222.504 484.618 222.507 484.669L222.508 484.714C222.401 486.565 222.834 488.486 223.762 490.273C224.622 491.941 226.007 493.426 227.651 494.445C227.761 494.506 227.867 494.571 227.971 494.642L228.28 494.801L228.314 494.821C228.399 494.877 228.504 494.924 228.616 494.973C228.722 495.02 228.83 495.067 228.932 495.124C229.054 495.17 229.175 495.219 229.298 495.267C229.633 495.401 229.948 495.528 230.316 495.616C231.17 495.881 232.087 496.023 233.189 496.063C235.146 496.082 237.056 495.588 238.715 494.636C240.432 493.645 241.835 492.252 242.763 490.622L242.909 490.341C243.09 490 243.259 489.678 243.383 489.328L243.402 489.284C243.456 489.18 243.497 489.056 243.539 488.926C243.576 488.817 243.613 488.706 243.66 488.595C243.68 488.546 243.692 488.494 243.705 488.44C243.722 488.376 243.738 488.311 243.754 488.256L243.844 487.985L310.814 238.049L311.508 238.236L244.619 487.868L244.438 488.484C244.423 488.524 244.415 488.569 244.404 488.61C244.384 488.692 244.36 488.786 244.321 488.877C244.284 488.968 244.254 489.06 244.222 489.151C244.174 489.294 244.125 489.443 244.052 489.588C243.911 489.977 243.725 490.332 243.544 490.675L243.394 490.961C242.395 492.716 240.901 494.203 239.071 495.256C237.302 496.274 235.264 496.802 233.17 496.779C231.994 496.739 231.019 496.585 230.123 496.306C229.732 496.212 229.373 496.07 229.031 495.932C228.905 495.881 228.778 495.831 228.651 495.784L228.593 495.757C228.508 495.706 228.418 495.667 228.326 495.628C228.198 495.571 228.065 495.513 227.933 495.43L227.622 495.27L227.585 495.249C227.492 495.187 227.396 495.128 227.284 495.065C225.492 493.954 224.051 492.41 223.12 490.604C222.137 488.711 221.675 486.667 221.786 484.693C221.78 484.582 221.793 484.483 221.803 484.393L221.815 484.279C221.821 484.233 221.823 484.185 221.824 484.139C221.827 484.058 221.832 483.978 221.849 483.88C221.869 483.784 221.88 483.686 221.891 483.589C221.91 483.438 221.927 483.282 221.969 483.133C221.981 483.081 221.989 483.025 221.997 482.972C222.009 482.901 222.019 482.827 222.042 482.735C222.077 482.618 222.105 482.502 222.131 482.388L222.154 482.285C222.155 482.265 222.157 482.245 222.189 482.123L267.342 313.611L267.773 311.914C267.94 311.226 268.106 310.537 268.258 309.858L268.66 307.761L268.847 306.722L269.281 303.556L269.471 301.42L269.554 300.362L269.668 297.158L269.644 295.011L269.619 293.949L269.548 292.729C269.506 292.065 269.464 291.4 269.409 290.747L269.334 290.072C269.208 288.897 269.076 287.682 268.869 286.502L268.784 285.98C268.698 285.458 268.61 284.919 268.507 284.401L268.061 282.306C265.509 271.151 260.026 260.886 252.208 252.621C250.005 250.324 247.959 248.429 245.949 246.829L245.125 246.161L242.554 244.251L240.773 243.054L239.885 242.473L238.962 241.914C236.804 240.577 234.397 239.327 231.399 237.982L230.612 237.656C229.579 237.225 228.509 236.781 227.437 236.417C226.769 236.181 226.098 235.945 225.435 235.725L223.4 235.117L222.384 234.824L175.591 222.286L173.657 221.807C168.234 220.491 162.545 219.915 156.755 220.094C145.324 220.477 134.198 223.93 124.577 230.081C124.123 230.367 123.668 230.676 123.229 230.974L122.808 231.258C122.286 231.61 121.672 232.031 121.078 232.483L119.382 233.763L117.731 235.119L116.922 235.802L115.811 236.807C115.398 237.184 114.969 237.574 114.565 237.963L114.296 238.232C113.391 239.131 112.455 240.06 111.596 241.036C107.816 245.172 104.562 249.898 101.922 255.074C100.517 257.9 99.4291 260.468 98.5912 262.928C98.1228 264.211 97.7377 265.544 97.3647 266.832L97.1817 267.473L7.52086 602.092L6.82617 601.906L96.2439 268.194L96.6768 266.627C97.0531 265.327 97.4427 263.984 97.9157 262.684L97.914 262.684Z" fill="#998675"/>
<path d="M101.249 263.848C102.042 261.513 103.081 259.06 104.431 256.344C106.958 251.387 110.07 246.872 113.675 242.929C114.475 242.02 115.342 241.158 116.18 240.325L116.513 239.993C116.894 239.626 117.284 239.27 117.675 238.913L118.769 237.922L121.121 235.973L122.735 234.756C123.308 234.32 123.899 233.914 124.401 233.575L124.829 233.285C125.239 233.006 125.664 232.719 126.091 232.449C135.285 226.571 145.922 223.27 156.852 222.903C162.394 222.733 167.83 223.284 173.011 224.541L173.99 224.779L221.039 237.373L224.576 238.4L226.48 239.059C227.493 239.401 228.492 239.817 229.461 240.219C229.729 240.33 229.995 240.442 230.273 240.556C233.164 241.855 235.463 243.05 237.506 244.318L238.385 244.85L240.936 246.549L242.574 247.756L243.393 248.374L244.178 249.011C246.087 250.528 248.044 252.339 250.163 254.546C257.637 262.448 262.88 272.261 265.322 282.931L265.746 284.921C265.847 285.423 265.93 285.935 266.01 286.43L266.091 286.93C266.287 288.035 266.409 289.164 266.528 290.255L266.608 290.991C266.658 291.583 266.696 292.178 266.734 292.772L266.809 294.054L266.856 297.123L266.791 299.158L266.748 300.185L266.485 303.237L266.218 305.249L266.072 306.266L265.51 309.26C265.362 309.917 265.205 310.572 265.046 311.229L264.803 312.212L219.471 481.393C219.457 481.452 219.454 481.468 219.451 481.482C219.446 481.5 219.445 481.518 219.438 481.542L219.41 481.668C219.372 481.838 219.331 482.007 219.288 482.159C219.27 482.239 219.256 482.319 219.244 482.399C219.23 482.481 219.217 482.564 219.197 482.659C219.152 482.825 219.133 483 219.11 483.185C219.092 483.329 219.074 483.472 219.049 483.599C219.037 483.68 219.032 483.76 219.028 483.839C219.023 483.917 219.019 483.996 219.01 484.064C219.006 484.113 219 484.163 218.994 484.214C218.983 484.318 218.971 484.417 218.975 484.541C218.836 487.027 219.41 489.58 220.634 491.925C221.801 494.176 223.59 496.092 225.802 497.458C225.949 497.542 226.093 497.631 226.205 497.705L226.66 497.944C226.794 498.028 226.944 498.094 227.103 498.167C227.236 498.226 227.369 498.286 227.498 498.356C227.615 498.402 227.735 498.449 227.852 498.497C228.32 498.684 228.807 498.879 229.32 499.009C230.468 499.359 231.713 499.554 233.121 499.597C235.712 499.629 238.247 498.976 240.456 497.707C242.722 496.403 244.582 494.554 245.826 492.37L245.932 492.172C246.203 491.66 246.46 491.178 246.668 490.619C246.743 490.462 246.803 490.288 246.865 490.105C246.91 489.974 246.954 489.843 247.006 489.71C247.038 489.635 247.057 489.557 247.076 489.476C247.097 489.4 247.117 489.324 247.139 489.258L247.251 488.902L314.221 238.966L314.916 239.152L248.028 488.781L247.823 489.476C247.804 489.534 247.787 489.595 247.773 489.656C247.743 489.766 247.713 489.877 247.674 489.978C247.627 490.095 247.586 490.214 247.547 490.332C247.481 490.529 247.412 490.732 247.33 490.897C247.12 491.468 246.841 491.996 246.568 492.507L246.458 492.714C245.146 495.019 243.194 496.962 240.816 498.329C238.497 499.661 235.833 500.348 233.108 500.314C231.629 500.268 230.323 500.065 229.129 499.7C228.58 499.562 228.077 499.361 227.588 499.165C227.464 499.115 227.341 499.065 227.216 499.017L227.172 498.996C227.055 498.931 226.933 498.878 226.812 498.823C226.638 498.745 226.456 498.665 226.305 498.569L225.845 498.327C225.715 498.242 225.582 498.162 225.437 498.078C223.105 496.637 221.223 494.624 219.998 492.257C218.714 489.798 218.113 487.115 218.258 484.536C218.252 484.393 218.266 484.256 218.28 484.134L218.294 483.991C218.302 483.926 218.305 483.86 218.309 483.796C218.314 483.694 218.321 483.593 218.339 483.478C218.364 483.351 218.379 483.223 218.395 483.096C218.418 482.896 218.444 482.691 218.495 482.493C218.51 482.423 218.521 482.352 218.533 482.279C218.549 482.185 218.565 482.091 218.589 481.981C218.631 481.823 218.673 481.667 218.706 481.509L218.74 481.357C218.744 481.332 218.748 481.303 218.776 481.201L263.929 312.689L264.344 311.056C264.502 310.404 264.659 309.754 264.803 309.112L265.182 307.13L265.359 306.149L265.768 303.157L265.948 301.138L266.027 300.14L266.134 297.115L266.11 295.086L266.089 294.082L266.013 292.815C265.975 292.226 265.938 291.637 265.89 291.058L265.81 290.328C265.694 289.249 265.572 288.132 265.38 287.048L265.297 286.541C265.217 286.052 265.135 285.548 265.038 285.061L264.617 283.082C262.205 272.541 257.025 262.842 249.64 255.037C247.546 252.855 245.613 251.066 243.728 249.566L242.949 248.934L240.521 247.131L238.84 246.002L238 245.452L237.129 244.924C235.11 243.672 232.837 242.49 229.988 241.209C229.72 241.098 229.45 240.987 229.182 240.876C228.226 240.479 227.236 240.067 226.246 239.733L224.354 239.077L222.428 238.502L221.468 238.224L174.675 225.686L172.839 225.231C167.72 223.99 162.348 223.445 156.872 223.614C146.073 223.976 135.562 227.239 126.475 233.047C126.056 233.31 125.637 233.595 125.231 233.87L124.801 234.161C124.306 234.494 123.726 234.894 123.167 235.319L121.564 236.528L120.005 237.81L119.241 238.453L118.159 239.434C117.773 239.785 117.388 240.137 117.017 240.495L116.687 240.823C115.857 241.649 114.999 242.502 114.21 243.397C110.644 247.299 107.57 251.761 105.073 256.655C103.74 259.339 102.713 261.763 101.927 264.076C101.495 265.259 101.138 266.488 100.793 267.678L100.594 268.37L10.9291 603.005L10.2344 602.819L99.6521 269.107L100.099 267.486C100.447 266.286 100.808 265.045 101.246 263.845L101.249 263.848Z" fill="#998675"/>
<path d="M104.585 265.011C105.327 262.827 106.306 260.514 107.582 257.941C112.211 248.771 119.267 240.987 127.987 235.432C136.648 229.895 146.669 226.786 156.965 226.439C162.193 226.279 167.314 226.8 172.189 227.983L173.111 228.208L220.121 240.791L221.652 241.222C231.371 243.952 240.582 249.549 247.592 256.981C254.635 264.423 259.573 273.671 261.877 283.727L262.276 285.6C262.368 286.062 262.444 286.534 262.519 286.99L262.603 287.491C262.785 288.508 262.897 289.548 263.006 290.553L263.089 291.319C263.133 291.85 263.167 292.383 263.201 292.915L263.278 294.205L263.321 297.094L263.258 299.009L263.218 299.978L262.971 302.853L262.581 305.706L262.049 308.53L261.611 310.381L261.383 311.309L216.053 480.481C216.036 480.545 216.034 480.567 216.03 480.59L215.981 480.807C215.933 481.013 215.884 481.217 215.833 481.407C215.81 481.513 215.792 481.617 215.772 481.723C215.757 481.817 215.74 481.913 215.718 482.018C215.663 482.241 215.634 482.469 215.604 482.712C215.584 482.877 215.562 483.042 215.536 483.194C215.521 483.3 215.515 483.408 215.507 483.513C215.501 483.604 215.495 483.697 215.486 483.78L215.469 483.954C215.454 484.093 215.441 484.223 215.443 484.375C215.272 487.495 215.987 490.677 217.509 493.583C218.969 496.393 221.202 498.78 223.955 500.479C224.132 500.583 224.309 500.689 224.46 500.785L225.014 501.078C225.195 501.188 225.392 501.278 225.602 501.371C225.758 501.441 225.916 501.513 226.068 501.593L226.341 501.703C226.978 501.959 227.632 502.223 228.329 502.405C229.784 502.846 231.33 503.084 233.058 503.132C236.281 503.175 239.442 502.362 242.199 500.779C245.016 499.163 247.334 496.858 248.891 494.121L248.921 494.066C249.282 493.394 249.654 492.698 249.937 491.95C250.036 491.737 250.114 491.511 250.195 491.27C250.247 491.12 250.298 490.969 250.357 490.819C250.397 490.719 250.423 490.613 250.452 490.507C250.475 490.419 250.499 490.332 250.526 490.252L250.662 489.812L317.632 239.876L318.327 240.062L251.438 489.695L251.212 490.47C251.188 490.543 251.168 490.619 251.148 490.694C251.113 490.825 251.077 490.959 251.028 491.081C250.974 491.22 250.926 491.362 250.877 491.502C250.792 491.751 250.705 492.006 250.599 492.228C250.312 492.995 249.926 493.712 249.554 494.404L249.521 494.468C247.893 497.325 245.486 499.723 242.557 501.402C239.688 503.049 236.399 503.895 233.043 503.849C231.245 503.8 229.637 503.553 228.135 503.095C227.428 502.907 226.731 502.633 226.072 502.368L225.781 502.251L225.747 502.234C225.603 502.159 225.454 502.091 225.305 502.023C225.086 501.923 224.858 501.821 224.66 501.7L224.101 501.403C223.933 501.297 223.765 501.197 223.587 501.091C220.715 499.32 218.392 496.836 216.872 493.911C215.291 490.892 214.548 487.579 214.725 484.359C214.722 484.19 214.737 484.03 214.755 483.876L214.77 483.705C214.779 483.624 214.784 483.542 214.789 483.462C214.799 483.336 214.806 483.212 214.825 483.076C214.851 482.924 214.872 482.77 214.891 482.617C214.923 482.366 214.955 482.107 215.016 481.856C215.034 481.77 215.05 481.684 215.064 481.596C215.084 481.479 215.105 481.361 215.134 481.231C215.187 481.034 215.234 480.837 215.279 480.641L215.323 480.443C215.329 480.411 215.334 480.378 215.361 480.286L260.514 311.774L261.344 308.374L261.868 305.585L262.253 302.768L262.496 299.929L262.597 297.08L262.574 295.17L262.553 294.228L262.477 292.955C262.443 292.428 262.41 291.9 262.366 291.383L262.283 290.624C262.174 289.632 262.064 288.605 261.886 287.609L261.803 287.1C261.73 286.65 261.655 286.187 261.566 285.742L261.168 283.878C258.895 273.951 254.019 264.82 247.065 257.47C240.143 250.131 231.047 244.604 221.45 241.908L220.546 241.648L173.756 229.11L172.015 228.679C167.204 227.51 162.146 226.997 156.983 227.154C146.816 227.497 136.922 230.568 128.369 236.036C119.757 241.521 112.79 249.208 108.221 258.259C106.961 260.801 105.992 263.083 105.26 265.246C104.864 266.327 104.536 267.453 104.22 268.541L104.004 269.292L14.3412 603.919L13.6465 603.733L103.064 270.021L103.529 268.342C103.85 267.243 104.18 266.107 104.582 265.01L104.585 265.011Z" fill="#998675"/>
<path d="M107.921 266.175C108.609 264.143 109.529 261.973 110.734 259.539C115.077 250.936 121.699 243.631 129.884 238.416C138.013 233.218 147.417 230.3 157.081 229.973C161.992 229.825 166.8 230.311 171.37 231.423L172.237 231.633L219.208 244.206L220.682 244.619C229.798 247.179 238.444 252.431 245.026 259.406C251.637 266.391 256.273 275.072 258.434 284.513L258.808 286.27C258.892 286.691 258.962 287.12 259.03 287.533L259.114 288.044C259.282 288.976 259.385 289.926 259.484 290.845C259.513 291.105 259.541 291.365 259.572 291.635C259.613 292.117 259.643 292.602 259.673 293.085L259.75 294.343L259.79 297.053L259.694 299.761L259.463 302.458L259.097 305.136L258.599 307.787L257.973 310.395L212.645 479.558C212.628 479.624 212.623 479.655 212.618 479.683L212.385 480.647C212.356 480.776 212.335 480.906 212.311 481.035C212.292 481.143 212.273 481.253 212.249 481.371C212.183 481.652 212.147 481.937 212.108 482.238C212.084 482.423 212.061 482.608 212.031 482.78C212.013 482.912 212.003 483.045 211.995 483.179C211.988 483.284 211.98 483.388 211.971 483.486L211.952 483.679C211.936 483.853 211.92 484.016 211.921 484.2C211.719 487.953 212.573 491.768 214.391 495.232C216.148 498.602 218.82 501.46 222.118 503.492L222.72 503.855L223.375 504.203C223.607 504.34 223.852 504.452 224.114 504.572C224.298 504.657 224.481 504.739 224.631 504.818L224.778 504.878C225.594 505.21 226.435 505.552 227.314 505.788C227.326 505.791 227.338 505.794 227.35 505.797C229.083 506.321 230.987 506.612 233.006 506.665C236.862 506.721 240.647 505.746 243.955 503.849C247.324 501.92 250.096 499.16 251.97 495.87C252.452 494.98 252.878 494.174 253.219 493.276C253.343 493.007 253.44 492.723 253.544 492.426C253.601 492.26 253.659 492.094 253.72 491.928C253.769 491.802 253.804 491.67 253.839 491.539C253.866 491.44 253.893 491.34 253.925 491.248L254.083 490.725L321.053 240.789L321.748 240.975L254.858 490.611L254.609 491.467C254.579 491.555 254.556 491.644 254.532 491.734C254.49 491.888 254.446 492.041 254.39 492.187C254.33 492.346 254.275 492.505 254.221 492.665C254.117 492.968 254.01 493.279 253.88 493.559C253.533 494.476 253.076 495.338 252.595 496.224C250.654 499.632 247.788 502.486 244.309 504.478C240.891 506.44 236.977 507.447 232.988 507.39C230.901 507.335 228.933 507.034 227.153 506.494C226.218 506.244 225.353 505.893 224.506 505.549L224.33 505.476C224.162 505.388 223.989 505.31 223.816 505.233C223.549 505.111 223.274 504.985 223.025 504.837L222.368 504.488L221.746 504.114C218.335 502.013 215.571 499.058 213.758 495.574C211.879 491.996 210.997 488.053 211.204 484.193C211.202 483.994 211.221 483.804 211.239 483.618L211.257 483.426C211.268 483.331 211.273 483.234 211.281 483.137C211.291 482.988 211.303 482.839 211.324 482.682C211.353 482.507 211.375 482.332 211.398 482.156C211.437 481.851 211.479 481.534 211.551 481.226C211.571 481.124 211.589 481.021 211.607 480.92C211.631 480.78 211.656 480.64 211.688 480.493L211.917 479.545C211.926 479.507 211.933 479.466 211.958 479.38L257.111 310.866L257.9 307.644L258.392 305.028L258.754 302.387L258.982 299.724L259.077 297.054L259.036 294.38L258.961 293.139C258.931 292.66 258.9 292.18 258.861 291.713C258.83 291.453 258.802 291.191 258.775 290.929C258.676 290.021 258.573 289.085 258.411 288.173L258.327 287.655C258.261 287.248 258.192 286.825 258.11 286.421L257.737 284.673C255.605 275.362 251.031 266.797 244.509 259.906C238.014 253.022 229.485 247.841 220.49 245.315L219.641 245.069L172.852 232.532L171.206 232.125C166.699 231.028 161.957 230.548 157.111 230.695C147.577 231.016 138.298 233.896 130.277 239.024C122.201 244.17 115.667 251.376 111.385 259.862C110.196 262.263 109.287 264.404 108.607 266.415C108.243 267.403 107.943 268.432 107.654 269.429L107.428 270.211L17.765 604.836L17.0703 604.65L106.488 270.939L106.963 269.229C107.257 268.222 107.56 267.181 107.929 266.178L107.921 266.175Z" fill="#998675"/>
<path d="M111.256 267.339C111.902 265.43 112.737 263.46 113.884 261.137C117.942 253.099 124.13 246.274 131.78 241.399C139.377 236.542 148.166 233.815 157.198 233.509C161.795 233.372 166.287 233.828 170.549 234.866L171.575 235.115C171.781 235.164 171.989 235.216 172.113 235.251L218.291 247.625L219.707 248.023C228.221 250.413 236.301 255.321 242.456 261.84C248.633 268.366 252.966 276.48 254.988 285.308L255.338 286.949C255.415 287.335 255.478 287.723 255.542 288.111C255.568 288.278 255.596 288.443 255.623 288.606C255.776 289.454 255.87 290.318 255.963 291.154C255.992 291.42 256.021 291.685 256.053 291.963C256.089 292.399 256.117 292.837 256.144 293.275L256.219 294.492L256.257 297.024L256.167 299.553L255.95 302.074L255.609 304.576L255.142 307.054L254.757 308.678L209.397 478.039L208.932 479.9C208.898 480.056 208.871 480.214 208.842 480.369C208.821 480.488 208.8 480.608 208.774 480.735C208.697 481.076 208.652 481.419 208.605 481.783C208.578 481.985 208.553 482.186 208.521 482.38C208.499 482.539 208.487 482.701 208.476 482.861C208.467 482.978 208.458 483.094 208.448 483.203L208.427 483.418C208.407 483.624 208.39 483.82 208.39 484.035C208.157 488.422 209.151 492.867 211.267 496.892C213.317 500.822 216.431 504.15 220.267 506.511L220.981 506.939C221.115 507.014 221.252 507.086 221.388 507.158C221.499 507.215 221.609 507.275 221.73 507.338C222.013 507.503 222.31 507.64 222.627 507.785C222.827 507.877 223.03 507.969 223.202 508.057C224.159 508.451 225.245 508.898 226.355 509.196L226.359 509.197C228.393 509.808 230.608 510.148 232.94 510.205C237.429 510.272 241.841 509.139 245.699 506.925C249.616 504.685 252.846 501.467 255.035 497.626C255.52 496.74 256.071 495.703 256.491 494.61C256.639 494.278 256.758 493.939 256.883 493.577C256.945 493.399 257.007 493.219 257.073 493.04C257.131 492.889 257.173 492.731 257.217 492.574C257.246 492.463 257.278 492.353 257.311 492.249L257.495 491.641L324.465 241.705L325.159 241.892L258.27 491.526L257.998 492.464C257.966 492.565 257.938 492.669 257.909 492.771C257.862 492.944 257.811 493.121 257.745 493.297C257.681 493.468 257.621 493.643 257.561 493.817C257.437 494.177 257.307 494.55 257.153 494.889C256.726 496.005 256.16 497.065 255.662 497.98C253.406 501.94 250.084 505.251 246.055 507.553C242.085 509.83 237.547 510.996 232.926 510.926C230.527 510.868 228.251 510.518 226.163 509.892L226.158 509.89C225.013 509.584 223.907 509.128 222.904 508.714C222.716 508.619 222.522 508.53 222.33 508.442C222.013 508.296 221.685 508.146 221.381 507.968C221.275 507.911 221.168 507.854 221.059 507.799C220.918 507.724 220.774 507.65 220.623 507.565L219.899 507.13C215.947 504.698 212.743 501.273 210.633 497.229C208.456 493.091 207.434 488.516 207.674 484.019C207.674 483.791 207.694 483.568 207.715 483.353L207.733 483.139C207.744 483.029 207.753 482.92 207.76 482.81C207.773 482.636 207.787 482.46 207.811 482.277C207.843 482.083 207.867 481.887 207.894 481.692C207.941 481.328 207.989 480.953 208.072 480.588C208.096 480.473 208.115 480.36 208.136 480.245C208.166 480.079 208.196 479.912 208.235 479.739L208.436 478.911L253.696 309.949L254.441 306.905L254.901 304.461L255.238 301.994L255.451 299.509L255.54 297.017L255.502 294.52L255.428 293.321C255.401 292.887 255.374 292.455 255.34 292.033C255.309 291.767 255.28 291.498 255.251 291.232C255.161 290.408 255.069 289.558 254.92 288.731C254.892 288.564 254.864 288.396 254.837 288.227C254.775 287.847 254.715 287.469 254.639 287.096L254.291 285.464C252.299 276.767 248.028 268.768 241.937 262.336C235.87 255.908 227.907 251.072 219.514 248.717L171.927 235.947C171.802 235.912 171.605 235.865 171.408 235.816L170.383 235.567C166.182 234.545 161.755 234.096 157.224 234.23C148.322 234.532 139.659 237.22 132.17 242.008C124.63 246.814 118.529 253.542 114.531 261.46C113.398 263.751 112.576 265.692 111.938 267.581C111.607 268.475 111.334 269.41 111.072 270.314L110.835 271.126L21.1732 605.75L20.4785 605.564L109.896 271.852L110.381 270.112C110.649 269.196 110.925 268.25 111.26 267.34L111.256 267.339Z" fill="#998675"/>
<path d="M114.592 268.503C115.183 266.746 115.959 264.915 117.034 262.736C120.806 255.265 126.561 248.919 133.675 244.384C140.739 239.868 148.911 237.33 157.312 237.044C161.596 236.917 165.772 237.343 169.728 238.306L170.674 238.535C170.868 238.582 171.065 238.631 171.197 238.668L217.375 251.041L218.733 251.424C226.645 253.644 234.158 258.207 239.888 264.271C245.633 270.34 249.664 277.886 251.545 286.099L251.87 287.624C251.942 287.976 251.999 288.331 252.057 288.686C252.083 288.847 252.108 289.007 252.135 289.165C252.273 289.933 252.36 290.715 252.442 291.472C252.471 291.739 252.5 292.007 252.533 292.287C252.564 292.671 252.589 293.057 252.612 293.442L252.686 294.639L252.721 296.994L252.639 299.345L252.437 301.688L252.119 304.015L251.685 306.322L251.327 307.833L205.984 477.13L205.479 479.154C205.437 479.338 205.404 479.524 205.371 479.71C205.348 479.839 205.324 479.968 205.297 480.104C205.207 480.508 205.155 480.913 205.097 481.343C205.069 481.558 205.04 481.773 205.008 481.982C204.984 482.17 204.968 482.359 204.955 482.548C204.945 482.675 204.935 482.803 204.923 482.924L204.903 483.145C204.88 483.391 204.859 483.623 204.859 483.873C204.593 488.895 205.728 493.972 208.141 498.555C210.486 503.045 214.042 506.844 218.419 509.535L219.234 510.024C219.394 510.113 219.557 510.2 219.719 510.284C219.838 510.347 219.959 510.409 220.085 510.478C220.422 510.673 220.774 510.834 221.145 511.005C221.362 511.106 221.579 511.205 221.771 511.301C222.96 511.794 224.128 512.265 225.365 512.6C227.7 513.3 230.227 513.686 232.872 513.749C237.994 513.826 243.031 512.534 247.438 510.007C251.907 507.455 255.592 503.78 258.095 499.387C258.676 498.329 259.279 497.182 259.755 495.948C259.93 495.553 260.077 495.129 260.22 494.72C260.285 494.533 260.35 494.345 260.419 494.157C260.486 493.978 260.537 493.794 260.588 493.609C260.621 493.488 260.657 493.367 260.693 493.253L260.901 492.563L327.871 242.627L328.565 242.813L261.678 492.439L261.383 493.458C261.347 493.571 261.315 493.685 261.284 493.799C261.228 493.995 261.171 494.199 261.097 494.4C261.029 494.582 260.967 494.766 260.903 494.949C260.756 495.372 260.604 495.81 260.424 496.216C259.938 497.476 259.322 498.647 258.726 499.732C256.157 504.243 252.378 508.01 247.798 510.625C243.28 513.216 238.115 514.541 232.861 514.462C230.148 514.397 227.557 514.002 225.172 513.287C223.903 512.943 222.71 512.464 221.476 511.951C221.267 511.847 221.056 511.752 220.846 511.654C220.476 511.485 220.094 511.308 219.736 511.103C219.62 511.04 219.503 510.979 219.387 510.917C219.219 510.829 219.049 510.739 218.874 510.642L218.047 510.146C213.556 507.384 209.911 503.49 207.505 498.886C205.032 494.188 203.869 488.983 204.141 483.85C204.141 483.586 204.166 483.326 204.188 483.076L204.208 482.855C204.22 482.734 204.229 482.612 204.239 482.49C204.254 482.288 204.269 482.086 204.297 481.877C204.329 481.666 204.358 481.457 204.384 481.247C204.44 480.822 204.499 480.381 204.593 479.952C204.619 479.827 204.641 479.703 204.664 479.578C204.699 479.383 204.735 479.188 204.779 478.987L205.007 478.046L250.28 309.035L250.983 306.169L251.411 303.898L251.724 301.607L251.921 299.3L252.003 296.986L251.967 294.668L251.895 293.487C251.87 293.105 251.845 292.726 251.817 292.358C251.785 292.09 251.755 291.819 251.727 291.549C251.645 290.806 251.561 290.035 251.426 289.289C251.399 289.125 251.372 288.962 251.345 288.799C251.289 288.454 251.234 288.109 251.165 287.769L250.841 286.254C248.99 278.171 245.021 270.741 239.364 264.765C233.723 258.795 226.327 254.303 218.535 252.115L171.006 239.361C170.876 239.324 170.687 239.279 170.504 239.234L169.558 239.004C165.665 238.056 161.551 237.638 157.334 237.763C149.063 238.042 141.016 240.541 134.062 244.988C127.056 249.455 121.39 255.704 117.678 263.055C116.619 265.203 115.855 267.006 115.27 268.742C114.97 269.55 114.723 270.397 114.485 271.213L114.244 272.037L24.5814 606.663L23.8867 606.477L113.304 272.765L113.794 271.013C114.037 270.184 114.288 269.325 114.592 268.503Z" fill="#998675"/>
<path d="M117.929 269.666C118.469 268.061 119.185 266.366 120.188 264.332C123.674 257.429 128.995 251.562 135.573 247.365C142.104 243.189 149.662 240.843 157.43 240.579C161.398 240.462 165.261 240.855 168.911 241.746L169.789 241.959C169.967 242.001 170.146 242.043 170.285 242.085L216.463 254.458L217.765 254.825C225.181 256.905 231.945 261.013 237.323 266.701C242.636 272.312 246.364 279.291 248.104 286.89L248.404 288.299C248.469 288.619 248.521 288.94 248.572 289.262C248.598 289.418 248.622 289.572 248.648 289.722C248.777 290.417 248.853 291.126 248.928 291.811C248.957 292.072 248.985 292.334 249.018 292.614L249.161 294.784L249.194 296.96L249.116 299.132L248.93 301.3L248.637 303.451L248.234 305.585L247.901 306.982L202.576 476.214L202.031 478.401C201.983 478.616 201.943 478.832 201.904 479.048C201.879 479.184 201.853 479.322 201.826 479.465C201.724 479.936 201.658 480.431 201.596 480.908C201.565 481.133 201.536 481.358 201.504 481.575C201.476 481.792 201.458 482.01 201.441 482.228C201.43 482.366 201.419 482.504 201.406 482.636L201.385 482.868C201.359 483.151 201.336 483.419 201.334 483.704C201.036 489.36 202.312 495.067 205.023 500.21C207.663 505.259 211.659 509.527 216.577 512.55L217.494 513.1C217.681 513.206 217.874 513.305 218.065 513.407C218.19 513.474 218.316 513.539 218.449 513.612C218.843 513.836 219.269 514.032 219.68 514.222C219.912 514.328 220.144 514.435 220.351 514.539C221.546 515.039 222.94 515.603 224.383 515.997C227.018 516.783 229.856 517.217 232.816 517.285C238.572 517.374 244.235 515.921 249.191 513.082C254.21 510.217 258.353 506.087 261.169 501.142C261.781 500.031 262.482 498.707 263.036 497.278C263.24 496.817 263.41 496.326 263.575 495.852C263.642 495.657 263.71 495.464 263.779 495.269C263.854 495.068 263.911 494.859 263.974 494.64C264.011 494.509 264.05 494.379 264.087 494.251L264.317 493.478L331.287 243.542L331.982 243.728L265.095 493.354L264.777 494.455C264.738 494.58 264.703 494.706 264.668 494.83C264.604 495.052 264.539 495.282 264.456 495.508C264.386 495.699 264.32 495.891 264.254 496.083C264.084 496.572 263.909 497.076 263.701 497.549C263.137 499.001 262.423 500.353 261.796 501.49C258.914 506.551 254.677 510.774 249.548 513.703C244.481 516.607 238.69 518.093 232.803 518.001C229.776 517.933 226.872 517.488 224.185 516.685C222.709 516.282 221.289 515.707 220.054 515.19C219.83 515.08 219.604 514.977 219.378 514.872C218.952 514.676 218.513 514.473 218.099 514.238C217.976 514.171 217.853 514.107 217.729 514.042C217.531 513.939 217.336 513.835 217.132 513.721L216.202 513.163C211.171 510.071 207.085 505.707 204.387 500.544C201.614 495.287 200.311 489.451 200.616 483.683C200.617 483.384 200.644 483.089 200.671 482.803L200.692 482.571C200.705 482.439 200.715 482.305 200.726 482.172C200.745 481.942 200.762 481.711 200.794 481.476C200.827 481.255 200.856 481.034 200.885 480.814C200.95 480.323 201.017 479.814 201.124 479.319C201.15 479.187 201.175 479.053 201.199 478.92C201.241 478.696 201.281 478.471 201.333 478.24L201.588 477.185L246.872 308.126L247.533 305.438L247.928 303.339L248.218 301.222L248.401 299.091L248.477 296.955L248.443 294.816L248.303 292.686C248.271 292.421 248.242 292.157 248.214 291.894C248.141 291.221 248.064 290.527 247.941 289.854C247.914 289.696 247.89 289.539 247.865 289.382C247.814 289.07 247.764 288.758 247.702 288.452L247.404 287.053C245.693 279.585 242.026 272.72 236.802 267.203C231.512 261.609 224.863 257.571 217.568 255.524L170.098 242.786C169.963 242.748 169.791 242.707 169.623 242.666L168.744 242.453C165.156 241.576 161.358 241.19 157.455 241.305C149.817 241.565 142.386 243.873 135.963 247.98C129.493 252.108 124.262 257.876 120.835 264.661C119.85 266.665 119.143 268.329 118.61 269.915C118.34 270.637 118.119 271.396 117.906 272.127L117.662 272.96L28.0013 607.579L27.3066 607.393L116.724 273.681L117.217 271.919C117.435 271.174 117.66 270.405 117.934 269.667L117.929 269.666Z" fill="#998675"/>
<path d="M120.621 272.841C120.816 272.175 121.018 271.487 121.264 270.831C121.757 269.36 122.396 267.848 123.338 265.93C126.538 259.594 131.424 254.205 137.468 250.349C143.466 246.514 150.408 244.359 157.544 244.115C161.198 244.01 164.746 244.371 168.09 245.189L168.518 245.293C168.805 245.36 169.092 245.43 169.366 245.503L215.544 257.876L216.787 258.226C223.593 260.135 229.805 263.906 234.75 269.133C239.631 274.285 243.056 280.698 244.656 287.683L244.933 288.976C244.991 289.26 245.037 289.547 245.082 289.836C245.107 289.987 245.13 290.136 245.156 290.282C245.271 290.903 245.34 291.532 245.407 292.144C245.436 292.404 245.464 292.662 245.497 292.94L245.629 294.931L245.659 296.928L245.588 298.922L245.417 300.912L245.145 302.889L244.776 304.85L244.471 306.128C244.332 306.729 244.181 307.288 244.035 307.832C243.966 308.089 243.897 308.347 243.826 308.611L199.162 475.302C199.065 475.662 198.952 476.084 198.859 476.488L198.579 477.651C198.524 477.896 198.478 478.143 198.434 478.393C198.407 478.536 198.381 478.679 198.353 478.828C198.237 479.37 198.162 479.936 198.09 480.483C198.06 480.714 198.029 480.947 197.995 481.172C197.963 481.421 197.943 481.672 197.922 481.92C197.91 482.065 197.899 482.209 197.885 482.35L197.865 482.588C197.836 482.91 197.809 483.213 197.806 483.537C197.476 489.825 198.892 496.163 201.9 501.867C204.834 507.476 209.272 512.214 214.727 515.567L215.747 516.178C215.963 516.301 216.186 516.416 216.406 516.532C216.536 516.601 216.666 516.671 216.803 516.744C217.256 516.999 217.743 517.225 218.213 517.443C218.456 517.555 218.698 517.668 218.92 517.776C220.314 518.361 221.819 518.962 223.392 519.393C226.328 520.267 229.476 520.749 232.752 520.821C239.141 520.923 245.427 519.31 250.934 516.154C256.504 512.977 261.102 508.39 264.233 502.894C264.865 501.754 265.672 500.235 266.307 498.606C266.539 498.076 266.734 497.512 266.923 496.969C266.993 496.771 267.06 496.574 267.132 496.376C267.215 496.147 267.282 495.913 267.352 495.666C267.393 495.525 267.434 495.382 267.475 495.25C267.513 495.112 267.555 494.979 267.594 494.844C267.667 494.6 267.742 494.357 267.811 494.086L334.699 244.455L335.394 244.641L268.508 494.263C268.437 494.54 268.362 494.794 268.285 495.046C268.246 495.177 268.207 495.309 268.166 495.45C268.124 495.586 268.085 495.722 268.045 495.859C267.973 496.107 267.901 496.363 267.809 496.615C267.738 496.809 267.67 497.006 267.603 497.201C267.409 497.758 267.209 498.333 266.972 498.877C266.327 500.533 265.506 502.078 264.86 503.242C261.665 508.854 256.972 513.534 251.291 516.775C245.672 519.994 239.258 521.64 232.737 521.537C229.397 521.462 226.183 520.972 223.192 520.082C221.586 519.642 220.055 519.03 218.621 518.427C218.386 518.312 218.147 518.201 217.909 518.091C217.425 517.867 216.925 517.636 216.453 517.371C216.324 517.301 216.196 517.233 216.067 517.165C215.84 517.045 215.613 516.927 215.382 516.796L214.349 516.178C208.779 512.756 204.252 507.921 201.258 502.198C198.189 496.381 196.747 489.914 197.081 483.51C197.086 483.175 197.115 482.843 197.144 482.521L197.165 482.281C197.178 482.14 197.19 482.001 197.2 481.859C197.222 481.597 197.242 481.335 197.278 481.069C197.311 480.84 197.34 480.612 197.372 480.383C197.446 479.822 197.523 479.242 197.643 478.678C197.671 478.539 197.696 478.397 197.722 478.258C197.768 478.001 197.816 477.745 197.873 477.484L198.154 476.319C198.249 475.909 198.363 475.477 198.463 475.111L243.126 308.423C243.197 308.16 243.267 307.898 243.337 307.639C243.48 307.102 243.632 306.549 243.768 305.96L244.071 304.696L244.434 302.771L244.7 300.829L244.868 298.876L244.937 296.916L244.907 294.956L244.779 293.004C244.747 292.741 244.718 292.479 244.69 292.217C244.624 291.621 244.557 291.003 244.445 290.406C244.42 290.252 244.394 290.099 244.37 289.946C244.325 289.668 244.282 289.391 244.226 289.12L243.952 287.837C242.382 280.984 239.019 274.687 234.226 269.627C229.371 264.495 223.273 260.792 216.587 258.918L169.178 246.199C168.911 246.127 168.629 246.061 168.349 245.993L167.916 245.888C164.635 245.085 161.151 244.73 157.564 244.834C150.558 245.074 143.742 247.191 137.853 250.956C131.918 254.743 127.119 260.033 123.98 266.252C123.054 268.138 122.426 269.621 121.94 271.073C121.699 271.716 121.501 272.392 121.311 273.044L121.16 273.56C121.006 274.094 120.868 274.614 120.731 275.132C120.654 275.421 120.577 275.708 120.499 275.999L31.4077 608.492L30.713 608.306L119.805 275.81C119.883 275.519 119.96 275.233 120.037 274.946C120.177 274.423 120.315 273.9 120.47 273.357L120.621 272.841Z" fill="#998675"/>
</g>
<defs>
<clipPath id="clip0_414_88">
<rect width="267.302" height="430.134" fill="white" transform="matrix(0.965926 0.258819 0.258819 -0.965926 0 600.076)"/>
</clipPath>
</defs>
</svg>
